M48
; DRILL file {KiCad 8.0.1} date 2024-05-22T20:39:38+0300
; FORMAT={-:-/ absolute / metric / decimal}
; #@! TF.CreationDate,2024-05-22T20:39:38+03:00
; #@! TF.GenerationSoftware,Kicad,Pcbnew,8.0.1
; #@! TF.FileFunction,Plated,1,4,PTH
FMAT,2
METRIC
; #@! TA.AperFunction,Plated,PTH,ViaDrill
T1C0.300
; #@! TA.AperFunction,Plated,PTH,ViaDrill
T2C0.400
; #@! TA.AperFunction,Plated,PTH,ComponentDrill
T3C0.600
%
G90
G05
T1
X118.1Y-93.95
X118.1Y-95.9
X118.1Y-97.5
X118.1Y-99.1
X118.1Y-100.7
X118.1Y-102.3
X118.1Y-103.9
X118.1Y-105.85
X119.3Y-95.1
X119.3Y-96.7
X119.3Y-98.3
X119.3Y-99.9
X119.3Y-101.5
X119.3Y-103.1
X119.3Y-104.7
X119.6Y-106.4
X119.775Y-107.3
X119.775Y-108.22
X119.775Y-109.14
X120.4Y-106.4
X120.8Y-98.125
X120.8Y-99.9
X120.8Y-101.675
X121.2Y-106.4
X121.65Y-108.22
X121.65Y-109.14
X121.7Y-107.3
X121.825Y-97.1
X122.147Y-102.7
X122.72Y-91.21
X123.6Y-97.1
X123.6Y-102.7
X123.66Y-91.21
X124.325Y-108.725
X125.225Y-92.025
X125.375Y-97.1
X125.375Y-102.7
X126.0Y-105.2
X126.4Y-98.125
X126.4Y-99.9
X126.4Y-101.675
X126.625Y-91.55
X126.625Y-107.3
X126.625Y-108.22
X126.8Y-93.4
X127.6Y-93.4
X127.6Y-106.4
X127.9Y-101.5
X127.9Y-102.3
X127.925Y-95.9
X128.55Y-106.4
X129.07Y-95.1
X129.075Y-93.95
X129.075Y-103.1
X129.525Y-106.625
X129.625Y-90.525
X129.625Y-109.25
X131.3Y-96.7
X133.45Y-112.1
X133.8Y-91.55
X133.9Y-103.975
X133.925Y-109.725
X134.2Y-101.4
X134.425Y-112.97
X134.9Y-114.375
X135.25Y-93.775
X135.3Y-101.4
X135.475Y-110.2
X136.4Y-101.4
X136.513Y-100.033
X136.775Y-109.25
X137.2Y-114.225
X137.308Y-99.945
X137.4Y-99.15
X137.65Y-107.0
X137.65Y-108.0
X137.975Y-93.775
X139.05Y-114.85
X139.39Y-98.2
X139.394Y-99.145
X139.4Y-94.1
X139.55Y-105.025
X139.55Y-106.025
X139.925Y-113.875
X140.2Y-91.55
X140.25Y-96.64
X140.325Y-94.235
X140.875Y-113.875
X140.9Y-91.975
X141.82Y-91.97
X142.075Y-115.325
X142.55Y-111.881
X142.554Y-113.427
X142.725Y-95.7
X142.725Y-96.45
X142.74Y-91.97
X143.05Y-115.325
X143.375Y-112.275
X143.66Y-91.97
X143.66Y-95.645
X144.25Y-86.6
X144.25Y-87.6
X144.58Y-95.645
X144.58Y-91.97
X144.7Y-113.925
X144.7Y-114.875
X145.5Y-91.97
X145.5Y-95.645
X146.42Y-95.645
X147.34Y-95.645
X147.35Y-93.795
X147.84Y-91.13
X147.85Y-90.17
X148.067Y-112.517
X148.067Y-114.367
X148.26Y-95.645
X149.093Y-111.843
X149.292Y-114.817
X150.7Y-110.975
X151.142Y-114.817
X151.72Y-104.4
X152.65Y-107.765
X152.68Y-105.38
X153.675Y-107.2
X153.95Y-92.5
X153.95Y-94.35
X154.42Y-96.475
X154.625Y-107.2
X155.54Y-110.23
X155.725Y-87.6
X155.725Y-114.8
X155.75Y-86.6
X155.9Y-104.825
X156.28Y-96.475
X156.3Y-91.1
X156.35Y-107.825
X157.05Y-111.975
X157.575Y-114.8
X157.65Y-106.975
X157.75Y-104.825
X158.567Y-94.26
X158.7Y-105.3
X158.7Y-107.15
X159.8Y-91.55
X160.0Y-103.0
X160.0Y-104.0
X160.0Y-105.0
X160.0Y-106.0
X160.0Y-107.0
X160.0Y-108.0
X160.0Y-109.0
X160.0Y-110.0
X160.0Y-111.0
X160.0Y-112.0
X160.0Y-113.0
X160.0Y-114.0
X160.0Y-115.0
X161.25Y-93.775
X162.36Y-111.675
X162.6Y-100.5
X162.646Y-94.788
X163.05Y-98.8
X163.28Y-111.675
X163.6Y-100.5
X163.675Y-98.175
X163.975Y-94.788
X164.2Y-111.675
X164.3Y-97.6
X164.375Y-95.55
X164.475Y-93.325
X164.6Y-102.275
X165.12Y-111.675
X165.29Y-97.1
X165.29Y-99.6
X165.29Y-101.4
X165.4Y-94.075
X166.04Y-111.675
X166.2Y-91.55
X167.1Y-96.5
X167.8Y-100.5
X168.43Y-101.39
X168.5Y-97.3
X168.65Y-93.225
X168.725Y-96.0
X169.1Y-102.275
X169.675Y-92.31
X169.675Y-94.16
X169.675Y-95.08
X169.675Y-96.92
X169.675Y-97.84
X169.675Y-98.76
X169.9Y-101.86
X169.925Y-103.75
X169.925Y-104.7
X170.825Y-106.6
X170.825Y-108.47
X171.523Y-95.264
X171.625Y-93.24
X171.625Y-98.76
X171.625Y-99.68
X172.376Y-101.625
X174.332Y-97.75
X174.469Y-101.075
X174.469Y-99.225
X174.475Y-101.925
T2
X152.55Y-112.4
T3
G00X132.68Y-85.66
M15
G01X132.68Y-86.46
M16
G05
G00X132.68Y-89.68
M15
G01X132.68Y-90.78
M16
G05
G00X141.32Y-85.66
M15
G01X141.32Y-86.46
M16
G05
G00X141.32Y-89.68
M15
G01X141.32Y-90.78
M16
G05
G00X158.68Y-85.66
M15
G01X158.68Y-86.46
M16
G05
G00X158.68Y-89.68
M15
G01X158.68Y-90.78
M16
G05
G00X167.32Y-85.66
M15
G01X167.32Y-86.46
M16
G05
G00X167.32Y-89.68
M15
G01X167.32Y-90.78
M16
G05
M30
