%TF.GenerationSoftware,KiCad,Pcbnew,8.0.1*%
%TF.CreationDate,2024-05-22T20:39:38+03:00*%
%TF.ProjectId,ESP32-C3_6_pico,45535033-322d-4433-935f-365f7069636f,rev?*%
%TF.SameCoordinates,Original*%
%TF.FileFunction,Drillmap*%
%TF.FilePolarity,Positive*%
%FSLAX45Y45*%
G04 Gerber Fmt 4.5, Leading zero omitted, Abs format (unit mm)*
G04 Created by KiCad (PCBNEW 8.0.1) date 2024-05-22 20:39:38*
%MOMM*%
%LPD*%
G01*
G04 APERTURE LIST*
%ADD10C,0.100000*%
%ADD11C,0.200000*%
G04 APERTURE END LIST*
D10*
X18400000Y-10800000D02*
G75*
G02*
X18200000Y-10600000I0J200000D01*
G01*
X14580000Y-11000000D02*
X14580000Y-11550000D01*
X14680000Y-11000000D02*
X14680000Y-11550000D01*
X11600000Y-8400000D02*
X11600000Y-8400000D01*
X15390000Y-11000000D02*
G75*
G02*
X15490000Y-11000000I50000J0D01*
G01*
X18400000Y-10800000D02*
G75*
G02*
X18800000Y-11200000I0J-400000D01*
G01*
X18200000Y-9400000D02*
X18200000Y-10600000D01*
X14530000Y-11600000D02*
X11600000Y-11600000D01*
X18400000Y-8400000D02*
X18400000Y-8400000D01*
X15840000Y-11000000D02*
X15840000Y-11550000D01*
X15390000Y-11000000D02*
X15390000Y-11550000D01*
X14730000Y-11600000D02*
G75*
G02*
X14680000Y-11550000I0J50000D01*
G01*
X11600000Y-11600000D02*
G75*
G02*
X11200000Y-11200000I0J400000D01*
G01*
X14730000Y-11600000D02*
X15340000Y-11600000D01*
X15490000Y-11000000D02*
X15490000Y-11550000D01*
X18800000Y-8800000D02*
G75*
G02*
X18400000Y-9200000I-400000J0D01*
G01*
X15940000Y-11000000D02*
X15940000Y-11550000D01*
X15990000Y-11600000D02*
G75*
G02*
X15940000Y-11550000I0J50000D01*
G01*
X11200000Y-8800000D02*
G75*
G02*
X11600000Y-8400000I400000J0D01*
G01*
X15840000Y-11000000D02*
G75*
G02*
X15940000Y-11000000I50000J0D01*
G01*
X14580000Y-11000000D02*
G75*
G02*
X14680000Y-11000000I50000J0D01*
G01*
X15390000Y-11550000D02*
G75*
G02*
X15340000Y-11600000I-50000J0D01*
G01*
X15540000Y-11600000D02*
X15790000Y-11600000D01*
X15840000Y-11550000D02*
G75*
G02*
X15790000Y-11600000I-50000J0D01*
G01*
X18800000Y-11200000D02*
G75*
G02*
X18400000Y-11600000I-400000J0D01*
G01*
X15540000Y-11600000D02*
G75*
G02*
X15490000Y-11550000I0J50000D01*
G01*
X11200000Y-11200000D02*
X11200000Y-8800000D01*
X14580000Y-11550000D02*
G75*
G02*
X14530000Y-11600000I-50000J0D01*
G01*
X15990000Y-11600000D02*
X18400000Y-11600000D01*
X18200000Y-9400000D02*
G75*
G02*
X18400000Y-9200000I200000J0D01*
G01*
X11600000Y-8400000D02*
X11600000Y-8400000D01*
X11600000Y-8400000D02*
X18400000Y-8400000D01*
X18400000Y-8400000D02*
G75*
G02*
X18800000Y-8800000I0J-400000D01*
G01*
D11*
D10*
X11795000Y-9380000D02*
X11825000Y-9410000D01*
X11825000Y-9380000D02*
X11795000Y-9410000D01*
X11795000Y-9575000D02*
X11825000Y-9605000D01*
X11825000Y-9575000D02*
X11795000Y-9605000D01*
X11795000Y-9735000D02*
X11825000Y-9765000D01*
X11825000Y-9735000D02*
X11795000Y-9765000D01*
X11795000Y-9895000D02*
X11825000Y-9925000D01*
X11825000Y-9895000D02*
X11795000Y-9925000D01*
X11795000Y-10055000D02*
X11825000Y-10085000D01*
X11825000Y-10055000D02*
X11795000Y-10085000D01*
X11795000Y-10215000D02*
X11825000Y-10245000D01*
X11825000Y-10215000D02*
X11795000Y-10245000D01*
X11795000Y-10375000D02*
X11825000Y-10405000D01*
X11825000Y-10375000D02*
X11795000Y-10405000D01*
X11795000Y-10570000D02*
X11825000Y-10600000D01*
X11825000Y-10570000D02*
X11795000Y-10600000D01*
X11915000Y-9495000D02*
X11945000Y-9525000D01*
X11945000Y-9495000D02*
X11915000Y-9525000D01*
X11915000Y-9655000D02*
X11945000Y-9685000D01*
X11945000Y-9655000D02*
X11915000Y-9685000D01*
X11915000Y-9815000D02*
X11945000Y-9845000D01*
X11945000Y-9815000D02*
X11915000Y-9845000D01*
X11915000Y-9975000D02*
X11945000Y-10005000D01*
X11945000Y-9975000D02*
X11915000Y-10005000D01*
X11915000Y-10135000D02*
X11945000Y-10165000D01*
X11945000Y-10135000D02*
X11915000Y-10165000D01*
X11915000Y-10295000D02*
X11945000Y-10325000D01*
X11945000Y-10295000D02*
X11915000Y-10325000D01*
X11915000Y-10455000D02*
X11945000Y-10485000D01*
X11945000Y-10455000D02*
X11915000Y-10485000D01*
X11945000Y-10625000D02*
X11975000Y-10655000D01*
X11975000Y-10625000D02*
X11945000Y-10655000D01*
X11962500Y-10715000D02*
X11992500Y-10745000D01*
X11992500Y-10715000D02*
X11962500Y-10745000D01*
X11962500Y-10807000D02*
X11992500Y-10837000D01*
X11992500Y-10807000D02*
X11962500Y-10837000D01*
X11962500Y-10899000D02*
X11992500Y-10929000D01*
X11992500Y-10899000D02*
X11962500Y-10929000D01*
X12025000Y-10625000D02*
X12055000Y-10655000D01*
X12055000Y-10625000D02*
X12025000Y-10655000D01*
X12065000Y-9797500D02*
X12095000Y-9827500D01*
X12095000Y-9797500D02*
X12065000Y-9827500D01*
X12065000Y-9975000D02*
X12095000Y-10005000D01*
X12095000Y-9975000D02*
X12065000Y-10005000D01*
X12065000Y-10152497D02*
X12095000Y-10182497D01*
X12095000Y-10152497D02*
X12065000Y-10182497D01*
X12105000Y-10625000D02*
X12135000Y-10655000D01*
X12135000Y-10625000D02*
X12105000Y-10655000D01*
X12150000Y-10807000D02*
X12180000Y-10837000D01*
X12180000Y-10807000D02*
X12150000Y-10837000D01*
X12150000Y-10899000D02*
X12180000Y-10929000D01*
X12180000Y-10899000D02*
X12150000Y-10929000D01*
X12155000Y-10715000D02*
X12185000Y-10745000D01*
X12185000Y-10715000D02*
X12155000Y-10745000D01*
X12167500Y-9695000D02*
X12197500Y-9725000D01*
X12197500Y-9695000D02*
X12167500Y-9725000D01*
X12199750Y-10255000D02*
X12229750Y-10285000D01*
X12229750Y-10255000D02*
X12199750Y-10285000D01*
X12257000Y-9106000D02*
X12287000Y-9136000D01*
X12287000Y-9106000D02*
X12257000Y-9136000D01*
X12345000Y-9695000D02*
X12375000Y-9725000D01*
X12375000Y-9695000D02*
X12345000Y-9725000D01*
X12345000Y-10255000D02*
X12375000Y-10285000D01*
X12375000Y-10255000D02*
X12345000Y-10285000D01*
X12351000Y-9106000D02*
X12381000Y-9136000D01*
X12381000Y-9106000D02*
X12351000Y-9136000D01*
X12417500Y-10857500D02*
X12447500Y-10887500D01*
X12447500Y-10857500D02*
X12417500Y-10887500D01*
X12507500Y-9187500D02*
X12537500Y-9217500D01*
X12537500Y-9187500D02*
X12507500Y-9217500D01*
X12522500Y-9695000D02*
X12552500Y-9725000D01*
X12552500Y-9695000D02*
X12522500Y-9725000D01*
X12522500Y-10255000D02*
X12552500Y-10285000D01*
X12552500Y-10255000D02*
X12522500Y-10285000D01*
X12585000Y-10505000D02*
X12615000Y-10535000D01*
X12615000Y-10505000D02*
X12585000Y-10535000D01*
X12625000Y-9797500D02*
X12655000Y-9827500D01*
X12655000Y-9797500D02*
X12625000Y-9827500D01*
X12625000Y-9975000D02*
X12655000Y-10005000D01*
X12655000Y-9975000D02*
X12625000Y-10005000D01*
X12625000Y-10152500D02*
X12655000Y-10182500D01*
X12655000Y-10152500D02*
X12625000Y-10182500D01*
X12647500Y-9140000D02*
X12677500Y-9170000D01*
X12677500Y-9140000D02*
X12647500Y-9170000D01*
X12647500Y-10715000D02*
X12677500Y-10745000D01*
X12677500Y-10715000D02*
X12647500Y-10745000D01*
X12647500Y-10807000D02*
X12677500Y-10837000D01*
X12677500Y-10807000D02*
X12647500Y-10837000D01*
X12665000Y-9325000D02*
X12695000Y-9355000D01*
X12695000Y-9325000D02*
X12665000Y-9355000D01*
X12745000Y-9325000D02*
X12775000Y-9355000D01*
X12775000Y-9325000D02*
X12745000Y-9355000D01*
X12745000Y-10625000D02*
X12775000Y-10655000D01*
X12775000Y-10625000D02*
X12745000Y-10655000D01*
X12775000Y-10135000D02*
X12805000Y-10165000D01*
X12805000Y-10135000D02*
X12775000Y-10165000D01*
X12775000Y-10215000D02*
X12805000Y-10245000D01*
X12805000Y-10215000D02*
X12775000Y-10245000D01*
X12777500Y-9575000D02*
X12807500Y-9605000D01*
X12807500Y-9575000D02*
X12777500Y-9605000D01*
X12840000Y-10625000D02*
X12870000Y-10655000D01*
X12870000Y-10625000D02*
X12840000Y-10655000D01*
X12892000Y-9495000D02*
X12922000Y-9525000D01*
X12922000Y-9495000D02*
X12892000Y-9525000D01*
X12892500Y-9380000D02*
X12922500Y-9410000D01*
X12922500Y-9380000D02*
X12892500Y-9410000D01*
X12892500Y-10295000D02*
X12922500Y-10325000D01*
X12922500Y-10295000D02*
X12892500Y-10325000D01*
X12937500Y-10647500D02*
X12967500Y-10677500D01*
X12967500Y-10647500D02*
X12937500Y-10677500D01*
X12947500Y-9037500D02*
X12977500Y-9067500D01*
X12977500Y-9037500D02*
X12947500Y-9067500D01*
X12947500Y-10910000D02*
X12977500Y-10940000D01*
X12977500Y-10910000D02*
X12947500Y-10940000D01*
X13115000Y-9655000D02*
X13145000Y-9685000D01*
X13145000Y-9655000D02*
X13115000Y-9685000D01*
X13330000Y-11195000D02*
X13360000Y-11225000D01*
X13360000Y-11195000D02*
X13330000Y-11225000D01*
X13365000Y-9140000D02*
X13395000Y-9170000D01*
X13395000Y-9140000D02*
X13365000Y-9170000D01*
X13375000Y-10382500D02*
X13405000Y-10412500D01*
X13405000Y-10382500D02*
X13375000Y-10412500D01*
X13377500Y-10957500D02*
X13407500Y-10987500D01*
X13407500Y-10957500D02*
X13377500Y-10987500D01*
X13405000Y-10125000D02*
X13435000Y-10155000D01*
X13435000Y-10125000D02*
X13405000Y-10155000D01*
X13427500Y-11282000D02*
X13457500Y-11312000D01*
X13457500Y-11282000D02*
X13427500Y-11312000D01*
X13475000Y-11422500D02*
X13505000Y-11452500D01*
X13505000Y-11422500D02*
X13475000Y-11452500D01*
X13510000Y-9362500D02*
X13540000Y-9392500D01*
X13540000Y-9362500D02*
X13510000Y-9392500D01*
X13515000Y-10125000D02*
X13545000Y-10155000D01*
X13545000Y-10125000D02*
X13515000Y-10155000D01*
X13532500Y-11005000D02*
X13562500Y-11035000D01*
X13562500Y-11005000D02*
X13532500Y-11035000D01*
X13625000Y-10125000D02*
X13655000Y-10155000D01*
X13655000Y-10125000D02*
X13625000Y-10155000D01*
X13636264Y-9988312D02*
X13666264Y-10018312D01*
X13666264Y-9988312D02*
X13636264Y-10018312D01*
X13662500Y-10910000D02*
X13692500Y-10940000D01*
X13692500Y-10910000D02*
X13662500Y-10940000D01*
X13705000Y-11407500D02*
X13735000Y-11437500D01*
X13735000Y-11407500D02*
X13705000Y-11437500D01*
X13715774Y-9979467D02*
X13745774Y-10009467D01*
X13745774Y-9979467D02*
X13715774Y-10009467D01*
X13725000Y-9900000D02*
X13755000Y-9930000D01*
X13755000Y-9900000D02*
X13725000Y-9930000D01*
X13750000Y-10685000D02*
X13780000Y-10715000D01*
X13780000Y-10685000D02*
X13750000Y-10715000D01*
X13750000Y-10785000D02*
X13780000Y-10815000D01*
X13780000Y-10785000D02*
X13750000Y-10815000D01*
X13782500Y-9362500D02*
X13812500Y-9392500D01*
X13812500Y-9362500D02*
X13782500Y-9392500D01*
X13890000Y-11470000D02*
X13920000Y-11500000D01*
X13920000Y-11470000D02*
X13890000Y-11500000D01*
X13924000Y-9805000D02*
X13954000Y-9835000D01*
X13954000Y-9805000D02*
X13924000Y-9835000D01*
X13924351Y-9899500D02*
X13954351Y-9929500D01*
X13954351Y-9899500D02*
X13924351Y-9929500D01*
X13925000Y-9395000D02*
X13955000Y-9425000D01*
X13955000Y-9395000D02*
X13925000Y-9425000D01*
X13940000Y-10487500D02*
X13970000Y-10517500D01*
X13970000Y-10487500D02*
X13940000Y-10517500D01*
X13940000Y-10587500D02*
X13970000Y-10617500D01*
X13970000Y-10587500D02*
X13940000Y-10617500D01*
X13977500Y-11372500D02*
X14007500Y-11402500D01*
X14007500Y-11372500D02*
X13977500Y-11402500D01*
X14005000Y-9140000D02*
X14035000Y-9170000D01*
X14035000Y-9140000D02*
X14005000Y-9170000D01*
X14010000Y-9649000D02*
X14040000Y-9679000D01*
X14040000Y-9649000D02*
X14010000Y-9679000D01*
X14017500Y-9408500D02*
X14047500Y-9438500D01*
X14047500Y-9408500D02*
X14017500Y-9438500D01*
X14072500Y-11372500D02*
X14102500Y-11402500D01*
X14102500Y-11372500D02*
X14072500Y-11402500D01*
X14075000Y-9182500D02*
X14105000Y-9212500D01*
X14105000Y-9182500D02*
X14075000Y-9212500D01*
X14167000Y-9182000D02*
X14197000Y-9212000D01*
X14197000Y-9182000D02*
X14167000Y-9212000D01*
X14192500Y-11517500D02*
X14222500Y-11547500D01*
X14222500Y-11517500D02*
X14192500Y-11547500D01*
X14239966Y-11173076D02*
X14269966Y-11203076D01*
X14269966Y-11173076D02*
X14239966Y-11203076D01*
X14240373Y-11327681D02*
X14270373Y-11357681D01*
X14270373Y-11327681D02*
X14240373Y-11357681D01*
X14257500Y-9555000D02*
X14287500Y-9585000D01*
X14287500Y-9555000D02*
X14257500Y-9585000D01*
X14257500Y-9630000D02*
X14287500Y-9660000D01*
X14287500Y-9630000D02*
X14257500Y-9660000D01*
X14259000Y-9182000D02*
X14289000Y-9212000D01*
X14289000Y-9182000D02*
X14259000Y-9212000D01*
X14290000Y-11517500D02*
X14320000Y-11547500D01*
X14320000Y-11517500D02*
X14290000Y-11547500D01*
X14322500Y-11212500D02*
X14352500Y-11242500D01*
X14352500Y-11212500D02*
X14322500Y-11242500D01*
X14351000Y-9182000D02*
X14381000Y-9212000D01*
X14381000Y-9182000D02*
X14351000Y-9212000D01*
X14351000Y-9549500D02*
X14381000Y-9579500D01*
X14381000Y-9549500D02*
X14351000Y-9579500D01*
X14410000Y-8645000D02*
X14440000Y-8675000D01*
X14440000Y-8645000D02*
X14410000Y-8675000D01*
X14410000Y-8745000D02*
X14440000Y-8775000D01*
X14440000Y-8745000D02*
X14410000Y-8775000D01*
X14443000Y-9549500D02*
X14473000Y-9579500D01*
X14473000Y-9549500D02*
X14443000Y-9579500D01*
X14443000Y-9182000D02*
X14473000Y-9212000D01*
X14473000Y-9182000D02*
X14443000Y-9212000D01*
X14455000Y-11377500D02*
X14485000Y-11407500D01*
X14485000Y-11377500D02*
X14455000Y-11407500D01*
X14455000Y-11472500D02*
X14485000Y-11502500D01*
X14485000Y-11472500D02*
X14455000Y-11502500D01*
X14535000Y-9182000D02*
X14565000Y-9212000D01*
X14565000Y-9182000D02*
X14535000Y-9212000D01*
X14535000Y-9549500D02*
X14565000Y-9579500D01*
X14565000Y-9549500D02*
X14535000Y-9579500D01*
X14627000Y-9549500D02*
X14657000Y-9579500D01*
X14657000Y-9549500D02*
X14627000Y-9579500D01*
X14719000Y-9549500D02*
X14749000Y-9579500D01*
X14749000Y-9549500D02*
X14719000Y-9579500D01*
X14720000Y-9364500D02*
X14750000Y-9394500D01*
X14750000Y-9364500D02*
X14720000Y-9394500D01*
X14769000Y-9098000D02*
X14799000Y-9128000D01*
X14799000Y-9098000D02*
X14769000Y-9128000D01*
X14770000Y-9002000D02*
X14800000Y-9032000D01*
X14800000Y-9002000D02*
X14770000Y-9032000D01*
X14791750Y-11236750D02*
X14821750Y-11266750D01*
X14821750Y-11236750D02*
X14791750Y-11266750D01*
X14791750Y-11421750D02*
X14821750Y-11451750D01*
X14821750Y-11421750D02*
X14791750Y-11451750D01*
X14811000Y-9549500D02*
X14841000Y-9579500D01*
X14841000Y-9549500D02*
X14811000Y-9579500D01*
X14894250Y-11169250D02*
X14924250Y-11199250D01*
X14924250Y-11169250D02*
X14894250Y-11199250D01*
X14914250Y-11466750D02*
X14944250Y-11496750D01*
X14944250Y-11466750D02*
X14914250Y-11496750D01*
X15055000Y-11082500D02*
X15085000Y-11112500D01*
X15085000Y-11082500D02*
X15055000Y-11112500D01*
X15099250Y-11466750D02*
X15129250Y-11496750D01*
X15129250Y-11466750D02*
X15099250Y-11496750D01*
X15157000Y-10425000D02*
X15187000Y-10455000D01*
X15187000Y-10425000D02*
X15157000Y-10455000D01*
X15250000Y-10761500D02*
X15280000Y-10791500D01*
X15280000Y-10761500D02*
X15250000Y-10791500D01*
X15253000Y-10523000D02*
X15283000Y-10553000D01*
X15283000Y-10523000D02*
X15253000Y-10553000D01*
X15352500Y-10705000D02*
X15382500Y-10735000D01*
X15382500Y-10705000D02*
X15352500Y-10735000D01*
X15380000Y-9235000D02*
X15410000Y-9265000D01*
X15410000Y-9235000D02*
X15380000Y-9265000D01*
X15380000Y-9420000D02*
X15410000Y-9450000D01*
X15410000Y-9420000D02*
X15380000Y-9450000D01*
X15427000Y-9632500D02*
X15457000Y-9662500D01*
X15457000Y-9632500D02*
X15427000Y-9662500D01*
X15447500Y-10705000D02*
X15477500Y-10735000D01*
X15477500Y-10705000D02*
X15447500Y-10735000D01*
X15539000Y-11008000D02*
X15569000Y-11038000D01*
X15569000Y-11008000D02*
X15539000Y-11038000D01*
X15557500Y-8745000D02*
X15587500Y-8775000D01*
X15587500Y-8745000D02*
X15557500Y-8775000D01*
X15557500Y-11465000D02*
X15587500Y-11495000D01*
X15587500Y-11465000D02*
X15557500Y-11495000D01*
X15560000Y-8645000D02*
X15590000Y-8675000D01*
X15590000Y-8645000D02*
X15560000Y-8675000D01*
X15575000Y-10467500D02*
X15605000Y-10497500D01*
X15605000Y-10467500D02*
X15575000Y-10497500D01*
X15613000Y-9632500D02*
X15643000Y-9662500D01*
X15643000Y-9632500D02*
X15613000Y-9662500D01*
X15615000Y-9095000D02*
X15645000Y-9125000D01*
X15645000Y-9095000D02*
X15615000Y-9125000D01*
X15620000Y-10767500D02*
X15650000Y-10797500D01*
X15650000Y-10767500D02*
X15620000Y-10797500D01*
X15690000Y-11182500D02*
X15720000Y-11212500D01*
X15720000Y-11182500D02*
X15690000Y-11212500D01*
X15742500Y-11465000D02*
X15772500Y-11495000D01*
X15772500Y-11465000D02*
X15742500Y-11495000D01*
X15750000Y-10682500D02*
X15780000Y-10712500D01*
X15780000Y-10682500D02*
X15750000Y-10712500D01*
X15760000Y-10467500D02*
X15790000Y-10497500D01*
X15790000Y-10467500D02*
X15760000Y-10497500D01*
X15841670Y-9410993D02*
X15871670Y-9440993D01*
X15871670Y-9410993D02*
X15841670Y-9440993D01*
X15855000Y-10515000D02*
X15885000Y-10545000D01*
X15885000Y-10515000D02*
X15855000Y-10545000D01*
X15855000Y-10700000D02*
X15885000Y-10730000D01*
X15885000Y-10700000D02*
X15855000Y-10730000D01*
X15965000Y-9140000D02*
X15995000Y-9170000D01*
X15995000Y-9140000D02*
X15965000Y-9170000D01*
X15985000Y-10285000D02*
X16015000Y-10315000D01*
X16015000Y-10285000D02*
X15985000Y-10315000D01*
X15985000Y-10385000D02*
X16015000Y-10415000D01*
X16015000Y-10385000D02*
X15985000Y-10415000D01*
X15985000Y-10485000D02*
X16015000Y-10515000D01*
X16015000Y-10485000D02*
X15985000Y-10515000D01*
X15985000Y-10585000D02*
X16015000Y-10615000D01*
X16015000Y-10585000D02*
X15985000Y-10615000D01*
X15985000Y-10685000D02*
X16015000Y-10715000D01*
X16015000Y-10685000D02*
X15985000Y-10715000D01*
X15985000Y-10785000D02*
X16015000Y-10815000D01*
X16015000Y-10785000D02*
X15985000Y-10815000D01*
X15985000Y-10885000D02*
X16015000Y-10915000D01*
X16015000Y-10885000D02*
X15985000Y-10915000D01*
X15985000Y-10985000D02*
X16015000Y-11015000D01*
X16015000Y-10985000D02*
X15985000Y-11015000D01*
X15985000Y-11085000D02*
X16015000Y-11115000D01*
X16015000Y-11085000D02*
X15985000Y-11115000D01*
X15985000Y-11185000D02*
X16015000Y-11215000D01*
X16015000Y-11185000D02*
X15985000Y-11215000D01*
X15985000Y-11285000D02*
X16015000Y-11315000D01*
X16015000Y-11285000D02*
X15985000Y-11315000D01*
X15985000Y-11385000D02*
X16015000Y-11415000D01*
X16015000Y-11385000D02*
X15985000Y-11415000D01*
X15985000Y-11485000D02*
X16015000Y-11515000D01*
X16015000Y-11485000D02*
X15985000Y-11515000D01*
X16110000Y-9362500D02*
X16140000Y-9392500D01*
X16140000Y-9362500D02*
X16110000Y-9392500D01*
X16221000Y-11152500D02*
X16251000Y-11182500D01*
X16251000Y-11152500D02*
X16221000Y-11182500D01*
X16245000Y-10035000D02*
X16275000Y-10065000D01*
X16275000Y-10035000D02*
X16245000Y-10065000D01*
X16249596Y-9463826D02*
X16279596Y-9493826D01*
X16279596Y-9463826D02*
X16249596Y-9493826D01*
X16290000Y-9865000D02*
X16320000Y-9895000D01*
X16320000Y-9865000D02*
X16290000Y-9895000D01*
X16313000Y-11152500D02*
X16343000Y-11182500D01*
X16343000Y-11152500D02*
X16313000Y-11182500D01*
X16345000Y-10035000D02*
X16375000Y-10065000D01*
X16375000Y-10035000D02*
X16345000Y-10065000D01*
X16352500Y-9802500D02*
X16382500Y-9832500D01*
X16382500Y-9802500D02*
X16352500Y-9832500D01*
X16382500Y-9463826D02*
X16412500Y-9493826D01*
X16412500Y-9463826D02*
X16382500Y-9493826D01*
X16405000Y-11152500D02*
X16435000Y-11182500D01*
X16435000Y-11152500D02*
X16405000Y-11182500D01*
X16415000Y-9745000D02*
X16445000Y-9775000D01*
X16445000Y-9745000D02*
X16415000Y-9775000D01*
X16422500Y-9540000D02*
X16452500Y-9570000D01*
X16452500Y-9540000D02*
X16422500Y-9570000D01*
X16432500Y-9317500D02*
X16462500Y-9347500D01*
X16462500Y-9317500D02*
X16432500Y-9347500D01*
X16445000Y-10212500D02*
X16475000Y-10242500D01*
X16475000Y-10212500D02*
X16445000Y-10242500D01*
X16497000Y-11152500D02*
X16527000Y-11182500D01*
X16527000Y-11152500D02*
X16497000Y-11182500D01*
X16514000Y-9695000D02*
X16544000Y-9725000D01*
X16544000Y-9695000D02*
X16514000Y-9725000D01*
X16514000Y-9945000D02*
X16544000Y-9975000D01*
X16544000Y-9945000D02*
X16514000Y-9975000D01*
X16514000Y-10125000D02*
X16544000Y-10155000D01*
X16544000Y-10125000D02*
X16514000Y-10155000D01*
X16525000Y-9392500D02*
X16555000Y-9422500D01*
X16555000Y-9392500D02*
X16525000Y-9422500D01*
X16589000Y-11152500D02*
X16619000Y-11182500D01*
X16619000Y-11152500D02*
X16589000Y-11182500D01*
X16605000Y-9140000D02*
X16635000Y-9170000D01*
X16635000Y-9140000D02*
X16605000Y-9170000D01*
X16695000Y-9635000D02*
X16725000Y-9665000D01*
X16725000Y-9635000D02*
X16695000Y-9665000D01*
X16765000Y-10035000D02*
X16795000Y-10065000D01*
X16795000Y-10035000D02*
X16765000Y-10065000D01*
X16828000Y-10124000D02*
X16858000Y-10154000D01*
X16858000Y-10124000D02*
X16828000Y-10154000D01*
X16835000Y-9715000D02*
X16865000Y-9745000D01*
X16865000Y-9715000D02*
X16835000Y-9745000D01*
X16850000Y-9307500D02*
X16880000Y-9337500D01*
X16880000Y-9307500D02*
X16850000Y-9337500D01*
X16857500Y-9585000D02*
X16887500Y-9615000D01*
X16887500Y-9585000D02*
X16857500Y-9615000D01*
X16895000Y-10212500D02*
X16925000Y-10242500D01*
X16925000Y-10212500D02*
X16895000Y-10242500D01*
X16952500Y-9216000D02*
X16982500Y-9246000D01*
X16982500Y-9216000D02*
X16952500Y-9246000D01*
X16952500Y-9401000D02*
X16982500Y-9431000D01*
X16982500Y-9401000D02*
X16952500Y-9431000D01*
X16952500Y-9493000D02*
X16982500Y-9523000D01*
X16982500Y-9493000D02*
X16952500Y-9523000D01*
X16952500Y-9677000D02*
X16982500Y-9707000D01*
X16982500Y-9677000D02*
X16952500Y-9707000D01*
X16952500Y-9769000D02*
X16982500Y-9799000D01*
X16982500Y-9769000D02*
X16952500Y-9799000D01*
X16952500Y-9861000D02*
X16982500Y-9891000D01*
X16982500Y-9861000D02*
X16952500Y-9891000D01*
X16975000Y-10171000D02*
X17005000Y-10201000D01*
X17005000Y-10171000D02*
X16975000Y-10201000D01*
X16977500Y-10360000D02*
X17007500Y-10390000D01*
X17007500Y-10360000D02*
X16977500Y-10390000D01*
X16977500Y-10455000D02*
X17007500Y-10485000D01*
X17007500Y-10455000D02*
X16977500Y-10485000D01*
X17067500Y-10645000D02*
X17097500Y-10675000D01*
X17097500Y-10645000D02*
X17067500Y-10675000D01*
X17067500Y-10832000D02*
X17097500Y-10862000D01*
X17097500Y-10832000D02*
X17067500Y-10862000D01*
X17137303Y-9511419D02*
X17167303Y-9541419D01*
X17167303Y-9511419D02*
X17137303Y-9541419D01*
X17147500Y-9309000D02*
X17177500Y-9339000D01*
X17177500Y-9309000D02*
X17147500Y-9339000D01*
X17147500Y-9861000D02*
X17177500Y-9891000D01*
X17177500Y-9861000D02*
X17147500Y-9891000D01*
X17147500Y-9953000D02*
X17177500Y-9983000D01*
X17177500Y-9953000D02*
X17147500Y-9983000D01*
X17222589Y-10147500D02*
X17252589Y-10177500D01*
X17252589Y-10147500D02*
X17222589Y-10177500D01*
X17418201Y-9759994D02*
X17448201Y-9789994D01*
X17448201Y-9759994D02*
X17418201Y-9789994D01*
X17431919Y-10092500D02*
X17461919Y-10122500D01*
X17461919Y-10092500D02*
X17431919Y-10122500D01*
X17431936Y-9907500D02*
X17461936Y-9937500D01*
X17461936Y-9907500D02*
X17431936Y-9937500D01*
X17432500Y-10177500D02*
X17462500Y-10207500D01*
X17462500Y-10177500D02*
X17432500Y-10207500D01*
X15275000Y-11240000D02*
G75*
G02*
X15235000Y-11240000I-20000J0D01*
G01*
X15235000Y-11240000D02*
G75*
G02*
X15275000Y-11240000I20000J0D01*
G01*
X13268000Y-8576000D02*
X13268000Y-8636000D01*
X13238000Y-8606000D02*
X13298000Y-8606000D01*
X13238000Y-8566000D02*
X13238000Y-8646000D01*
X13298000Y-8646000D02*
G75*
G02*
X13238000Y-8646000I-30000J0D01*
G01*
X13298000Y-8646000D02*
X13298000Y-8566000D01*
X13298000Y-8566000D02*
G75*
G03*
X13238000Y-8566000I-30000J0D01*
G01*
X13268000Y-8993000D02*
X13268000Y-9053000D01*
X13238000Y-9023000D02*
X13298000Y-9023000D01*
X13238000Y-8968000D02*
X13238000Y-9078000D01*
X13298000Y-9078000D02*
G75*
G02*
X13238000Y-9078000I-30000J0D01*
G01*
X13298000Y-9078000D02*
X13298000Y-8968000D01*
X13298000Y-8968000D02*
G75*
G03*
X13238000Y-8968000I-30000J0D01*
G01*
X14132000Y-8576000D02*
X14132000Y-8636000D01*
X14102000Y-8606000D02*
X14162000Y-8606000D01*
X14102000Y-8566000D02*
X14102000Y-8646000D01*
X14162000Y-8646000D02*
G75*
G02*
X14102000Y-8646000I-30000J0D01*
G01*
X14162000Y-8646000D02*
X14162000Y-8566000D01*
X14162000Y-8566000D02*
G75*
G03*
X14102000Y-8566000I-30000J0D01*
G01*
X14132000Y-8993000D02*
X14132000Y-9053000D01*
X14102000Y-9023000D02*
X14162000Y-9023000D01*
X14102000Y-8968000D02*
X14102000Y-9078000D01*
X14162000Y-9078000D02*
G75*
G02*
X14102000Y-9078000I-30000J0D01*
G01*
X14162000Y-9078000D02*
X14162000Y-8968000D01*
X14162000Y-8968000D02*
G75*
G03*
X14102000Y-8968000I-30000J0D01*
G01*
X15868000Y-8576000D02*
X15868000Y-8636000D01*
X15838000Y-8606000D02*
X15898000Y-8606000D01*
X15838000Y-8566000D02*
X15838000Y-8646000D01*
X15898000Y-8646000D02*
G75*
G02*
X15838000Y-8646000I-30000J0D01*
G01*
X15898000Y-8646000D02*
X15898000Y-8566000D01*
X15898000Y-8566000D02*
G75*
G03*
X15838000Y-8566000I-30000J0D01*
G01*
X15868000Y-8993000D02*
X15868000Y-9053000D01*
X15838000Y-9023000D02*
X15898000Y-9023000D01*
X15838000Y-8968000D02*
X15838000Y-9078000D01*
X15898000Y-9078000D02*
G75*
G02*
X15838000Y-9078000I-30000J0D01*
G01*
X15898000Y-9078000D02*
X15898000Y-8968000D01*
X15898000Y-8968000D02*
G75*
G03*
X15838000Y-8968000I-30000J0D01*
G01*
X16732000Y-8576000D02*
X16732000Y-8636000D01*
X16702000Y-8606000D02*
X16762000Y-8606000D01*
X16702000Y-8566000D02*
X16702000Y-8646000D01*
X16762000Y-8646000D02*
G75*
G02*
X16702000Y-8646000I-30000J0D01*
G01*
X16762000Y-8646000D02*
X16762000Y-8566000D01*
X16762000Y-8566000D02*
G75*
G03*
X16702000Y-8566000I-30000J0D01*
G01*
X16732000Y-8993000D02*
X16732000Y-9053000D01*
X16702000Y-9023000D02*
X16762000Y-9023000D01*
X16702000Y-8968000D02*
X16702000Y-9078000D01*
X16762000Y-9078000D02*
G75*
G02*
X16702000Y-9078000I-30000J0D01*
G01*
X16762000Y-9078000D02*
X16762000Y-8968000D01*
X16762000Y-8968000D02*
G75*
G03*
X16702000Y-8968000I-30000J0D01*
G01*
D11*
X11455777Y-11916484D02*
X11455777Y-11716484D01*
X11455777Y-11716484D02*
X11503396Y-11716484D01*
X11503396Y-11716484D02*
X11531967Y-11726008D01*
X11531967Y-11726008D02*
X11551015Y-11745055D01*
X11551015Y-11745055D02*
X11560539Y-11764103D01*
X11560539Y-11764103D02*
X11570062Y-11802198D01*
X11570062Y-11802198D02*
X11570062Y-11830769D01*
X11570062Y-11830769D02*
X11560539Y-11868865D01*
X11560539Y-11868865D02*
X11551015Y-11887912D01*
X11551015Y-11887912D02*
X11531967Y-11906960D01*
X11531967Y-11906960D02*
X11503396Y-11916484D01*
X11503396Y-11916484D02*
X11455777Y-11916484D01*
X11655777Y-11916484D02*
X11655777Y-11783150D01*
X11655777Y-11821246D02*
X11665301Y-11802198D01*
X11665301Y-11802198D02*
X11674824Y-11792674D01*
X11674824Y-11792674D02*
X11693872Y-11783150D01*
X11693872Y-11783150D02*
X11712920Y-11783150D01*
X11779586Y-11916484D02*
X11779586Y-11783150D01*
X11779586Y-11716484D02*
X11770062Y-11726008D01*
X11770062Y-11726008D02*
X11779586Y-11735531D01*
X11779586Y-11735531D02*
X11789110Y-11726008D01*
X11789110Y-11726008D02*
X11779586Y-11716484D01*
X11779586Y-11716484D02*
X11779586Y-11735531D01*
X11903396Y-11916484D02*
X11884348Y-11906960D01*
X11884348Y-11906960D02*
X11874824Y-11887912D01*
X11874824Y-11887912D02*
X11874824Y-11716484D01*
X12008158Y-11916484D02*
X11989110Y-11906960D01*
X11989110Y-11906960D02*
X11979586Y-11887912D01*
X11979586Y-11887912D02*
X11979586Y-11716484D01*
X12236729Y-11916484D02*
X12236729Y-11716484D01*
X12236729Y-11716484D02*
X12303396Y-11859341D01*
X12303396Y-11859341D02*
X12370062Y-11716484D01*
X12370062Y-11716484D02*
X12370062Y-11916484D01*
X12551015Y-11916484D02*
X12551015Y-11811722D01*
X12551015Y-11811722D02*
X12541491Y-11792674D01*
X12541491Y-11792674D02*
X12522443Y-11783150D01*
X12522443Y-11783150D02*
X12484348Y-11783150D01*
X12484348Y-11783150D02*
X12465301Y-11792674D01*
X12551015Y-11906960D02*
X12531967Y-11916484D01*
X12531967Y-11916484D02*
X12484348Y-11916484D01*
X12484348Y-11916484D02*
X12465301Y-11906960D01*
X12465301Y-11906960D02*
X12455777Y-11887912D01*
X12455777Y-11887912D02*
X12455777Y-11868865D01*
X12455777Y-11868865D02*
X12465301Y-11849817D01*
X12465301Y-11849817D02*
X12484348Y-11840293D01*
X12484348Y-11840293D02*
X12531967Y-11840293D01*
X12531967Y-11840293D02*
X12551015Y-11830769D01*
X12646253Y-11783150D02*
X12646253Y-11983150D01*
X12646253Y-11792674D02*
X12665301Y-11783150D01*
X12665301Y-11783150D02*
X12703396Y-11783150D01*
X12703396Y-11783150D02*
X12722443Y-11792674D01*
X12722443Y-11792674D02*
X12731967Y-11802198D01*
X12731967Y-11802198D02*
X12741491Y-11821246D01*
X12741491Y-11821246D02*
X12741491Y-11878388D01*
X12741491Y-11878388D02*
X12731967Y-11897436D01*
X12731967Y-11897436D02*
X12722443Y-11906960D01*
X12722443Y-11906960D02*
X12703396Y-11916484D01*
X12703396Y-11916484D02*
X12665301Y-11916484D01*
X12665301Y-11916484D02*
X12646253Y-11906960D01*
X12827205Y-11897436D02*
X12836729Y-11906960D01*
X12836729Y-11906960D02*
X12827205Y-11916484D01*
X12827205Y-11916484D02*
X12817682Y-11906960D01*
X12817682Y-11906960D02*
X12827205Y-11897436D01*
X12827205Y-11897436D02*
X12827205Y-11916484D01*
X12827205Y-11792674D02*
X12836729Y-11802198D01*
X12836729Y-11802198D02*
X12827205Y-11811722D01*
X12827205Y-11811722D02*
X12817682Y-11802198D01*
X12817682Y-11802198D02*
X12827205Y-11792674D01*
X12827205Y-11792674D02*
X12827205Y-11811722D01*
D10*
X11165000Y-12230000D02*
X11195000Y-12260000D01*
X11195000Y-12230000D02*
X11165000Y-12260000D01*
D11*
X11493872Y-12136484D02*
X11512920Y-12136484D01*
X11512920Y-12136484D02*
X11531967Y-12146008D01*
X11531967Y-12146008D02*
X11541491Y-12155531D01*
X11541491Y-12155531D02*
X11551015Y-12174579D01*
X11551015Y-12174579D02*
X11560539Y-12212674D01*
X11560539Y-12212674D02*
X11560539Y-12260293D01*
X11560539Y-12260293D02*
X11551015Y-12298388D01*
X11551015Y-12298388D02*
X11541491Y-12317436D01*
X11541491Y-12317436D02*
X11531967Y-12326960D01*
X11531967Y-12326960D02*
X11512920Y-12336484D01*
X11512920Y-12336484D02*
X11493872Y-12336484D01*
X11493872Y-12336484D02*
X11474824Y-12326960D01*
X11474824Y-12326960D02*
X11465301Y-12317436D01*
X11465301Y-12317436D02*
X11455777Y-12298388D01*
X11455777Y-12298388D02*
X11446253Y-12260293D01*
X11446253Y-12260293D02*
X11446253Y-12212674D01*
X11446253Y-12212674D02*
X11455777Y-12174579D01*
X11455777Y-12174579D02*
X11465301Y-12155531D01*
X11465301Y-12155531D02*
X11474824Y-12146008D01*
X11474824Y-12146008D02*
X11493872Y-12136484D01*
X11646253Y-12317436D02*
X11655777Y-12326960D01*
X11655777Y-12326960D02*
X11646253Y-12336484D01*
X11646253Y-12336484D02*
X11636729Y-12326960D01*
X11636729Y-12326960D02*
X11646253Y-12317436D01*
X11646253Y-12317436D02*
X11646253Y-12336484D01*
X11722443Y-12136484D02*
X11846253Y-12136484D01*
X11846253Y-12136484D02*
X11779586Y-12212674D01*
X11779586Y-12212674D02*
X11808158Y-12212674D01*
X11808158Y-12212674D02*
X11827205Y-12222198D01*
X11827205Y-12222198D02*
X11836729Y-12231722D01*
X11836729Y-12231722D02*
X11846253Y-12250769D01*
X11846253Y-12250769D02*
X11846253Y-12298388D01*
X11846253Y-12298388D02*
X11836729Y-12317436D01*
X11836729Y-12317436D02*
X11827205Y-12326960D01*
X11827205Y-12326960D02*
X11808158Y-12336484D01*
X11808158Y-12336484D02*
X11751015Y-12336484D01*
X11751015Y-12336484D02*
X11731967Y-12326960D01*
X11731967Y-12326960D02*
X11722443Y-12317436D01*
X11970062Y-12136484D02*
X11989110Y-12136484D01*
X11989110Y-12136484D02*
X12008158Y-12146008D01*
X12008158Y-12146008D02*
X12017682Y-12155531D01*
X12017682Y-12155531D02*
X12027205Y-12174579D01*
X12027205Y-12174579D02*
X12036729Y-12212674D01*
X12036729Y-12212674D02*
X12036729Y-12260293D01*
X12036729Y-12260293D02*
X12027205Y-12298388D01*
X12027205Y-12298388D02*
X12017682Y-12317436D01*
X12017682Y-12317436D02*
X12008158Y-12326960D01*
X12008158Y-12326960D02*
X11989110Y-12336484D01*
X11989110Y-12336484D02*
X11970062Y-12336484D01*
X11970062Y-12336484D02*
X11951015Y-12326960D01*
X11951015Y-12326960D02*
X11941491Y-12317436D01*
X11941491Y-12317436D02*
X11931967Y-12298388D01*
X11931967Y-12298388D02*
X11922443Y-12260293D01*
X11922443Y-12260293D02*
X11922443Y-12212674D01*
X11922443Y-12212674D02*
X11931967Y-12174579D01*
X11931967Y-12174579D02*
X11941491Y-12155531D01*
X11941491Y-12155531D02*
X11951015Y-12146008D01*
X11951015Y-12146008D02*
X11970062Y-12136484D01*
X12160539Y-12136484D02*
X12179586Y-12136484D01*
X12179586Y-12136484D02*
X12198634Y-12146008D01*
X12198634Y-12146008D02*
X12208158Y-12155531D01*
X12208158Y-12155531D02*
X12217682Y-12174579D01*
X12217682Y-12174579D02*
X12227205Y-12212674D01*
X12227205Y-12212674D02*
X12227205Y-12260293D01*
X12227205Y-12260293D02*
X12217682Y-12298388D01*
X12217682Y-12298388D02*
X12208158Y-12317436D01*
X12208158Y-12317436D02*
X12198634Y-12326960D01*
X12198634Y-12326960D02*
X12179586Y-12336484D01*
X12179586Y-12336484D02*
X12160539Y-12336484D01*
X12160539Y-12336484D02*
X12141491Y-12326960D01*
X12141491Y-12326960D02*
X12131967Y-12317436D01*
X12131967Y-12317436D02*
X12122443Y-12298388D01*
X12122443Y-12298388D02*
X12112920Y-12260293D01*
X12112920Y-12260293D02*
X12112920Y-12212674D01*
X12112920Y-12212674D02*
X12122443Y-12174579D01*
X12122443Y-12174579D02*
X12131967Y-12155531D01*
X12131967Y-12155531D02*
X12141491Y-12146008D01*
X12141491Y-12146008D02*
X12160539Y-12136484D01*
X12312920Y-12336484D02*
X12312920Y-12203150D01*
X12312920Y-12222198D02*
X12322443Y-12212674D01*
X12322443Y-12212674D02*
X12341491Y-12203150D01*
X12341491Y-12203150D02*
X12370063Y-12203150D01*
X12370063Y-12203150D02*
X12389110Y-12212674D01*
X12389110Y-12212674D02*
X12398634Y-12231722D01*
X12398634Y-12231722D02*
X12398634Y-12336484D01*
X12398634Y-12231722D02*
X12408158Y-12212674D01*
X12408158Y-12212674D02*
X12427205Y-12203150D01*
X12427205Y-12203150D02*
X12455777Y-12203150D01*
X12455777Y-12203150D02*
X12474824Y-12212674D01*
X12474824Y-12212674D02*
X12484348Y-12231722D01*
X12484348Y-12231722D02*
X12484348Y-12336484D01*
X12579586Y-12336484D02*
X12579586Y-12203150D01*
X12579586Y-12222198D02*
X12589110Y-12212674D01*
X12589110Y-12212674D02*
X12608158Y-12203150D01*
X12608158Y-12203150D02*
X12636729Y-12203150D01*
X12636729Y-12203150D02*
X12655777Y-12212674D01*
X12655777Y-12212674D02*
X12665301Y-12231722D01*
X12665301Y-12231722D02*
X12665301Y-12336484D01*
X12665301Y-12231722D02*
X12674824Y-12212674D01*
X12674824Y-12212674D02*
X12693872Y-12203150D01*
X12693872Y-12203150D02*
X12722443Y-12203150D01*
X12722443Y-12203150D02*
X12741491Y-12212674D01*
X12741491Y-12212674D02*
X12751015Y-12231722D01*
X12751015Y-12231722D02*
X12751015Y-12336484D01*
X13141491Y-12126960D02*
X12970063Y-12384103D01*
X13398634Y-12136484D02*
X13417682Y-12136484D01*
X13417682Y-12136484D02*
X13436729Y-12146008D01*
X13436729Y-12146008D02*
X13446253Y-12155531D01*
X13446253Y-12155531D02*
X13455777Y-12174579D01*
X13455777Y-12174579D02*
X13465301Y-12212674D01*
X13465301Y-12212674D02*
X13465301Y-12260293D01*
X13465301Y-12260293D02*
X13455777Y-12298388D01*
X13455777Y-12298388D02*
X13446253Y-12317436D01*
X13446253Y-12317436D02*
X13436729Y-12326960D01*
X13436729Y-12326960D02*
X13417682Y-12336484D01*
X13417682Y-12336484D02*
X13398634Y-12336484D01*
X13398634Y-12336484D02*
X13379586Y-12326960D01*
X13379586Y-12326960D02*
X13370063Y-12317436D01*
X13370063Y-12317436D02*
X13360539Y-12298388D01*
X13360539Y-12298388D02*
X13351015Y-12260293D01*
X13351015Y-12260293D02*
X13351015Y-12212674D01*
X13351015Y-12212674D02*
X13360539Y-12174579D01*
X13360539Y-12174579D02*
X13370063Y-12155531D01*
X13370063Y-12155531D02*
X13379586Y-12146008D01*
X13379586Y-12146008D02*
X13398634Y-12136484D01*
X13551015Y-12317436D02*
X13560539Y-12326960D01*
X13560539Y-12326960D02*
X13551015Y-12336484D01*
X13551015Y-12336484D02*
X13541491Y-12326960D01*
X13541491Y-12326960D02*
X13551015Y-12317436D01*
X13551015Y-12317436D02*
X13551015Y-12336484D01*
X13684348Y-12136484D02*
X13703396Y-12136484D01*
X13703396Y-12136484D02*
X13722444Y-12146008D01*
X13722444Y-12146008D02*
X13731967Y-12155531D01*
X13731967Y-12155531D02*
X13741491Y-12174579D01*
X13741491Y-12174579D02*
X13751015Y-12212674D01*
X13751015Y-12212674D02*
X13751015Y-12260293D01*
X13751015Y-12260293D02*
X13741491Y-12298388D01*
X13741491Y-12298388D02*
X13731967Y-12317436D01*
X13731967Y-12317436D02*
X13722444Y-12326960D01*
X13722444Y-12326960D02*
X13703396Y-12336484D01*
X13703396Y-12336484D02*
X13684348Y-12336484D01*
X13684348Y-12336484D02*
X13665301Y-12326960D01*
X13665301Y-12326960D02*
X13655777Y-12317436D01*
X13655777Y-12317436D02*
X13646253Y-12298388D01*
X13646253Y-12298388D02*
X13636729Y-12260293D01*
X13636729Y-12260293D02*
X13636729Y-12212674D01*
X13636729Y-12212674D02*
X13646253Y-12174579D01*
X13646253Y-12174579D02*
X13655777Y-12155531D01*
X13655777Y-12155531D02*
X13665301Y-12146008D01*
X13665301Y-12146008D02*
X13684348Y-12136484D01*
X13941491Y-12336484D02*
X13827206Y-12336484D01*
X13884348Y-12336484D02*
X13884348Y-12136484D01*
X13884348Y-12136484D02*
X13865301Y-12165055D01*
X13865301Y-12165055D02*
X13846253Y-12184103D01*
X13846253Y-12184103D02*
X13827206Y-12193627D01*
X14131967Y-12336484D02*
X14017682Y-12336484D01*
X14074825Y-12336484D02*
X14074825Y-12136484D01*
X14074825Y-12136484D02*
X14055777Y-12165055D01*
X14055777Y-12165055D02*
X14036729Y-12184103D01*
X14036729Y-12184103D02*
X14017682Y-12193627D01*
X14246253Y-12222198D02*
X14227206Y-12212674D01*
X14227206Y-12212674D02*
X14217682Y-12203150D01*
X14217682Y-12203150D02*
X14208158Y-12184103D01*
X14208158Y-12184103D02*
X14208158Y-12174579D01*
X14208158Y-12174579D02*
X14217682Y-12155531D01*
X14217682Y-12155531D02*
X14227206Y-12146008D01*
X14227206Y-12146008D02*
X14246253Y-12136484D01*
X14246253Y-12136484D02*
X14284348Y-12136484D01*
X14284348Y-12136484D02*
X14303396Y-12146008D01*
X14303396Y-12146008D02*
X14312920Y-12155531D01*
X14312920Y-12155531D02*
X14322444Y-12174579D01*
X14322444Y-12174579D02*
X14322444Y-12184103D01*
X14322444Y-12184103D02*
X14312920Y-12203150D01*
X14312920Y-12203150D02*
X14303396Y-12212674D01*
X14303396Y-12212674D02*
X14284348Y-12222198D01*
X14284348Y-12222198D02*
X14246253Y-12222198D01*
X14246253Y-12222198D02*
X14227206Y-12231722D01*
X14227206Y-12231722D02*
X14217682Y-12241246D01*
X14217682Y-12241246D02*
X14208158Y-12260293D01*
X14208158Y-12260293D02*
X14208158Y-12298388D01*
X14208158Y-12298388D02*
X14217682Y-12317436D01*
X14217682Y-12317436D02*
X14227206Y-12326960D01*
X14227206Y-12326960D02*
X14246253Y-12336484D01*
X14246253Y-12336484D02*
X14284348Y-12336484D01*
X14284348Y-12336484D02*
X14303396Y-12326960D01*
X14303396Y-12326960D02*
X14312920Y-12317436D01*
X14312920Y-12317436D02*
X14322444Y-12298388D01*
X14322444Y-12298388D02*
X14322444Y-12260293D01*
X14322444Y-12260293D02*
X14312920Y-12241246D01*
X14312920Y-12241246D02*
X14303396Y-12231722D01*
X14303396Y-12231722D02*
X14284348Y-12222198D01*
X14398634Y-12136484D02*
X14398634Y-12174579D01*
X14474825Y-12136484D02*
X14474825Y-12174579D01*
X14770063Y-12412674D02*
X14760539Y-12403150D01*
X14760539Y-12403150D02*
X14741491Y-12374579D01*
X14741491Y-12374579D02*
X14731968Y-12355531D01*
X14731968Y-12355531D02*
X14722444Y-12326960D01*
X14722444Y-12326960D02*
X14712920Y-12279341D01*
X14712920Y-12279341D02*
X14712920Y-12241246D01*
X14712920Y-12241246D02*
X14722444Y-12193627D01*
X14722444Y-12193627D02*
X14731968Y-12165055D01*
X14731968Y-12165055D02*
X14741491Y-12146008D01*
X14741491Y-12146008D02*
X14760539Y-12117436D01*
X14760539Y-12117436D02*
X14770063Y-12107912D01*
X14836729Y-12155531D02*
X14846253Y-12146008D01*
X14846253Y-12146008D02*
X14865301Y-12136484D01*
X14865301Y-12136484D02*
X14912920Y-12136484D01*
X14912920Y-12136484D02*
X14931968Y-12146008D01*
X14931968Y-12146008D02*
X14941491Y-12155531D01*
X14941491Y-12155531D02*
X14951015Y-12174579D01*
X14951015Y-12174579D02*
X14951015Y-12193627D01*
X14951015Y-12193627D02*
X14941491Y-12222198D01*
X14941491Y-12222198D02*
X14827206Y-12336484D01*
X14827206Y-12336484D02*
X14951015Y-12336484D01*
X15074825Y-12136484D02*
X15093872Y-12136484D01*
X15093872Y-12136484D02*
X15112920Y-12146008D01*
X15112920Y-12146008D02*
X15122444Y-12155531D01*
X15122444Y-12155531D02*
X15131968Y-12174579D01*
X15131968Y-12174579D02*
X15141491Y-12212674D01*
X15141491Y-12212674D02*
X15141491Y-12260293D01*
X15141491Y-12260293D02*
X15131968Y-12298388D01*
X15131968Y-12298388D02*
X15122444Y-12317436D01*
X15122444Y-12317436D02*
X15112920Y-12326960D01*
X15112920Y-12326960D02*
X15093872Y-12336484D01*
X15093872Y-12336484D02*
X15074825Y-12336484D01*
X15074825Y-12336484D02*
X15055777Y-12326960D01*
X15055777Y-12326960D02*
X15046253Y-12317436D01*
X15046253Y-12317436D02*
X15036729Y-12298388D01*
X15036729Y-12298388D02*
X15027206Y-12260293D01*
X15027206Y-12260293D02*
X15027206Y-12212674D01*
X15027206Y-12212674D02*
X15036729Y-12174579D01*
X15036729Y-12174579D02*
X15046253Y-12155531D01*
X15046253Y-12155531D02*
X15055777Y-12146008D01*
X15055777Y-12146008D02*
X15074825Y-12136484D01*
X15322444Y-12136484D02*
X15227206Y-12136484D01*
X15227206Y-12136484D02*
X15217682Y-12231722D01*
X15217682Y-12231722D02*
X15227206Y-12222198D01*
X15227206Y-12222198D02*
X15246253Y-12212674D01*
X15246253Y-12212674D02*
X15293872Y-12212674D01*
X15293872Y-12212674D02*
X15312920Y-12222198D01*
X15312920Y-12222198D02*
X15322444Y-12231722D01*
X15322444Y-12231722D02*
X15331968Y-12250769D01*
X15331968Y-12250769D02*
X15331968Y-12298388D01*
X15331968Y-12298388D02*
X15322444Y-12317436D01*
X15322444Y-12317436D02*
X15312920Y-12326960D01*
X15312920Y-12326960D02*
X15293872Y-12336484D01*
X15293872Y-12336484D02*
X15246253Y-12336484D01*
X15246253Y-12336484D02*
X15227206Y-12326960D01*
X15227206Y-12326960D02*
X15217682Y-12317436D01*
X15570063Y-12336484D02*
X15570063Y-12136484D01*
X15655777Y-12336484D02*
X15655777Y-12231722D01*
X15655777Y-12231722D02*
X15646253Y-12212674D01*
X15646253Y-12212674D02*
X15627206Y-12203150D01*
X15627206Y-12203150D02*
X15598634Y-12203150D01*
X15598634Y-12203150D02*
X15579587Y-12212674D01*
X15579587Y-12212674D02*
X15570063Y-12222198D01*
X15779587Y-12336484D02*
X15760539Y-12326960D01*
X15760539Y-12326960D02*
X15751015Y-12317436D01*
X15751015Y-12317436D02*
X15741491Y-12298388D01*
X15741491Y-12298388D02*
X15741491Y-12241246D01*
X15741491Y-12241246D02*
X15751015Y-12222198D01*
X15751015Y-12222198D02*
X15760539Y-12212674D01*
X15760539Y-12212674D02*
X15779587Y-12203150D01*
X15779587Y-12203150D02*
X15808158Y-12203150D01*
X15808158Y-12203150D02*
X15827206Y-12212674D01*
X15827206Y-12212674D02*
X15836730Y-12222198D01*
X15836730Y-12222198D02*
X15846253Y-12241246D01*
X15846253Y-12241246D02*
X15846253Y-12298388D01*
X15846253Y-12298388D02*
X15836730Y-12317436D01*
X15836730Y-12317436D02*
X15827206Y-12326960D01*
X15827206Y-12326960D02*
X15808158Y-12336484D01*
X15808158Y-12336484D02*
X15779587Y-12336484D01*
X15960539Y-12336484D02*
X15941491Y-12326960D01*
X15941491Y-12326960D02*
X15931968Y-12307912D01*
X15931968Y-12307912D02*
X15931968Y-12136484D01*
X16112920Y-12326960D02*
X16093872Y-12336484D01*
X16093872Y-12336484D02*
X16055777Y-12336484D01*
X16055777Y-12336484D02*
X16036730Y-12326960D01*
X16036730Y-12326960D02*
X16027206Y-12307912D01*
X16027206Y-12307912D02*
X16027206Y-12231722D01*
X16027206Y-12231722D02*
X16036730Y-12212674D01*
X16036730Y-12212674D02*
X16055777Y-12203150D01*
X16055777Y-12203150D02*
X16093872Y-12203150D01*
X16093872Y-12203150D02*
X16112920Y-12212674D01*
X16112920Y-12212674D02*
X16122444Y-12231722D01*
X16122444Y-12231722D02*
X16122444Y-12250769D01*
X16122444Y-12250769D02*
X16027206Y-12269817D01*
X16198634Y-12326960D02*
X16217682Y-12336484D01*
X16217682Y-12336484D02*
X16255777Y-12336484D01*
X16255777Y-12336484D02*
X16274825Y-12326960D01*
X16274825Y-12326960D02*
X16284349Y-12307912D01*
X16284349Y-12307912D02*
X16284349Y-12298388D01*
X16284349Y-12298388D02*
X16274825Y-12279341D01*
X16274825Y-12279341D02*
X16255777Y-12269817D01*
X16255777Y-12269817D02*
X16227206Y-12269817D01*
X16227206Y-12269817D02*
X16208158Y-12260293D01*
X16208158Y-12260293D02*
X16198634Y-12241246D01*
X16198634Y-12241246D02*
X16198634Y-12231722D01*
X16198634Y-12231722D02*
X16208158Y-12212674D01*
X16208158Y-12212674D02*
X16227206Y-12203150D01*
X16227206Y-12203150D02*
X16255777Y-12203150D01*
X16255777Y-12203150D02*
X16274825Y-12212674D01*
X16351015Y-12412674D02*
X16360539Y-12403150D01*
X16360539Y-12403150D02*
X16379587Y-12374579D01*
X16379587Y-12374579D02*
X16389111Y-12355531D01*
X16389111Y-12355531D02*
X16398634Y-12326960D01*
X16398634Y-12326960D02*
X16408158Y-12279341D01*
X16408158Y-12279341D02*
X16408158Y-12241246D01*
X16408158Y-12241246D02*
X16398634Y-12193627D01*
X16398634Y-12193627D02*
X16389111Y-12165055D01*
X16389111Y-12165055D02*
X16379587Y-12146008D01*
X16379587Y-12146008D02*
X16360539Y-12117436D01*
X16360539Y-12117436D02*
X16351015Y-12107912D01*
D10*
X11195000Y-12509000D02*
G75*
G02*
X11155000Y-12509000I-20000J0D01*
G01*
X11155000Y-12509000D02*
G75*
G02*
X11195000Y-12509000I20000J0D01*
G01*
D11*
X11493872Y-12400484D02*
X11512920Y-12400484D01*
X11512920Y-12400484D02*
X11531967Y-12410008D01*
X11531967Y-12410008D02*
X11541491Y-12419531D01*
X11541491Y-12419531D02*
X11551015Y-12438579D01*
X11551015Y-12438579D02*
X11560539Y-12476674D01*
X11560539Y-12476674D02*
X11560539Y-12524293D01*
X11560539Y-12524293D02*
X11551015Y-12562388D01*
X11551015Y-12562388D02*
X11541491Y-12581436D01*
X11541491Y-12581436D02*
X11531967Y-12590960D01*
X11531967Y-12590960D02*
X11512920Y-12600484D01*
X11512920Y-12600484D02*
X11493872Y-12600484D01*
X11493872Y-12600484D02*
X11474824Y-12590960D01*
X11474824Y-12590960D02*
X11465301Y-12581436D01*
X11465301Y-12581436D02*
X11455777Y-12562388D01*
X11455777Y-12562388D02*
X11446253Y-12524293D01*
X11446253Y-12524293D02*
X11446253Y-12476674D01*
X11446253Y-12476674D02*
X11455777Y-12438579D01*
X11455777Y-12438579D02*
X11465301Y-12419531D01*
X11465301Y-12419531D02*
X11474824Y-12410008D01*
X11474824Y-12410008D02*
X11493872Y-12400484D01*
X11646253Y-12581436D02*
X11655777Y-12590960D01*
X11655777Y-12590960D02*
X11646253Y-12600484D01*
X11646253Y-12600484D02*
X11636729Y-12590960D01*
X11636729Y-12590960D02*
X11646253Y-12581436D01*
X11646253Y-12581436D02*
X11646253Y-12600484D01*
X11827205Y-12467150D02*
X11827205Y-12600484D01*
X11779586Y-12390960D02*
X11731967Y-12533817D01*
X11731967Y-12533817D02*
X11855777Y-12533817D01*
X11970062Y-12400484D02*
X11989110Y-12400484D01*
X11989110Y-12400484D02*
X12008158Y-12410008D01*
X12008158Y-12410008D02*
X12017682Y-12419531D01*
X12017682Y-12419531D02*
X12027205Y-12438579D01*
X12027205Y-12438579D02*
X12036729Y-12476674D01*
X12036729Y-12476674D02*
X12036729Y-12524293D01*
X12036729Y-12524293D02*
X12027205Y-12562388D01*
X12027205Y-12562388D02*
X12017682Y-12581436D01*
X12017682Y-12581436D02*
X12008158Y-12590960D01*
X12008158Y-12590960D02*
X11989110Y-12600484D01*
X11989110Y-12600484D02*
X11970062Y-12600484D01*
X11970062Y-12600484D02*
X11951015Y-12590960D01*
X11951015Y-12590960D02*
X11941491Y-12581436D01*
X11941491Y-12581436D02*
X11931967Y-12562388D01*
X11931967Y-12562388D02*
X11922443Y-12524293D01*
X11922443Y-12524293D02*
X11922443Y-12476674D01*
X11922443Y-12476674D02*
X11931967Y-12438579D01*
X11931967Y-12438579D02*
X11941491Y-12419531D01*
X11941491Y-12419531D02*
X11951015Y-12410008D01*
X11951015Y-12410008D02*
X11970062Y-12400484D01*
X12160539Y-12400484D02*
X12179586Y-12400484D01*
X12179586Y-12400484D02*
X12198634Y-12410008D01*
X12198634Y-12410008D02*
X12208158Y-12419531D01*
X12208158Y-12419531D02*
X12217682Y-12438579D01*
X12217682Y-12438579D02*
X12227205Y-12476674D01*
X12227205Y-12476674D02*
X12227205Y-12524293D01*
X12227205Y-12524293D02*
X12217682Y-12562388D01*
X12217682Y-12562388D02*
X12208158Y-12581436D01*
X12208158Y-12581436D02*
X12198634Y-12590960D01*
X12198634Y-12590960D02*
X12179586Y-12600484D01*
X12179586Y-12600484D02*
X12160539Y-12600484D01*
X12160539Y-12600484D02*
X12141491Y-12590960D01*
X12141491Y-12590960D02*
X12131967Y-12581436D01*
X12131967Y-12581436D02*
X12122443Y-12562388D01*
X12122443Y-12562388D02*
X12112920Y-12524293D01*
X12112920Y-12524293D02*
X12112920Y-12476674D01*
X12112920Y-12476674D02*
X12122443Y-12438579D01*
X12122443Y-12438579D02*
X12131967Y-12419531D01*
X12131967Y-12419531D02*
X12141491Y-12410008D01*
X12141491Y-12410008D02*
X12160539Y-12400484D01*
X12312920Y-12600484D02*
X12312920Y-12467150D01*
X12312920Y-12486198D02*
X12322443Y-12476674D01*
X12322443Y-12476674D02*
X12341491Y-12467150D01*
X12341491Y-12467150D02*
X12370063Y-12467150D01*
X12370063Y-12467150D02*
X12389110Y-12476674D01*
X12389110Y-12476674D02*
X12398634Y-12495722D01*
X12398634Y-12495722D02*
X12398634Y-12600484D01*
X12398634Y-12495722D02*
X12408158Y-12476674D01*
X12408158Y-12476674D02*
X12427205Y-12467150D01*
X12427205Y-12467150D02*
X12455777Y-12467150D01*
X12455777Y-12467150D02*
X12474824Y-12476674D01*
X12474824Y-12476674D02*
X12484348Y-12495722D01*
X12484348Y-12495722D02*
X12484348Y-12600484D01*
X12579586Y-12600484D02*
X12579586Y-12467150D01*
X12579586Y-12486198D02*
X12589110Y-12476674D01*
X12589110Y-12476674D02*
X12608158Y-12467150D01*
X12608158Y-12467150D02*
X12636729Y-12467150D01*
X12636729Y-12467150D02*
X12655777Y-12476674D01*
X12655777Y-12476674D02*
X12665301Y-12495722D01*
X12665301Y-12495722D02*
X12665301Y-12600484D01*
X12665301Y-12495722D02*
X12674824Y-12476674D01*
X12674824Y-12476674D02*
X12693872Y-12467150D01*
X12693872Y-12467150D02*
X12722443Y-12467150D01*
X12722443Y-12467150D02*
X12741491Y-12476674D01*
X12741491Y-12476674D02*
X12751015Y-12495722D01*
X12751015Y-12495722D02*
X12751015Y-12600484D01*
X13141491Y-12390960D02*
X12970063Y-12648103D01*
X13398634Y-12400484D02*
X13417682Y-12400484D01*
X13417682Y-12400484D02*
X13436729Y-12410008D01*
X13436729Y-12410008D02*
X13446253Y-12419531D01*
X13446253Y-12419531D02*
X13455777Y-12438579D01*
X13455777Y-12438579D02*
X13465301Y-12476674D01*
X13465301Y-12476674D02*
X13465301Y-12524293D01*
X13465301Y-12524293D02*
X13455777Y-12562388D01*
X13455777Y-12562388D02*
X13446253Y-12581436D01*
X13446253Y-12581436D02*
X13436729Y-12590960D01*
X13436729Y-12590960D02*
X13417682Y-12600484D01*
X13417682Y-12600484D02*
X13398634Y-12600484D01*
X13398634Y-12600484D02*
X13379586Y-12590960D01*
X13379586Y-12590960D02*
X13370063Y-12581436D01*
X13370063Y-12581436D02*
X13360539Y-12562388D01*
X13360539Y-12562388D02*
X13351015Y-12524293D01*
X13351015Y-12524293D02*
X13351015Y-12476674D01*
X13351015Y-12476674D02*
X13360539Y-12438579D01*
X13360539Y-12438579D02*
X13370063Y-12419531D01*
X13370063Y-12419531D02*
X13379586Y-12410008D01*
X13379586Y-12410008D02*
X13398634Y-12400484D01*
X13551015Y-12581436D02*
X13560539Y-12590960D01*
X13560539Y-12590960D02*
X13551015Y-12600484D01*
X13551015Y-12600484D02*
X13541491Y-12590960D01*
X13541491Y-12590960D02*
X13551015Y-12581436D01*
X13551015Y-12581436D02*
X13551015Y-12600484D01*
X13684348Y-12400484D02*
X13703396Y-12400484D01*
X13703396Y-12400484D02*
X13722444Y-12410008D01*
X13722444Y-12410008D02*
X13731967Y-12419531D01*
X13731967Y-12419531D02*
X13741491Y-12438579D01*
X13741491Y-12438579D02*
X13751015Y-12476674D01*
X13751015Y-12476674D02*
X13751015Y-12524293D01*
X13751015Y-12524293D02*
X13741491Y-12562388D01*
X13741491Y-12562388D02*
X13731967Y-12581436D01*
X13731967Y-12581436D02*
X13722444Y-12590960D01*
X13722444Y-12590960D02*
X13703396Y-12600484D01*
X13703396Y-12600484D02*
X13684348Y-12600484D01*
X13684348Y-12600484D02*
X13665301Y-12590960D01*
X13665301Y-12590960D02*
X13655777Y-12581436D01*
X13655777Y-12581436D02*
X13646253Y-12562388D01*
X13646253Y-12562388D02*
X13636729Y-12524293D01*
X13636729Y-12524293D02*
X13636729Y-12476674D01*
X13636729Y-12476674D02*
X13646253Y-12438579D01*
X13646253Y-12438579D02*
X13655777Y-12419531D01*
X13655777Y-12419531D02*
X13665301Y-12410008D01*
X13665301Y-12410008D02*
X13684348Y-12400484D01*
X13941491Y-12600484D02*
X13827206Y-12600484D01*
X13884348Y-12600484D02*
X13884348Y-12400484D01*
X13884348Y-12400484D02*
X13865301Y-12429055D01*
X13865301Y-12429055D02*
X13846253Y-12448103D01*
X13846253Y-12448103D02*
X13827206Y-12457627D01*
X14122444Y-12400484D02*
X14027206Y-12400484D01*
X14027206Y-12400484D02*
X14017682Y-12495722D01*
X14017682Y-12495722D02*
X14027206Y-12486198D01*
X14027206Y-12486198D02*
X14046253Y-12476674D01*
X14046253Y-12476674D02*
X14093872Y-12476674D01*
X14093872Y-12476674D02*
X14112920Y-12486198D01*
X14112920Y-12486198D02*
X14122444Y-12495722D01*
X14122444Y-12495722D02*
X14131967Y-12514769D01*
X14131967Y-12514769D02*
X14131967Y-12562388D01*
X14131967Y-12562388D02*
X14122444Y-12581436D01*
X14122444Y-12581436D02*
X14112920Y-12590960D01*
X14112920Y-12590960D02*
X14093872Y-12600484D01*
X14093872Y-12600484D02*
X14046253Y-12600484D01*
X14046253Y-12600484D02*
X14027206Y-12590960D01*
X14027206Y-12590960D02*
X14017682Y-12581436D01*
X14198634Y-12400484D02*
X14331967Y-12400484D01*
X14331967Y-12400484D02*
X14246253Y-12600484D01*
X14398634Y-12400484D02*
X14398634Y-12438579D01*
X14474825Y-12400484D02*
X14474825Y-12438579D01*
X14770063Y-12676674D02*
X14760539Y-12667150D01*
X14760539Y-12667150D02*
X14741491Y-12638579D01*
X14741491Y-12638579D02*
X14731968Y-12619531D01*
X14731968Y-12619531D02*
X14722444Y-12590960D01*
X14722444Y-12590960D02*
X14712920Y-12543341D01*
X14712920Y-12543341D02*
X14712920Y-12505246D01*
X14712920Y-12505246D02*
X14722444Y-12457627D01*
X14722444Y-12457627D02*
X14731968Y-12429055D01*
X14731968Y-12429055D02*
X14741491Y-12410008D01*
X14741491Y-12410008D02*
X14760539Y-12381436D01*
X14760539Y-12381436D02*
X14770063Y-12371912D01*
X14951015Y-12600484D02*
X14836729Y-12600484D01*
X14893872Y-12600484D02*
X14893872Y-12400484D01*
X14893872Y-12400484D02*
X14874825Y-12429055D01*
X14874825Y-12429055D02*
X14855777Y-12448103D01*
X14855777Y-12448103D02*
X14836729Y-12457627D01*
X15189110Y-12600484D02*
X15189110Y-12400484D01*
X15274825Y-12600484D02*
X15274825Y-12495722D01*
X15274825Y-12495722D02*
X15265301Y-12476674D01*
X15265301Y-12476674D02*
X15246253Y-12467150D01*
X15246253Y-12467150D02*
X15217682Y-12467150D01*
X15217682Y-12467150D02*
X15198634Y-12476674D01*
X15198634Y-12476674D02*
X15189110Y-12486198D01*
X15398634Y-12600484D02*
X15379587Y-12590960D01*
X15379587Y-12590960D02*
X15370063Y-12581436D01*
X15370063Y-12581436D02*
X15360539Y-12562388D01*
X15360539Y-12562388D02*
X15360539Y-12505246D01*
X15360539Y-12505246D02*
X15370063Y-12486198D01*
X15370063Y-12486198D02*
X15379587Y-12476674D01*
X15379587Y-12476674D02*
X15398634Y-12467150D01*
X15398634Y-12467150D02*
X15427206Y-12467150D01*
X15427206Y-12467150D02*
X15446253Y-12476674D01*
X15446253Y-12476674D02*
X15455777Y-12486198D01*
X15455777Y-12486198D02*
X15465301Y-12505246D01*
X15465301Y-12505246D02*
X15465301Y-12562388D01*
X15465301Y-12562388D02*
X15455777Y-12581436D01*
X15455777Y-12581436D02*
X15446253Y-12590960D01*
X15446253Y-12590960D02*
X15427206Y-12600484D01*
X15427206Y-12600484D02*
X15398634Y-12600484D01*
X15579587Y-12600484D02*
X15560539Y-12590960D01*
X15560539Y-12590960D02*
X15551015Y-12571912D01*
X15551015Y-12571912D02*
X15551015Y-12400484D01*
X15731968Y-12590960D02*
X15712920Y-12600484D01*
X15712920Y-12600484D02*
X15674825Y-12600484D01*
X15674825Y-12600484D02*
X15655777Y-12590960D01*
X15655777Y-12590960D02*
X15646253Y-12571912D01*
X15646253Y-12571912D02*
X15646253Y-12495722D01*
X15646253Y-12495722D02*
X15655777Y-12476674D01*
X15655777Y-12476674D02*
X15674825Y-12467150D01*
X15674825Y-12467150D02*
X15712920Y-12467150D01*
X15712920Y-12467150D02*
X15731968Y-12476674D01*
X15731968Y-12476674D02*
X15741491Y-12495722D01*
X15741491Y-12495722D02*
X15741491Y-12514769D01*
X15741491Y-12514769D02*
X15646253Y-12533817D01*
X15808158Y-12676674D02*
X15817682Y-12667150D01*
X15817682Y-12667150D02*
X15836730Y-12638579D01*
X15836730Y-12638579D02*
X15846253Y-12619531D01*
X15846253Y-12619531D02*
X15855777Y-12590960D01*
X15855777Y-12590960D02*
X15865301Y-12543341D01*
X15865301Y-12543341D02*
X15865301Y-12505246D01*
X15865301Y-12505246D02*
X15855777Y-12457627D01*
X15855777Y-12457627D02*
X15846253Y-12429055D01*
X15846253Y-12429055D02*
X15836730Y-12410008D01*
X15836730Y-12410008D02*
X15817682Y-12381436D01*
X15817682Y-12381436D02*
X15808158Y-12371912D01*
D10*
X11165000Y-12743000D02*
X11165000Y-12803000D01*
X11135000Y-12773000D02*
X11195000Y-12773000D01*
D11*
X11493872Y-12664484D02*
X11512920Y-12664484D01*
X11512920Y-12664484D02*
X11531967Y-12674008D01*
X11531967Y-12674008D02*
X11541491Y-12683531D01*
X11541491Y-12683531D02*
X11551015Y-12702579D01*
X11551015Y-12702579D02*
X11560539Y-12740674D01*
X11560539Y-12740674D02*
X11560539Y-12788293D01*
X11560539Y-12788293D02*
X11551015Y-12826388D01*
X11551015Y-12826388D02*
X11541491Y-12845436D01*
X11541491Y-12845436D02*
X11531967Y-12854960D01*
X11531967Y-12854960D02*
X11512920Y-12864484D01*
X11512920Y-12864484D02*
X11493872Y-12864484D01*
X11493872Y-12864484D02*
X11474824Y-12854960D01*
X11474824Y-12854960D02*
X11465301Y-12845436D01*
X11465301Y-12845436D02*
X11455777Y-12826388D01*
X11455777Y-12826388D02*
X11446253Y-12788293D01*
X11446253Y-12788293D02*
X11446253Y-12740674D01*
X11446253Y-12740674D02*
X11455777Y-12702579D01*
X11455777Y-12702579D02*
X11465301Y-12683531D01*
X11465301Y-12683531D02*
X11474824Y-12674008D01*
X11474824Y-12674008D02*
X11493872Y-12664484D01*
X11646253Y-12845436D02*
X11655777Y-12854960D01*
X11655777Y-12854960D02*
X11646253Y-12864484D01*
X11646253Y-12864484D02*
X11636729Y-12854960D01*
X11636729Y-12854960D02*
X11646253Y-12845436D01*
X11646253Y-12845436D02*
X11646253Y-12864484D01*
X11827205Y-12664484D02*
X11789110Y-12664484D01*
X11789110Y-12664484D02*
X11770062Y-12674008D01*
X11770062Y-12674008D02*
X11760539Y-12683531D01*
X11760539Y-12683531D02*
X11741491Y-12712103D01*
X11741491Y-12712103D02*
X11731967Y-12750198D01*
X11731967Y-12750198D02*
X11731967Y-12826388D01*
X11731967Y-12826388D02*
X11741491Y-12845436D01*
X11741491Y-12845436D02*
X11751015Y-12854960D01*
X11751015Y-12854960D02*
X11770062Y-12864484D01*
X11770062Y-12864484D02*
X11808158Y-12864484D01*
X11808158Y-12864484D02*
X11827205Y-12854960D01*
X11827205Y-12854960D02*
X11836729Y-12845436D01*
X11836729Y-12845436D02*
X11846253Y-12826388D01*
X11846253Y-12826388D02*
X11846253Y-12778769D01*
X11846253Y-12778769D02*
X11836729Y-12759722D01*
X11836729Y-12759722D02*
X11827205Y-12750198D01*
X11827205Y-12750198D02*
X11808158Y-12740674D01*
X11808158Y-12740674D02*
X11770062Y-12740674D01*
X11770062Y-12740674D02*
X11751015Y-12750198D01*
X11751015Y-12750198D02*
X11741491Y-12759722D01*
X11741491Y-12759722D02*
X11731967Y-12778769D01*
X11970062Y-12664484D02*
X11989110Y-12664484D01*
X11989110Y-12664484D02*
X12008158Y-12674008D01*
X12008158Y-12674008D02*
X12017682Y-12683531D01*
X12017682Y-12683531D02*
X12027205Y-12702579D01*
X12027205Y-12702579D02*
X12036729Y-12740674D01*
X12036729Y-12740674D02*
X12036729Y-12788293D01*
X12036729Y-12788293D02*
X12027205Y-12826388D01*
X12027205Y-12826388D02*
X12017682Y-12845436D01*
X12017682Y-12845436D02*
X12008158Y-12854960D01*
X12008158Y-12854960D02*
X11989110Y-12864484D01*
X11989110Y-12864484D02*
X11970062Y-12864484D01*
X11970062Y-12864484D02*
X11951015Y-12854960D01*
X11951015Y-12854960D02*
X11941491Y-12845436D01*
X11941491Y-12845436D02*
X11931967Y-12826388D01*
X11931967Y-12826388D02*
X11922443Y-12788293D01*
X11922443Y-12788293D02*
X11922443Y-12740674D01*
X11922443Y-12740674D02*
X11931967Y-12702579D01*
X11931967Y-12702579D02*
X11941491Y-12683531D01*
X11941491Y-12683531D02*
X11951015Y-12674008D01*
X11951015Y-12674008D02*
X11970062Y-12664484D01*
X12160539Y-12664484D02*
X12179586Y-12664484D01*
X12179586Y-12664484D02*
X12198634Y-12674008D01*
X12198634Y-12674008D02*
X12208158Y-12683531D01*
X12208158Y-12683531D02*
X12217682Y-12702579D01*
X12217682Y-12702579D02*
X12227205Y-12740674D01*
X12227205Y-12740674D02*
X12227205Y-12788293D01*
X12227205Y-12788293D02*
X12217682Y-12826388D01*
X12217682Y-12826388D02*
X12208158Y-12845436D01*
X12208158Y-12845436D02*
X12198634Y-12854960D01*
X12198634Y-12854960D02*
X12179586Y-12864484D01*
X12179586Y-12864484D02*
X12160539Y-12864484D01*
X12160539Y-12864484D02*
X12141491Y-12854960D01*
X12141491Y-12854960D02*
X12131967Y-12845436D01*
X12131967Y-12845436D02*
X12122443Y-12826388D01*
X12122443Y-12826388D02*
X12112920Y-12788293D01*
X12112920Y-12788293D02*
X12112920Y-12740674D01*
X12112920Y-12740674D02*
X12122443Y-12702579D01*
X12122443Y-12702579D02*
X12131967Y-12683531D01*
X12131967Y-12683531D02*
X12141491Y-12674008D01*
X12141491Y-12674008D02*
X12160539Y-12664484D01*
X12312920Y-12864484D02*
X12312920Y-12731150D01*
X12312920Y-12750198D02*
X12322443Y-12740674D01*
X12322443Y-12740674D02*
X12341491Y-12731150D01*
X12341491Y-12731150D02*
X12370063Y-12731150D01*
X12370063Y-12731150D02*
X12389110Y-12740674D01*
X12389110Y-12740674D02*
X12398634Y-12759722D01*
X12398634Y-12759722D02*
X12398634Y-12864484D01*
X12398634Y-12759722D02*
X12408158Y-12740674D01*
X12408158Y-12740674D02*
X12427205Y-12731150D01*
X12427205Y-12731150D02*
X12455777Y-12731150D01*
X12455777Y-12731150D02*
X12474824Y-12740674D01*
X12474824Y-12740674D02*
X12484348Y-12759722D01*
X12484348Y-12759722D02*
X12484348Y-12864484D01*
X12579586Y-12864484D02*
X12579586Y-12731150D01*
X12579586Y-12750198D02*
X12589110Y-12740674D01*
X12589110Y-12740674D02*
X12608158Y-12731150D01*
X12608158Y-12731150D02*
X12636729Y-12731150D01*
X12636729Y-12731150D02*
X12655777Y-12740674D01*
X12655777Y-12740674D02*
X12665301Y-12759722D01*
X12665301Y-12759722D02*
X12665301Y-12864484D01*
X12665301Y-12759722D02*
X12674824Y-12740674D01*
X12674824Y-12740674D02*
X12693872Y-12731150D01*
X12693872Y-12731150D02*
X12722443Y-12731150D01*
X12722443Y-12731150D02*
X12741491Y-12740674D01*
X12741491Y-12740674D02*
X12751015Y-12759722D01*
X12751015Y-12759722D02*
X12751015Y-12864484D01*
X13141491Y-12654960D02*
X12970063Y-12912103D01*
X13398634Y-12664484D02*
X13417682Y-12664484D01*
X13417682Y-12664484D02*
X13436729Y-12674008D01*
X13436729Y-12674008D02*
X13446253Y-12683531D01*
X13446253Y-12683531D02*
X13455777Y-12702579D01*
X13455777Y-12702579D02*
X13465301Y-12740674D01*
X13465301Y-12740674D02*
X13465301Y-12788293D01*
X13465301Y-12788293D02*
X13455777Y-12826388D01*
X13455777Y-12826388D02*
X13446253Y-12845436D01*
X13446253Y-12845436D02*
X13436729Y-12854960D01*
X13436729Y-12854960D02*
X13417682Y-12864484D01*
X13417682Y-12864484D02*
X13398634Y-12864484D01*
X13398634Y-12864484D02*
X13379586Y-12854960D01*
X13379586Y-12854960D02*
X13370063Y-12845436D01*
X13370063Y-12845436D02*
X13360539Y-12826388D01*
X13360539Y-12826388D02*
X13351015Y-12788293D01*
X13351015Y-12788293D02*
X13351015Y-12740674D01*
X13351015Y-12740674D02*
X13360539Y-12702579D01*
X13360539Y-12702579D02*
X13370063Y-12683531D01*
X13370063Y-12683531D02*
X13379586Y-12674008D01*
X13379586Y-12674008D02*
X13398634Y-12664484D01*
X13551015Y-12845436D02*
X13560539Y-12854960D01*
X13560539Y-12854960D02*
X13551015Y-12864484D01*
X13551015Y-12864484D02*
X13541491Y-12854960D01*
X13541491Y-12854960D02*
X13551015Y-12845436D01*
X13551015Y-12845436D02*
X13551015Y-12864484D01*
X13684348Y-12664484D02*
X13703396Y-12664484D01*
X13703396Y-12664484D02*
X13722444Y-12674008D01*
X13722444Y-12674008D02*
X13731967Y-12683531D01*
X13731967Y-12683531D02*
X13741491Y-12702579D01*
X13741491Y-12702579D02*
X13751015Y-12740674D01*
X13751015Y-12740674D02*
X13751015Y-12788293D01*
X13751015Y-12788293D02*
X13741491Y-12826388D01*
X13741491Y-12826388D02*
X13731967Y-12845436D01*
X13731967Y-12845436D02*
X13722444Y-12854960D01*
X13722444Y-12854960D02*
X13703396Y-12864484D01*
X13703396Y-12864484D02*
X13684348Y-12864484D01*
X13684348Y-12864484D02*
X13665301Y-12854960D01*
X13665301Y-12854960D02*
X13655777Y-12845436D01*
X13655777Y-12845436D02*
X13646253Y-12826388D01*
X13646253Y-12826388D02*
X13636729Y-12788293D01*
X13636729Y-12788293D02*
X13636729Y-12740674D01*
X13636729Y-12740674D02*
X13646253Y-12702579D01*
X13646253Y-12702579D02*
X13655777Y-12683531D01*
X13655777Y-12683531D02*
X13665301Y-12674008D01*
X13665301Y-12674008D02*
X13684348Y-12664484D01*
X13827206Y-12683531D02*
X13836729Y-12674008D01*
X13836729Y-12674008D02*
X13855777Y-12664484D01*
X13855777Y-12664484D02*
X13903396Y-12664484D01*
X13903396Y-12664484D02*
X13922444Y-12674008D01*
X13922444Y-12674008D02*
X13931967Y-12683531D01*
X13931967Y-12683531D02*
X13941491Y-12702579D01*
X13941491Y-12702579D02*
X13941491Y-12721627D01*
X13941491Y-12721627D02*
X13931967Y-12750198D01*
X13931967Y-12750198D02*
X13817682Y-12864484D01*
X13817682Y-12864484D02*
X13941491Y-12864484D01*
X14008158Y-12664484D02*
X14131967Y-12664484D01*
X14131967Y-12664484D02*
X14065301Y-12740674D01*
X14065301Y-12740674D02*
X14093872Y-12740674D01*
X14093872Y-12740674D02*
X14112920Y-12750198D01*
X14112920Y-12750198D02*
X14122444Y-12759722D01*
X14122444Y-12759722D02*
X14131967Y-12778769D01*
X14131967Y-12778769D02*
X14131967Y-12826388D01*
X14131967Y-12826388D02*
X14122444Y-12845436D01*
X14122444Y-12845436D02*
X14112920Y-12854960D01*
X14112920Y-12854960D02*
X14093872Y-12864484D01*
X14093872Y-12864484D02*
X14036729Y-12864484D01*
X14036729Y-12864484D02*
X14017682Y-12854960D01*
X14017682Y-12854960D02*
X14008158Y-12845436D01*
X14303396Y-12664484D02*
X14265301Y-12664484D01*
X14265301Y-12664484D02*
X14246253Y-12674008D01*
X14246253Y-12674008D02*
X14236729Y-12683531D01*
X14236729Y-12683531D02*
X14217682Y-12712103D01*
X14217682Y-12712103D02*
X14208158Y-12750198D01*
X14208158Y-12750198D02*
X14208158Y-12826388D01*
X14208158Y-12826388D02*
X14217682Y-12845436D01*
X14217682Y-12845436D02*
X14227206Y-12854960D01*
X14227206Y-12854960D02*
X14246253Y-12864484D01*
X14246253Y-12864484D02*
X14284348Y-12864484D01*
X14284348Y-12864484D02*
X14303396Y-12854960D01*
X14303396Y-12854960D02*
X14312920Y-12845436D01*
X14312920Y-12845436D02*
X14322444Y-12826388D01*
X14322444Y-12826388D02*
X14322444Y-12778769D01*
X14322444Y-12778769D02*
X14312920Y-12759722D01*
X14312920Y-12759722D02*
X14303396Y-12750198D01*
X14303396Y-12750198D02*
X14284348Y-12740674D01*
X14284348Y-12740674D02*
X14246253Y-12740674D01*
X14246253Y-12740674D02*
X14227206Y-12750198D01*
X14227206Y-12750198D02*
X14217682Y-12759722D01*
X14217682Y-12759722D02*
X14208158Y-12778769D01*
X14398634Y-12664484D02*
X14398634Y-12702579D01*
X14474825Y-12664484D02*
X14474825Y-12702579D01*
X14770063Y-12940674D02*
X14760539Y-12931150D01*
X14760539Y-12931150D02*
X14741491Y-12902579D01*
X14741491Y-12902579D02*
X14731968Y-12883531D01*
X14731968Y-12883531D02*
X14722444Y-12854960D01*
X14722444Y-12854960D02*
X14712920Y-12807341D01*
X14712920Y-12807341D02*
X14712920Y-12769246D01*
X14712920Y-12769246D02*
X14722444Y-12721627D01*
X14722444Y-12721627D02*
X14731968Y-12693055D01*
X14731968Y-12693055D02*
X14741491Y-12674008D01*
X14741491Y-12674008D02*
X14760539Y-12645436D01*
X14760539Y-12645436D02*
X14770063Y-12635912D01*
X14884348Y-12664484D02*
X14903396Y-12664484D01*
X14903396Y-12664484D02*
X14922444Y-12674008D01*
X14922444Y-12674008D02*
X14931968Y-12683531D01*
X14931968Y-12683531D02*
X14941491Y-12702579D01*
X14941491Y-12702579D02*
X14951015Y-12740674D01*
X14951015Y-12740674D02*
X14951015Y-12788293D01*
X14951015Y-12788293D02*
X14941491Y-12826388D01*
X14941491Y-12826388D02*
X14931968Y-12845436D01*
X14931968Y-12845436D02*
X14922444Y-12854960D01*
X14922444Y-12854960D02*
X14903396Y-12864484D01*
X14903396Y-12864484D02*
X14884348Y-12864484D01*
X14884348Y-12864484D02*
X14865301Y-12854960D01*
X14865301Y-12854960D02*
X14855777Y-12845436D01*
X14855777Y-12845436D02*
X14846253Y-12826388D01*
X14846253Y-12826388D02*
X14836729Y-12788293D01*
X14836729Y-12788293D02*
X14836729Y-12740674D01*
X14836729Y-12740674D02*
X14846253Y-12702579D01*
X14846253Y-12702579D02*
X14855777Y-12683531D01*
X14855777Y-12683531D02*
X14865301Y-12674008D01*
X14865301Y-12674008D02*
X14884348Y-12664484D01*
X15189110Y-12864484D02*
X15189110Y-12664484D01*
X15274825Y-12864484D02*
X15274825Y-12759722D01*
X15274825Y-12759722D02*
X15265301Y-12740674D01*
X15265301Y-12740674D02*
X15246253Y-12731150D01*
X15246253Y-12731150D02*
X15217682Y-12731150D01*
X15217682Y-12731150D02*
X15198634Y-12740674D01*
X15198634Y-12740674D02*
X15189110Y-12750198D01*
X15398634Y-12864484D02*
X15379587Y-12854960D01*
X15379587Y-12854960D02*
X15370063Y-12845436D01*
X15370063Y-12845436D02*
X15360539Y-12826388D01*
X15360539Y-12826388D02*
X15360539Y-12769246D01*
X15360539Y-12769246D02*
X15370063Y-12750198D01*
X15370063Y-12750198D02*
X15379587Y-12740674D01*
X15379587Y-12740674D02*
X15398634Y-12731150D01*
X15398634Y-12731150D02*
X15427206Y-12731150D01*
X15427206Y-12731150D02*
X15446253Y-12740674D01*
X15446253Y-12740674D02*
X15455777Y-12750198D01*
X15455777Y-12750198D02*
X15465301Y-12769246D01*
X15465301Y-12769246D02*
X15465301Y-12826388D01*
X15465301Y-12826388D02*
X15455777Y-12845436D01*
X15455777Y-12845436D02*
X15446253Y-12854960D01*
X15446253Y-12854960D02*
X15427206Y-12864484D01*
X15427206Y-12864484D02*
X15398634Y-12864484D01*
X15579587Y-12864484D02*
X15560539Y-12854960D01*
X15560539Y-12854960D02*
X15551015Y-12835912D01*
X15551015Y-12835912D02*
X15551015Y-12664484D01*
X15731968Y-12854960D02*
X15712920Y-12864484D01*
X15712920Y-12864484D02*
X15674825Y-12864484D01*
X15674825Y-12864484D02*
X15655777Y-12854960D01*
X15655777Y-12854960D02*
X15646253Y-12835912D01*
X15646253Y-12835912D02*
X15646253Y-12759722D01*
X15646253Y-12759722D02*
X15655777Y-12740674D01*
X15655777Y-12740674D02*
X15674825Y-12731150D01*
X15674825Y-12731150D02*
X15712920Y-12731150D01*
X15712920Y-12731150D02*
X15731968Y-12740674D01*
X15731968Y-12740674D02*
X15741491Y-12759722D01*
X15741491Y-12759722D02*
X15741491Y-12778769D01*
X15741491Y-12778769D02*
X15646253Y-12797817D01*
X15817682Y-12854960D02*
X15836730Y-12864484D01*
X15836730Y-12864484D02*
X15874825Y-12864484D01*
X15874825Y-12864484D02*
X15893872Y-12854960D01*
X15893872Y-12854960D02*
X15903396Y-12835912D01*
X15903396Y-12835912D02*
X15903396Y-12826388D01*
X15903396Y-12826388D02*
X15893872Y-12807341D01*
X15893872Y-12807341D02*
X15874825Y-12797817D01*
X15874825Y-12797817D02*
X15846253Y-12797817D01*
X15846253Y-12797817D02*
X15827206Y-12788293D01*
X15827206Y-12788293D02*
X15817682Y-12769246D01*
X15817682Y-12769246D02*
X15817682Y-12759722D01*
X15817682Y-12759722D02*
X15827206Y-12740674D01*
X15827206Y-12740674D02*
X15846253Y-12731150D01*
X15846253Y-12731150D02*
X15874825Y-12731150D01*
X15874825Y-12731150D02*
X15893872Y-12740674D01*
X16141492Y-12788293D02*
X16293873Y-12788293D01*
X16217682Y-12864484D02*
X16217682Y-12712103D01*
X16570063Y-12750198D02*
X16551015Y-12740674D01*
X16551015Y-12740674D02*
X16541492Y-12731150D01*
X16541492Y-12731150D02*
X16531968Y-12712103D01*
X16531968Y-12712103D02*
X16531968Y-12702579D01*
X16531968Y-12702579D02*
X16541492Y-12683531D01*
X16541492Y-12683531D02*
X16551015Y-12674008D01*
X16551015Y-12674008D02*
X16570063Y-12664484D01*
X16570063Y-12664484D02*
X16608158Y-12664484D01*
X16608158Y-12664484D02*
X16627206Y-12674008D01*
X16627206Y-12674008D02*
X16636730Y-12683531D01*
X16636730Y-12683531D02*
X16646253Y-12702579D01*
X16646253Y-12702579D02*
X16646253Y-12712103D01*
X16646253Y-12712103D02*
X16636730Y-12731150D01*
X16636730Y-12731150D02*
X16627206Y-12740674D01*
X16627206Y-12740674D02*
X16608158Y-12750198D01*
X16608158Y-12750198D02*
X16570063Y-12750198D01*
X16570063Y-12750198D02*
X16551015Y-12759722D01*
X16551015Y-12759722D02*
X16541492Y-12769246D01*
X16541492Y-12769246D02*
X16531968Y-12788293D01*
X16531968Y-12788293D02*
X16531968Y-12826388D01*
X16531968Y-12826388D02*
X16541492Y-12845436D01*
X16541492Y-12845436D02*
X16551015Y-12854960D01*
X16551015Y-12854960D02*
X16570063Y-12864484D01*
X16570063Y-12864484D02*
X16608158Y-12864484D01*
X16608158Y-12864484D02*
X16627206Y-12854960D01*
X16627206Y-12854960D02*
X16636730Y-12845436D01*
X16636730Y-12845436D02*
X16646253Y-12826388D01*
X16646253Y-12826388D02*
X16646253Y-12788293D01*
X16646253Y-12788293D02*
X16636730Y-12769246D01*
X16636730Y-12769246D02*
X16627206Y-12759722D01*
X16627206Y-12759722D02*
X16608158Y-12750198D01*
X16874825Y-12854960D02*
X16893873Y-12864484D01*
X16893873Y-12864484D02*
X16931968Y-12864484D01*
X16931968Y-12864484D02*
X16951016Y-12854960D01*
X16951016Y-12854960D02*
X16960539Y-12835912D01*
X16960539Y-12835912D02*
X16960539Y-12826388D01*
X16960539Y-12826388D02*
X16951016Y-12807341D01*
X16951016Y-12807341D02*
X16931968Y-12797817D01*
X16931968Y-12797817D02*
X16903396Y-12797817D01*
X16903396Y-12797817D02*
X16884349Y-12788293D01*
X16884349Y-12788293D02*
X16874825Y-12769246D01*
X16874825Y-12769246D02*
X16874825Y-12759722D01*
X16874825Y-12759722D02*
X16884349Y-12740674D01*
X16884349Y-12740674D02*
X16903396Y-12731150D01*
X16903396Y-12731150D02*
X16931968Y-12731150D01*
X16931968Y-12731150D02*
X16951016Y-12740674D01*
X17074825Y-12864484D02*
X17055777Y-12854960D01*
X17055777Y-12854960D02*
X17046254Y-12835912D01*
X17046254Y-12835912D02*
X17046254Y-12664484D01*
X17179587Y-12864484D02*
X17160539Y-12854960D01*
X17160539Y-12854960D02*
X17151016Y-12845436D01*
X17151016Y-12845436D02*
X17141492Y-12826388D01*
X17141492Y-12826388D02*
X17141492Y-12769246D01*
X17141492Y-12769246D02*
X17151016Y-12750198D01*
X17151016Y-12750198D02*
X17160539Y-12740674D01*
X17160539Y-12740674D02*
X17179587Y-12731150D01*
X17179587Y-12731150D02*
X17208158Y-12731150D01*
X17208158Y-12731150D02*
X17227206Y-12740674D01*
X17227206Y-12740674D02*
X17236730Y-12750198D01*
X17236730Y-12750198D02*
X17246254Y-12769246D01*
X17246254Y-12769246D02*
X17246254Y-12826388D01*
X17246254Y-12826388D02*
X17236730Y-12845436D01*
X17236730Y-12845436D02*
X17227206Y-12854960D01*
X17227206Y-12854960D02*
X17208158Y-12864484D01*
X17208158Y-12864484D02*
X17179587Y-12864484D01*
X17303397Y-12731150D02*
X17379587Y-12731150D01*
X17331968Y-12664484D02*
X17331968Y-12835912D01*
X17331968Y-12835912D02*
X17341492Y-12854960D01*
X17341492Y-12854960D02*
X17360539Y-12864484D01*
X17360539Y-12864484D02*
X17379587Y-12864484D01*
X17436730Y-12854960D02*
X17455777Y-12864484D01*
X17455777Y-12864484D02*
X17493873Y-12864484D01*
X17493873Y-12864484D02*
X17512920Y-12854960D01*
X17512920Y-12854960D02*
X17522444Y-12835912D01*
X17522444Y-12835912D02*
X17522444Y-12826388D01*
X17522444Y-12826388D02*
X17512920Y-12807341D01*
X17512920Y-12807341D02*
X17493873Y-12797817D01*
X17493873Y-12797817D02*
X17465301Y-12797817D01*
X17465301Y-12797817D02*
X17446254Y-12788293D01*
X17446254Y-12788293D02*
X17436730Y-12769246D01*
X17436730Y-12769246D02*
X17436730Y-12759722D01*
X17436730Y-12759722D02*
X17446254Y-12740674D01*
X17446254Y-12740674D02*
X17465301Y-12731150D01*
X17465301Y-12731150D02*
X17493873Y-12731150D01*
X17493873Y-12731150D02*
X17512920Y-12740674D01*
X17589111Y-12940674D02*
X17598635Y-12931150D01*
X17598635Y-12931150D02*
X17617682Y-12902579D01*
X17617682Y-12902579D02*
X17627206Y-12883531D01*
X17627206Y-12883531D02*
X17636730Y-12854960D01*
X17636730Y-12854960D02*
X17646254Y-12807341D01*
X17646254Y-12807341D02*
X17646254Y-12769246D01*
X17646254Y-12769246D02*
X17636730Y-12721627D01*
X17636730Y-12721627D02*
X17627206Y-12693055D01*
X17627206Y-12693055D02*
X17617682Y-12674008D01*
X17617682Y-12674008D02*
X17598635Y-12645436D01*
X17598635Y-12645436D02*
X17589111Y-12635912D01*
M02*
