%TF.GenerationSoftware,KiCad,Pcbnew,8.0.1*%
%TF.CreationDate,2024-05-22T20:39:38+03:00*%
%TF.ProjectId,ESP32-C3_6_pico,45535033-322d-4433-935f-365f7069636f,rev?*%
%TF.SameCoordinates,Original*%
%TF.FileFunction,Drillmap*%
%TF.FilePolarity,Positive*%
%FSLAX45Y45*%
G04 Gerber Fmt 4.5, Leading zero omitted, Abs format (unit mm)*
G04 Created by KiCad (PCBNEW 8.0.1) date 2024-05-22 20:39:38*
%MOMM*%
%LPD*%
G01*
G04 APERTURE LIST*
%ADD10C,0.100000*%
%ADD11C,0.200000*%
%ADD12C,0.320000*%
G04 APERTURE END LIST*
D10*
X18400000Y-10800000D02*
G75*
G02*
X18200000Y-10600000I0J200000D01*
G01*
X14580000Y-11000000D02*
X14580000Y-11550000D01*
X14680000Y-11000000D02*
X14680000Y-11550000D01*
X11600000Y-8400000D02*
X11600000Y-8400000D01*
X15390000Y-11000000D02*
G75*
G02*
X15490000Y-11000000I50000J0D01*
G01*
X18400000Y-10800000D02*
G75*
G02*
X18800000Y-11200000I0J-400000D01*
G01*
X18200000Y-9400000D02*
X18200000Y-10600000D01*
X14530000Y-11600000D02*
X11600000Y-11600000D01*
X18400000Y-8400000D02*
X18400000Y-8400000D01*
X15840000Y-11000000D02*
X15840000Y-11550000D01*
X15390000Y-11000000D02*
X15390000Y-11550000D01*
X14730000Y-11600000D02*
G75*
G02*
X14680000Y-11550000I0J50000D01*
G01*
X11600000Y-11600000D02*
G75*
G02*
X11200000Y-11200000I0J400000D01*
G01*
X14730000Y-11600000D02*
X15340000Y-11600000D01*
X15490000Y-11000000D02*
X15490000Y-11550000D01*
X18800000Y-8800000D02*
G75*
G02*
X18400000Y-9200000I-400000J0D01*
G01*
X15940000Y-11000000D02*
X15940000Y-11550000D01*
X15990000Y-11600000D02*
G75*
G02*
X15940000Y-11550000I0J50000D01*
G01*
X11200000Y-8800000D02*
G75*
G02*
X11600000Y-8400000I400000J0D01*
G01*
X15840000Y-11000000D02*
G75*
G02*
X15940000Y-11000000I50000J0D01*
G01*
X14580000Y-11000000D02*
G75*
G02*
X14680000Y-11000000I50000J0D01*
G01*
X15390000Y-11550000D02*
G75*
G02*
X15340000Y-11600000I-50000J0D01*
G01*
X15540000Y-11600000D02*
X15790000Y-11600000D01*
X15840000Y-11550000D02*
G75*
G02*
X15790000Y-11600000I-50000J0D01*
G01*
X18800000Y-11200000D02*
G75*
G02*
X18400000Y-11600000I-400000J0D01*
G01*
X15540000Y-11600000D02*
G75*
G02*
X15490000Y-11550000I0J50000D01*
G01*
X11200000Y-11200000D02*
X11200000Y-8800000D01*
X14580000Y-11550000D02*
G75*
G02*
X14530000Y-11600000I-50000J0D01*
G01*
X15990000Y-11600000D02*
X18400000Y-11600000D01*
X18200000Y-9400000D02*
G75*
G02*
X18400000Y-9200000I200000J0D01*
G01*
X11600000Y-8400000D02*
X11600000Y-8400000D01*
X11600000Y-8400000D02*
X18400000Y-8400000D01*
X18400000Y-8400000D02*
G75*
G02*
X18800000Y-8800000I0J-400000D01*
G01*
D11*
D10*
X13381000Y-8945000D02*
X13441000Y-9005000D01*
X13441000Y-8945000D02*
X13381000Y-9005000D01*
X13959000Y-8945000D02*
X14019000Y-9005000D01*
X14019000Y-8945000D02*
X13959000Y-9005000D01*
X15981000Y-8945000D02*
X16041000Y-9005000D01*
X16041000Y-8945000D02*
X15981000Y-9005000D01*
X16559000Y-8945000D02*
X16619000Y-9005000D01*
X16619000Y-8945000D02*
X16559000Y-9005000D01*
D12*
X11760000Y-8800000D02*
G75*
G02*
X11440000Y-8800000I-160000J0D01*
G01*
X11440000Y-8800000D02*
G75*
G02*
X11760000Y-8800000I160000J0D01*
G01*
X11760000Y-11200000D02*
G75*
G02*
X11440000Y-11200000I-160000J0D01*
G01*
X11440000Y-11200000D02*
G75*
G02*
X11760000Y-11200000I160000J0D01*
G01*
X18560000Y-8800000D02*
G75*
G02*
X18240000Y-8800000I-160000J0D01*
G01*
X18240000Y-8800000D02*
G75*
G02*
X18560000Y-8800000I160000J0D01*
G01*
X18560000Y-11200000D02*
G75*
G02*
X18240000Y-11200000I-160000J0D01*
G01*
X18240000Y-11200000D02*
G75*
G02*
X18560000Y-11200000I160000J0D01*
G01*
D11*
X11455777Y-11916484D02*
X11455777Y-11716484D01*
X11455777Y-11716484D02*
X11503396Y-11716484D01*
X11503396Y-11716484D02*
X11531967Y-11726008D01*
X11531967Y-11726008D02*
X11551015Y-11745055D01*
X11551015Y-11745055D02*
X11560539Y-11764103D01*
X11560539Y-11764103D02*
X11570062Y-11802198D01*
X11570062Y-11802198D02*
X11570062Y-11830769D01*
X11570062Y-11830769D02*
X11560539Y-11868865D01*
X11560539Y-11868865D02*
X11551015Y-11887912D01*
X11551015Y-11887912D02*
X11531967Y-11906960D01*
X11531967Y-11906960D02*
X11503396Y-11916484D01*
X11503396Y-11916484D02*
X11455777Y-11916484D01*
X11655777Y-11916484D02*
X11655777Y-11783150D01*
X11655777Y-11821246D02*
X11665301Y-11802198D01*
X11665301Y-11802198D02*
X11674824Y-11792674D01*
X11674824Y-11792674D02*
X11693872Y-11783150D01*
X11693872Y-11783150D02*
X11712920Y-11783150D01*
X11779586Y-11916484D02*
X11779586Y-11783150D01*
X11779586Y-11716484D02*
X11770062Y-11726008D01*
X11770062Y-11726008D02*
X11779586Y-11735531D01*
X11779586Y-11735531D02*
X11789110Y-11726008D01*
X11789110Y-11726008D02*
X11779586Y-11716484D01*
X11779586Y-11716484D02*
X11779586Y-11735531D01*
X11903396Y-11916484D02*
X11884348Y-11906960D01*
X11884348Y-11906960D02*
X11874824Y-11887912D01*
X11874824Y-11887912D02*
X11874824Y-11716484D01*
X12008158Y-11916484D02*
X11989110Y-11906960D01*
X11989110Y-11906960D02*
X11979586Y-11887912D01*
X11979586Y-11887912D02*
X11979586Y-11716484D01*
X12236729Y-11916484D02*
X12236729Y-11716484D01*
X12236729Y-11716484D02*
X12303396Y-11859341D01*
X12303396Y-11859341D02*
X12370062Y-11716484D01*
X12370062Y-11716484D02*
X12370062Y-11916484D01*
X12551015Y-11916484D02*
X12551015Y-11811722D01*
X12551015Y-11811722D02*
X12541491Y-11792674D01*
X12541491Y-11792674D02*
X12522443Y-11783150D01*
X12522443Y-11783150D02*
X12484348Y-11783150D01*
X12484348Y-11783150D02*
X12465301Y-11792674D01*
X12551015Y-11906960D02*
X12531967Y-11916484D01*
X12531967Y-11916484D02*
X12484348Y-11916484D01*
X12484348Y-11916484D02*
X12465301Y-11906960D01*
X12465301Y-11906960D02*
X12455777Y-11887912D01*
X12455777Y-11887912D02*
X12455777Y-11868865D01*
X12455777Y-11868865D02*
X12465301Y-11849817D01*
X12465301Y-11849817D02*
X12484348Y-11840293D01*
X12484348Y-11840293D02*
X12531967Y-11840293D01*
X12531967Y-11840293D02*
X12551015Y-11830769D01*
X12646253Y-11783150D02*
X12646253Y-11983150D01*
X12646253Y-11792674D02*
X12665301Y-11783150D01*
X12665301Y-11783150D02*
X12703396Y-11783150D01*
X12703396Y-11783150D02*
X12722443Y-11792674D01*
X12722443Y-11792674D02*
X12731967Y-11802198D01*
X12731967Y-11802198D02*
X12741491Y-11821246D01*
X12741491Y-11821246D02*
X12741491Y-11878388D01*
X12741491Y-11878388D02*
X12731967Y-11897436D01*
X12731967Y-11897436D02*
X12722443Y-11906960D01*
X12722443Y-11906960D02*
X12703396Y-11916484D01*
X12703396Y-11916484D02*
X12665301Y-11916484D01*
X12665301Y-11916484D02*
X12646253Y-11906960D01*
X12827205Y-11897436D02*
X12836729Y-11906960D01*
X12836729Y-11906960D02*
X12827205Y-11916484D01*
X12827205Y-11916484D02*
X12817682Y-11906960D01*
X12817682Y-11906960D02*
X12827205Y-11897436D01*
X12827205Y-11897436D02*
X12827205Y-11916484D01*
X12827205Y-11792674D02*
X12836729Y-11802198D01*
X12836729Y-11802198D02*
X12827205Y-11811722D01*
X12827205Y-11811722D02*
X12817682Y-11802198D01*
X12817682Y-11802198D02*
X12827205Y-11792674D01*
X12827205Y-11792674D02*
X12827205Y-11811722D01*
D10*
X11135000Y-12215000D02*
X11195000Y-12275000D01*
X11195000Y-12215000D02*
X11135000Y-12275000D01*
D11*
X11493872Y-12136484D02*
X11512920Y-12136484D01*
X11512920Y-12136484D02*
X11531967Y-12146008D01*
X11531967Y-12146008D02*
X11541491Y-12155531D01*
X11541491Y-12155531D02*
X11551015Y-12174579D01*
X11551015Y-12174579D02*
X11560539Y-12212674D01*
X11560539Y-12212674D02*
X11560539Y-12260293D01*
X11560539Y-12260293D02*
X11551015Y-12298388D01*
X11551015Y-12298388D02*
X11541491Y-12317436D01*
X11541491Y-12317436D02*
X11531967Y-12326960D01*
X11531967Y-12326960D02*
X11512920Y-12336484D01*
X11512920Y-12336484D02*
X11493872Y-12336484D01*
X11493872Y-12336484D02*
X11474824Y-12326960D01*
X11474824Y-12326960D02*
X11465301Y-12317436D01*
X11465301Y-12317436D02*
X11455777Y-12298388D01*
X11455777Y-12298388D02*
X11446253Y-12260293D01*
X11446253Y-12260293D02*
X11446253Y-12212674D01*
X11446253Y-12212674D02*
X11455777Y-12174579D01*
X11455777Y-12174579D02*
X11465301Y-12155531D01*
X11465301Y-12155531D02*
X11474824Y-12146008D01*
X11474824Y-12146008D02*
X11493872Y-12136484D01*
X11646253Y-12317436D02*
X11655777Y-12326960D01*
X11655777Y-12326960D02*
X11646253Y-12336484D01*
X11646253Y-12336484D02*
X11636729Y-12326960D01*
X11636729Y-12326960D02*
X11646253Y-12317436D01*
X11646253Y-12317436D02*
X11646253Y-12336484D01*
X11827205Y-12136484D02*
X11789110Y-12136484D01*
X11789110Y-12136484D02*
X11770062Y-12146008D01*
X11770062Y-12146008D02*
X11760539Y-12155531D01*
X11760539Y-12155531D02*
X11741491Y-12184103D01*
X11741491Y-12184103D02*
X11731967Y-12222198D01*
X11731967Y-12222198D02*
X11731967Y-12298388D01*
X11731967Y-12298388D02*
X11741491Y-12317436D01*
X11741491Y-12317436D02*
X11751015Y-12326960D01*
X11751015Y-12326960D02*
X11770062Y-12336484D01*
X11770062Y-12336484D02*
X11808158Y-12336484D01*
X11808158Y-12336484D02*
X11827205Y-12326960D01*
X11827205Y-12326960D02*
X11836729Y-12317436D01*
X11836729Y-12317436D02*
X11846253Y-12298388D01*
X11846253Y-12298388D02*
X11846253Y-12250769D01*
X11846253Y-12250769D02*
X11836729Y-12231722D01*
X11836729Y-12231722D02*
X11827205Y-12222198D01*
X11827205Y-12222198D02*
X11808158Y-12212674D01*
X11808158Y-12212674D02*
X11770062Y-12212674D01*
X11770062Y-12212674D02*
X11751015Y-12222198D01*
X11751015Y-12222198D02*
X11741491Y-12231722D01*
X11741491Y-12231722D02*
X11731967Y-12250769D01*
X11970062Y-12136484D02*
X11989110Y-12136484D01*
X11989110Y-12136484D02*
X12008158Y-12146008D01*
X12008158Y-12146008D02*
X12017682Y-12155531D01*
X12017682Y-12155531D02*
X12027205Y-12174579D01*
X12027205Y-12174579D02*
X12036729Y-12212674D01*
X12036729Y-12212674D02*
X12036729Y-12260293D01*
X12036729Y-12260293D02*
X12027205Y-12298388D01*
X12027205Y-12298388D02*
X12017682Y-12317436D01*
X12017682Y-12317436D02*
X12008158Y-12326960D01*
X12008158Y-12326960D02*
X11989110Y-12336484D01*
X11989110Y-12336484D02*
X11970062Y-12336484D01*
X11970062Y-12336484D02*
X11951015Y-12326960D01*
X11951015Y-12326960D02*
X11941491Y-12317436D01*
X11941491Y-12317436D02*
X11931967Y-12298388D01*
X11931967Y-12298388D02*
X11922443Y-12260293D01*
X11922443Y-12260293D02*
X11922443Y-12212674D01*
X11922443Y-12212674D02*
X11931967Y-12174579D01*
X11931967Y-12174579D02*
X11941491Y-12155531D01*
X11941491Y-12155531D02*
X11951015Y-12146008D01*
X11951015Y-12146008D02*
X11970062Y-12136484D01*
X12160539Y-12136484D02*
X12179586Y-12136484D01*
X12179586Y-12136484D02*
X12198634Y-12146008D01*
X12198634Y-12146008D02*
X12208158Y-12155531D01*
X12208158Y-12155531D02*
X12217682Y-12174579D01*
X12217682Y-12174579D02*
X12227205Y-12212674D01*
X12227205Y-12212674D02*
X12227205Y-12260293D01*
X12227205Y-12260293D02*
X12217682Y-12298388D01*
X12217682Y-12298388D02*
X12208158Y-12317436D01*
X12208158Y-12317436D02*
X12198634Y-12326960D01*
X12198634Y-12326960D02*
X12179586Y-12336484D01*
X12179586Y-12336484D02*
X12160539Y-12336484D01*
X12160539Y-12336484D02*
X12141491Y-12326960D01*
X12141491Y-12326960D02*
X12131967Y-12317436D01*
X12131967Y-12317436D02*
X12122443Y-12298388D01*
X12122443Y-12298388D02*
X12112920Y-12260293D01*
X12112920Y-12260293D02*
X12112920Y-12212674D01*
X12112920Y-12212674D02*
X12122443Y-12174579D01*
X12122443Y-12174579D02*
X12131967Y-12155531D01*
X12131967Y-12155531D02*
X12141491Y-12146008D01*
X12141491Y-12146008D02*
X12160539Y-12136484D01*
X12312920Y-12336484D02*
X12312920Y-12203150D01*
X12312920Y-12222198D02*
X12322443Y-12212674D01*
X12322443Y-12212674D02*
X12341491Y-12203150D01*
X12341491Y-12203150D02*
X12370063Y-12203150D01*
X12370063Y-12203150D02*
X12389110Y-12212674D01*
X12389110Y-12212674D02*
X12398634Y-12231722D01*
X12398634Y-12231722D02*
X12398634Y-12336484D01*
X12398634Y-12231722D02*
X12408158Y-12212674D01*
X12408158Y-12212674D02*
X12427205Y-12203150D01*
X12427205Y-12203150D02*
X12455777Y-12203150D01*
X12455777Y-12203150D02*
X12474824Y-12212674D01*
X12474824Y-12212674D02*
X12484348Y-12231722D01*
X12484348Y-12231722D02*
X12484348Y-12336484D01*
X12579586Y-12336484D02*
X12579586Y-12203150D01*
X12579586Y-12222198D02*
X12589110Y-12212674D01*
X12589110Y-12212674D02*
X12608158Y-12203150D01*
X12608158Y-12203150D02*
X12636729Y-12203150D01*
X12636729Y-12203150D02*
X12655777Y-12212674D01*
X12655777Y-12212674D02*
X12665301Y-12231722D01*
X12665301Y-12231722D02*
X12665301Y-12336484D01*
X12665301Y-12231722D02*
X12674824Y-12212674D01*
X12674824Y-12212674D02*
X12693872Y-12203150D01*
X12693872Y-12203150D02*
X12722443Y-12203150D01*
X12722443Y-12203150D02*
X12741491Y-12212674D01*
X12741491Y-12212674D02*
X12751015Y-12231722D01*
X12751015Y-12231722D02*
X12751015Y-12336484D01*
X13141491Y-12126960D02*
X12970063Y-12384103D01*
X13398634Y-12136484D02*
X13417682Y-12136484D01*
X13417682Y-12136484D02*
X13436729Y-12146008D01*
X13436729Y-12146008D02*
X13446253Y-12155531D01*
X13446253Y-12155531D02*
X13455777Y-12174579D01*
X13455777Y-12174579D02*
X13465301Y-12212674D01*
X13465301Y-12212674D02*
X13465301Y-12260293D01*
X13465301Y-12260293D02*
X13455777Y-12298388D01*
X13455777Y-12298388D02*
X13446253Y-12317436D01*
X13446253Y-12317436D02*
X13436729Y-12326960D01*
X13436729Y-12326960D02*
X13417682Y-12336484D01*
X13417682Y-12336484D02*
X13398634Y-12336484D01*
X13398634Y-12336484D02*
X13379586Y-12326960D01*
X13379586Y-12326960D02*
X13370063Y-12317436D01*
X13370063Y-12317436D02*
X13360539Y-12298388D01*
X13360539Y-12298388D02*
X13351015Y-12260293D01*
X13351015Y-12260293D02*
X13351015Y-12212674D01*
X13351015Y-12212674D02*
X13360539Y-12174579D01*
X13360539Y-12174579D02*
X13370063Y-12155531D01*
X13370063Y-12155531D02*
X13379586Y-12146008D01*
X13379586Y-12146008D02*
X13398634Y-12136484D01*
X13551015Y-12317436D02*
X13560539Y-12326960D01*
X13560539Y-12326960D02*
X13551015Y-12336484D01*
X13551015Y-12336484D02*
X13541491Y-12326960D01*
X13541491Y-12326960D02*
X13551015Y-12317436D01*
X13551015Y-12317436D02*
X13551015Y-12336484D01*
X13684348Y-12136484D02*
X13703396Y-12136484D01*
X13703396Y-12136484D02*
X13722444Y-12146008D01*
X13722444Y-12146008D02*
X13731967Y-12155531D01*
X13731967Y-12155531D02*
X13741491Y-12174579D01*
X13741491Y-12174579D02*
X13751015Y-12212674D01*
X13751015Y-12212674D02*
X13751015Y-12260293D01*
X13751015Y-12260293D02*
X13741491Y-12298388D01*
X13741491Y-12298388D02*
X13731967Y-12317436D01*
X13731967Y-12317436D02*
X13722444Y-12326960D01*
X13722444Y-12326960D02*
X13703396Y-12336484D01*
X13703396Y-12336484D02*
X13684348Y-12336484D01*
X13684348Y-12336484D02*
X13665301Y-12326960D01*
X13665301Y-12326960D02*
X13655777Y-12317436D01*
X13655777Y-12317436D02*
X13646253Y-12298388D01*
X13646253Y-12298388D02*
X13636729Y-12260293D01*
X13636729Y-12260293D02*
X13636729Y-12212674D01*
X13636729Y-12212674D02*
X13646253Y-12174579D01*
X13646253Y-12174579D02*
X13655777Y-12155531D01*
X13655777Y-12155531D02*
X13665301Y-12146008D01*
X13665301Y-12146008D02*
X13684348Y-12136484D01*
X13827206Y-12155531D02*
X13836729Y-12146008D01*
X13836729Y-12146008D02*
X13855777Y-12136484D01*
X13855777Y-12136484D02*
X13903396Y-12136484D01*
X13903396Y-12136484D02*
X13922444Y-12146008D01*
X13922444Y-12146008D02*
X13931967Y-12155531D01*
X13931967Y-12155531D02*
X13941491Y-12174579D01*
X13941491Y-12174579D02*
X13941491Y-12193627D01*
X13941491Y-12193627D02*
X13931967Y-12222198D01*
X13931967Y-12222198D02*
X13817682Y-12336484D01*
X13817682Y-12336484D02*
X13941491Y-12336484D01*
X14008158Y-12136484D02*
X14131967Y-12136484D01*
X14131967Y-12136484D02*
X14065301Y-12212674D01*
X14065301Y-12212674D02*
X14093872Y-12212674D01*
X14093872Y-12212674D02*
X14112920Y-12222198D01*
X14112920Y-12222198D02*
X14122444Y-12231722D01*
X14122444Y-12231722D02*
X14131967Y-12250769D01*
X14131967Y-12250769D02*
X14131967Y-12298388D01*
X14131967Y-12298388D02*
X14122444Y-12317436D01*
X14122444Y-12317436D02*
X14112920Y-12326960D01*
X14112920Y-12326960D02*
X14093872Y-12336484D01*
X14093872Y-12336484D02*
X14036729Y-12336484D01*
X14036729Y-12336484D02*
X14017682Y-12326960D01*
X14017682Y-12326960D02*
X14008158Y-12317436D01*
X14303396Y-12136484D02*
X14265301Y-12136484D01*
X14265301Y-12136484D02*
X14246253Y-12146008D01*
X14246253Y-12146008D02*
X14236729Y-12155531D01*
X14236729Y-12155531D02*
X14217682Y-12184103D01*
X14217682Y-12184103D02*
X14208158Y-12222198D01*
X14208158Y-12222198D02*
X14208158Y-12298388D01*
X14208158Y-12298388D02*
X14217682Y-12317436D01*
X14217682Y-12317436D02*
X14227206Y-12326960D01*
X14227206Y-12326960D02*
X14246253Y-12336484D01*
X14246253Y-12336484D02*
X14284348Y-12336484D01*
X14284348Y-12336484D02*
X14303396Y-12326960D01*
X14303396Y-12326960D02*
X14312920Y-12317436D01*
X14312920Y-12317436D02*
X14322444Y-12298388D01*
X14322444Y-12298388D02*
X14322444Y-12250769D01*
X14322444Y-12250769D02*
X14312920Y-12231722D01*
X14312920Y-12231722D02*
X14303396Y-12222198D01*
X14303396Y-12222198D02*
X14284348Y-12212674D01*
X14284348Y-12212674D02*
X14246253Y-12212674D01*
X14246253Y-12212674D02*
X14227206Y-12222198D01*
X14227206Y-12222198D02*
X14217682Y-12231722D01*
X14217682Y-12231722D02*
X14208158Y-12250769D01*
X14398634Y-12136484D02*
X14398634Y-12174579D01*
X14474825Y-12136484D02*
X14474825Y-12174579D01*
X14770063Y-12412674D02*
X14760539Y-12403150D01*
X14760539Y-12403150D02*
X14741491Y-12374579D01*
X14741491Y-12374579D02*
X14731968Y-12355531D01*
X14731968Y-12355531D02*
X14722444Y-12326960D01*
X14722444Y-12326960D02*
X14712920Y-12279341D01*
X14712920Y-12279341D02*
X14712920Y-12241246D01*
X14712920Y-12241246D02*
X14722444Y-12193627D01*
X14722444Y-12193627D02*
X14731968Y-12165055D01*
X14731968Y-12165055D02*
X14741491Y-12146008D01*
X14741491Y-12146008D02*
X14760539Y-12117436D01*
X14760539Y-12117436D02*
X14770063Y-12107912D01*
X14931968Y-12203150D02*
X14931968Y-12336484D01*
X14884348Y-12126960D02*
X14836729Y-12269817D01*
X14836729Y-12269817D02*
X14960539Y-12269817D01*
X15189110Y-12336484D02*
X15189110Y-12136484D01*
X15274825Y-12336484D02*
X15274825Y-12231722D01*
X15274825Y-12231722D02*
X15265301Y-12212674D01*
X15265301Y-12212674D02*
X15246253Y-12203150D01*
X15246253Y-12203150D02*
X15217682Y-12203150D01*
X15217682Y-12203150D02*
X15198634Y-12212674D01*
X15198634Y-12212674D02*
X15189110Y-12222198D01*
X15398634Y-12336484D02*
X15379587Y-12326960D01*
X15379587Y-12326960D02*
X15370063Y-12317436D01*
X15370063Y-12317436D02*
X15360539Y-12298388D01*
X15360539Y-12298388D02*
X15360539Y-12241246D01*
X15360539Y-12241246D02*
X15370063Y-12222198D01*
X15370063Y-12222198D02*
X15379587Y-12212674D01*
X15379587Y-12212674D02*
X15398634Y-12203150D01*
X15398634Y-12203150D02*
X15427206Y-12203150D01*
X15427206Y-12203150D02*
X15446253Y-12212674D01*
X15446253Y-12212674D02*
X15455777Y-12222198D01*
X15455777Y-12222198D02*
X15465301Y-12241246D01*
X15465301Y-12241246D02*
X15465301Y-12298388D01*
X15465301Y-12298388D02*
X15455777Y-12317436D01*
X15455777Y-12317436D02*
X15446253Y-12326960D01*
X15446253Y-12326960D02*
X15427206Y-12336484D01*
X15427206Y-12336484D02*
X15398634Y-12336484D01*
X15579587Y-12336484D02*
X15560539Y-12326960D01*
X15560539Y-12326960D02*
X15551015Y-12307912D01*
X15551015Y-12307912D02*
X15551015Y-12136484D01*
X15731968Y-12326960D02*
X15712920Y-12336484D01*
X15712920Y-12336484D02*
X15674825Y-12336484D01*
X15674825Y-12336484D02*
X15655777Y-12326960D01*
X15655777Y-12326960D02*
X15646253Y-12307912D01*
X15646253Y-12307912D02*
X15646253Y-12231722D01*
X15646253Y-12231722D02*
X15655777Y-12212674D01*
X15655777Y-12212674D02*
X15674825Y-12203150D01*
X15674825Y-12203150D02*
X15712920Y-12203150D01*
X15712920Y-12203150D02*
X15731968Y-12212674D01*
X15731968Y-12212674D02*
X15741491Y-12231722D01*
X15741491Y-12231722D02*
X15741491Y-12250769D01*
X15741491Y-12250769D02*
X15646253Y-12269817D01*
X15817682Y-12326960D02*
X15836730Y-12336484D01*
X15836730Y-12336484D02*
X15874825Y-12336484D01*
X15874825Y-12336484D02*
X15893872Y-12326960D01*
X15893872Y-12326960D02*
X15903396Y-12307912D01*
X15903396Y-12307912D02*
X15903396Y-12298388D01*
X15903396Y-12298388D02*
X15893872Y-12279341D01*
X15893872Y-12279341D02*
X15874825Y-12269817D01*
X15874825Y-12269817D02*
X15846253Y-12269817D01*
X15846253Y-12269817D02*
X15827206Y-12260293D01*
X15827206Y-12260293D02*
X15817682Y-12241246D01*
X15817682Y-12241246D02*
X15817682Y-12231722D01*
X15817682Y-12231722D02*
X15827206Y-12212674D01*
X15827206Y-12212674D02*
X15846253Y-12203150D01*
X15846253Y-12203150D02*
X15874825Y-12203150D01*
X15874825Y-12203150D02*
X15893872Y-12212674D01*
X15970063Y-12412674D02*
X15979587Y-12403150D01*
X15979587Y-12403150D02*
X15998634Y-12374579D01*
X15998634Y-12374579D02*
X16008158Y-12355531D01*
X16008158Y-12355531D02*
X16017682Y-12326960D01*
X16017682Y-12326960D02*
X16027206Y-12279341D01*
X16027206Y-12279341D02*
X16027206Y-12241246D01*
X16027206Y-12241246D02*
X16017682Y-12193627D01*
X16017682Y-12193627D02*
X16008158Y-12165055D01*
X16008158Y-12165055D02*
X15998634Y-12146008D01*
X15998634Y-12146008D02*
X15979587Y-12117436D01*
X15979587Y-12117436D02*
X15970063Y-12107912D01*
X16331968Y-12412674D02*
X16322444Y-12403150D01*
X16322444Y-12403150D02*
X16303396Y-12374579D01*
X16303396Y-12374579D02*
X16293872Y-12355531D01*
X16293872Y-12355531D02*
X16284349Y-12326960D01*
X16284349Y-12326960D02*
X16274825Y-12279341D01*
X16274825Y-12279341D02*
X16274825Y-12241246D01*
X16274825Y-12241246D02*
X16284349Y-12193627D01*
X16284349Y-12193627D02*
X16293872Y-12165055D01*
X16293872Y-12165055D02*
X16303396Y-12146008D01*
X16303396Y-12146008D02*
X16322444Y-12117436D01*
X16322444Y-12117436D02*
X16331968Y-12107912D01*
X16408158Y-12203150D02*
X16408158Y-12336484D01*
X16408158Y-12222198D02*
X16417682Y-12212674D01*
X16417682Y-12212674D02*
X16436730Y-12203150D01*
X16436730Y-12203150D02*
X16465301Y-12203150D01*
X16465301Y-12203150D02*
X16484349Y-12212674D01*
X16484349Y-12212674D02*
X16493872Y-12231722D01*
X16493872Y-12231722D02*
X16493872Y-12336484D01*
X16617682Y-12336484D02*
X16598634Y-12326960D01*
X16598634Y-12326960D02*
X16589111Y-12317436D01*
X16589111Y-12317436D02*
X16579587Y-12298388D01*
X16579587Y-12298388D02*
X16579587Y-12241246D01*
X16579587Y-12241246D02*
X16589111Y-12222198D01*
X16589111Y-12222198D02*
X16598634Y-12212674D01*
X16598634Y-12212674D02*
X16617682Y-12203150D01*
X16617682Y-12203150D02*
X16646253Y-12203150D01*
X16646253Y-12203150D02*
X16665301Y-12212674D01*
X16665301Y-12212674D02*
X16674825Y-12222198D01*
X16674825Y-12222198D02*
X16684349Y-12241246D01*
X16684349Y-12241246D02*
X16684349Y-12298388D01*
X16684349Y-12298388D02*
X16674825Y-12317436D01*
X16674825Y-12317436D02*
X16665301Y-12326960D01*
X16665301Y-12326960D02*
X16646253Y-12336484D01*
X16646253Y-12336484D02*
X16617682Y-12336484D01*
X16741492Y-12203150D02*
X16817682Y-12203150D01*
X16770063Y-12136484D02*
X16770063Y-12307912D01*
X16770063Y-12307912D02*
X16779587Y-12326960D01*
X16779587Y-12326960D02*
X16798634Y-12336484D01*
X16798634Y-12336484D02*
X16817682Y-12336484D01*
X17036730Y-12203150D02*
X17036730Y-12403150D01*
X17036730Y-12212674D02*
X17055777Y-12203150D01*
X17055777Y-12203150D02*
X17093873Y-12203150D01*
X17093873Y-12203150D02*
X17112920Y-12212674D01*
X17112920Y-12212674D02*
X17122444Y-12222198D01*
X17122444Y-12222198D02*
X17131968Y-12241246D01*
X17131968Y-12241246D02*
X17131968Y-12298388D01*
X17131968Y-12298388D02*
X17122444Y-12317436D01*
X17122444Y-12317436D02*
X17112920Y-12326960D01*
X17112920Y-12326960D02*
X17093873Y-12336484D01*
X17093873Y-12336484D02*
X17055777Y-12336484D01*
X17055777Y-12336484D02*
X17036730Y-12326960D01*
X17246254Y-12336484D02*
X17227206Y-12326960D01*
X17227206Y-12326960D02*
X17217682Y-12307912D01*
X17217682Y-12307912D02*
X17217682Y-12136484D01*
X17408158Y-12336484D02*
X17408158Y-12231722D01*
X17408158Y-12231722D02*
X17398635Y-12212674D01*
X17398635Y-12212674D02*
X17379587Y-12203150D01*
X17379587Y-12203150D02*
X17341492Y-12203150D01*
X17341492Y-12203150D02*
X17322444Y-12212674D01*
X17408158Y-12326960D02*
X17389111Y-12336484D01*
X17389111Y-12336484D02*
X17341492Y-12336484D01*
X17341492Y-12336484D02*
X17322444Y-12326960D01*
X17322444Y-12326960D02*
X17312920Y-12307912D01*
X17312920Y-12307912D02*
X17312920Y-12288865D01*
X17312920Y-12288865D02*
X17322444Y-12269817D01*
X17322444Y-12269817D02*
X17341492Y-12260293D01*
X17341492Y-12260293D02*
X17389111Y-12260293D01*
X17389111Y-12260293D02*
X17408158Y-12250769D01*
X17474825Y-12203150D02*
X17551015Y-12203150D01*
X17503396Y-12136484D02*
X17503396Y-12307912D01*
X17503396Y-12307912D02*
X17512920Y-12326960D01*
X17512920Y-12326960D02*
X17531968Y-12336484D01*
X17531968Y-12336484D02*
X17551015Y-12336484D01*
X17693873Y-12326960D02*
X17674825Y-12336484D01*
X17674825Y-12336484D02*
X17636730Y-12336484D01*
X17636730Y-12336484D02*
X17617682Y-12326960D01*
X17617682Y-12326960D02*
X17608158Y-12307912D01*
X17608158Y-12307912D02*
X17608158Y-12231722D01*
X17608158Y-12231722D02*
X17617682Y-12212674D01*
X17617682Y-12212674D02*
X17636730Y-12203150D01*
X17636730Y-12203150D02*
X17674825Y-12203150D01*
X17674825Y-12203150D02*
X17693873Y-12212674D01*
X17693873Y-12212674D02*
X17703396Y-12231722D01*
X17703396Y-12231722D02*
X17703396Y-12250769D01*
X17703396Y-12250769D02*
X17608158Y-12269817D01*
X17874825Y-12336484D02*
X17874825Y-12136484D01*
X17874825Y-12326960D02*
X17855777Y-12336484D01*
X17855777Y-12336484D02*
X17817682Y-12336484D01*
X17817682Y-12336484D02*
X17798635Y-12326960D01*
X17798635Y-12326960D02*
X17789111Y-12317436D01*
X17789111Y-12317436D02*
X17779587Y-12298388D01*
X17779587Y-12298388D02*
X17779587Y-12241246D01*
X17779587Y-12241246D02*
X17789111Y-12222198D01*
X17789111Y-12222198D02*
X17798635Y-12212674D01*
X17798635Y-12212674D02*
X17817682Y-12203150D01*
X17817682Y-12203150D02*
X17855777Y-12203150D01*
X17855777Y-12203150D02*
X17874825Y-12212674D01*
X17951016Y-12412674D02*
X17960539Y-12403150D01*
X17960539Y-12403150D02*
X17979587Y-12374579D01*
X17979587Y-12374579D02*
X17989111Y-12355531D01*
X17989111Y-12355531D02*
X17998635Y-12326960D01*
X17998635Y-12326960D02*
X18008158Y-12279341D01*
X18008158Y-12279341D02*
X18008158Y-12241246D01*
X18008158Y-12241246D02*
X17998635Y-12193627D01*
X17998635Y-12193627D02*
X17989111Y-12165055D01*
X17989111Y-12165055D02*
X17979587Y-12146008D01*
X17979587Y-12146008D02*
X17960539Y-12117436D01*
X17960539Y-12117436D02*
X17951016Y-12107912D01*
X11195000Y-12509000D02*
G75*
G02*
X10995000Y-12509000I-100000J0D01*
G01*
X10995000Y-12509000D02*
G75*
G02*
X11195000Y-12509000I100000J0D01*
G01*
X11436729Y-12400484D02*
X11560539Y-12400484D01*
X11560539Y-12400484D02*
X11493872Y-12476674D01*
X11493872Y-12476674D02*
X11522443Y-12476674D01*
X11522443Y-12476674D02*
X11541491Y-12486198D01*
X11541491Y-12486198D02*
X11551015Y-12495722D01*
X11551015Y-12495722D02*
X11560539Y-12514769D01*
X11560539Y-12514769D02*
X11560539Y-12562388D01*
X11560539Y-12562388D02*
X11551015Y-12581436D01*
X11551015Y-12581436D02*
X11541491Y-12590960D01*
X11541491Y-12590960D02*
X11522443Y-12600484D01*
X11522443Y-12600484D02*
X11465301Y-12600484D01*
X11465301Y-12600484D02*
X11446253Y-12590960D01*
X11446253Y-12590960D02*
X11436729Y-12581436D01*
X11646253Y-12581436D02*
X11655777Y-12590960D01*
X11655777Y-12590960D02*
X11646253Y-12600484D01*
X11646253Y-12600484D02*
X11636729Y-12590960D01*
X11636729Y-12590960D02*
X11646253Y-12581436D01*
X11646253Y-12581436D02*
X11646253Y-12600484D01*
X11731967Y-12419531D02*
X11741491Y-12410008D01*
X11741491Y-12410008D02*
X11760539Y-12400484D01*
X11760539Y-12400484D02*
X11808158Y-12400484D01*
X11808158Y-12400484D02*
X11827205Y-12410008D01*
X11827205Y-12410008D02*
X11836729Y-12419531D01*
X11836729Y-12419531D02*
X11846253Y-12438579D01*
X11846253Y-12438579D02*
X11846253Y-12457627D01*
X11846253Y-12457627D02*
X11836729Y-12486198D01*
X11836729Y-12486198D02*
X11722443Y-12600484D01*
X11722443Y-12600484D02*
X11846253Y-12600484D01*
X11970062Y-12400484D02*
X11989110Y-12400484D01*
X11989110Y-12400484D02*
X12008158Y-12410008D01*
X12008158Y-12410008D02*
X12017682Y-12419531D01*
X12017682Y-12419531D02*
X12027205Y-12438579D01*
X12027205Y-12438579D02*
X12036729Y-12476674D01*
X12036729Y-12476674D02*
X12036729Y-12524293D01*
X12036729Y-12524293D02*
X12027205Y-12562388D01*
X12027205Y-12562388D02*
X12017682Y-12581436D01*
X12017682Y-12581436D02*
X12008158Y-12590960D01*
X12008158Y-12590960D02*
X11989110Y-12600484D01*
X11989110Y-12600484D02*
X11970062Y-12600484D01*
X11970062Y-12600484D02*
X11951015Y-12590960D01*
X11951015Y-12590960D02*
X11941491Y-12581436D01*
X11941491Y-12581436D02*
X11931967Y-12562388D01*
X11931967Y-12562388D02*
X11922443Y-12524293D01*
X11922443Y-12524293D02*
X11922443Y-12476674D01*
X11922443Y-12476674D02*
X11931967Y-12438579D01*
X11931967Y-12438579D02*
X11941491Y-12419531D01*
X11941491Y-12419531D02*
X11951015Y-12410008D01*
X11951015Y-12410008D02*
X11970062Y-12400484D01*
X12160539Y-12400484D02*
X12179586Y-12400484D01*
X12179586Y-12400484D02*
X12198634Y-12410008D01*
X12198634Y-12410008D02*
X12208158Y-12419531D01*
X12208158Y-12419531D02*
X12217682Y-12438579D01*
X12217682Y-12438579D02*
X12227205Y-12476674D01*
X12227205Y-12476674D02*
X12227205Y-12524293D01*
X12227205Y-12524293D02*
X12217682Y-12562388D01*
X12217682Y-12562388D02*
X12208158Y-12581436D01*
X12208158Y-12581436D02*
X12198634Y-12590960D01*
X12198634Y-12590960D02*
X12179586Y-12600484D01*
X12179586Y-12600484D02*
X12160539Y-12600484D01*
X12160539Y-12600484D02*
X12141491Y-12590960D01*
X12141491Y-12590960D02*
X12131967Y-12581436D01*
X12131967Y-12581436D02*
X12122443Y-12562388D01*
X12122443Y-12562388D02*
X12112920Y-12524293D01*
X12112920Y-12524293D02*
X12112920Y-12476674D01*
X12112920Y-12476674D02*
X12122443Y-12438579D01*
X12122443Y-12438579D02*
X12131967Y-12419531D01*
X12131967Y-12419531D02*
X12141491Y-12410008D01*
X12141491Y-12410008D02*
X12160539Y-12400484D01*
X12312920Y-12600484D02*
X12312920Y-12467150D01*
X12312920Y-12486198D02*
X12322443Y-12476674D01*
X12322443Y-12476674D02*
X12341491Y-12467150D01*
X12341491Y-12467150D02*
X12370063Y-12467150D01*
X12370063Y-12467150D02*
X12389110Y-12476674D01*
X12389110Y-12476674D02*
X12398634Y-12495722D01*
X12398634Y-12495722D02*
X12398634Y-12600484D01*
X12398634Y-12495722D02*
X12408158Y-12476674D01*
X12408158Y-12476674D02*
X12427205Y-12467150D01*
X12427205Y-12467150D02*
X12455777Y-12467150D01*
X12455777Y-12467150D02*
X12474824Y-12476674D01*
X12474824Y-12476674D02*
X12484348Y-12495722D01*
X12484348Y-12495722D02*
X12484348Y-12600484D01*
X12579586Y-12600484D02*
X12579586Y-12467150D01*
X12579586Y-12486198D02*
X12589110Y-12476674D01*
X12589110Y-12476674D02*
X12608158Y-12467150D01*
X12608158Y-12467150D02*
X12636729Y-12467150D01*
X12636729Y-12467150D02*
X12655777Y-12476674D01*
X12655777Y-12476674D02*
X12665301Y-12495722D01*
X12665301Y-12495722D02*
X12665301Y-12600484D01*
X12665301Y-12495722D02*
X12674824Y-12476674D01*
X12674824Y-12476674D02*
X12693872Y-12467150D01*
X12693872Y-12467150D02*
X12722443Y-12467150D01*
X12722443Y-12467150D02*
X12741491Y-12476674D01*
X12741491Y-12476674D02*
X12751015Y-12495722D01*
X12751015Y-12495722D02*
X12751015Y-12600484D01*
X13141491Y-12390960D02*
X12970063Y-12648103D01*
X13398634Y-12400484D02*
X13417682Y-12400484D01*
X13417682Y-12400484D02*
X13436729Y-12410008D01*
X13436729Y-12410008D02*
X13446253Y-12419531D01*
X13446253Y-12419531D02*
X13455777Y-12438579D01*
X13455777Y-12438579D02*
X13465301Y-12476674D01*
X13465301Y-12476674D02*
X13465301Y-12524293D01*
X13465301Y-12524293D02*
X13455777Y-12562388D01*
X13455777Y-12562388D02*
X13446253Y-12581436D01*
X13446253Y-12581436D02*
X13436729Y-12590960D01*
X13436729Y-12590960D02*
X13417682Y-12600484D01*
X13417682Y-12600484D02*
X13398634Y-12600484D01*
X13398634Y-12600484D02*
X13379586Y-12590960D01*
X13379586Y-12590960D02*
X13370063Y-12581436D01*
X13370063Y-12581436D02*
X13360539Y-12562388D01*
X13360539Y-12562388D02*
X13351015Y-12524293D01*
X13351015Y-12524293D02*
X13351015Y-12476674D01*
X13351015Y-12476674D02*
X13360539Y-12438579D01*
X13360539Y-12438579D02*
X13370063Y-12419531D01*
X13370063Y-12419531D02*
X13379586Y-12410008D01*
X13379586Y-12410008D02*
X13398634Y-12400484D01*
X13551015Y-12581436D02*
X13560539Y-12590960D01*
X13560539Y-12590960D02*
X13551015Y-12600484D01*
X13551015Y-12600484D02*
X13541491Y-12590960D01*
X13541491Y-12590960D02*
X13551015Y-12581436D01*
X13551015Y-12581436D02*
X13551015Y-12600484D01*
X13751015Y-12600484D02*
X13636729Y-12600484D01*
X13693872Y-12600484D02*
X13693872Y-12400484D01*
X13693872Y-12400484D02*
X13674825Y-12429055D01*
X13674825Y-12429055D02*
X13655777Y-12448103D01*
X13655777Y-12448103D02*
X13636729Y-12457627D01*
X13827206Y-12419531D02*
X13836729Y-12410008D01*
X13836729Y-12410008D02*
X13855777Y-12400484D01*
X13855777Y-12400484D02*
X13903396Y-12400484D01*
X13903396Y-12400484D02*
X13922444Y-12410008D01*
X13922444Y-12410008D02*
X13931967Y-12419531D01*
X13931967Y-12419531D02*
X13941491Y-12438579D01*
X13941491Y-12438579D02*
X13941491Y-12457627D01*
X13941491Y-12457627D02*
X13931967Y-12486198D01*
X13931967Y-12486198D02*
X13817682Y-12600484D01*
X13817682Y-12600484D02*
X13941491Y-12600484D01*
X14112920Y-12400484D02*
X14074825Y-12400484D01*
X14074825Y-12400484D02*
X14055777Y-12410008D01*
X14055777Y-12410008D02*
X14046253Y-12419531D01*
X14046253Y-12419531D02*
X14027206Y-12448103D01*
X14027206Y-12448103D02*
X14017682Y-12486198D01*
X14017682Y-12486198D02*
X14017682Y-12562388D01*
X14017682Y-12562388D02*
X14027206Y-12581436D01*
X14027206Y-12581436D02*
X14036729Y-12590960D01*
X14036729Y-12590960D02*
X14055777Y-12600484D01*
X14055777Y-12600484D02*
X14093872Y-12600484D01*
X14093872Y-12600484D02*
X14112920Y-12590960D01*
X14112920Y-12590960D02*
X14122444Y-12581436D01*
X14122444Y-12581436D02*
X14131967Y-12562388D01*
X14131967Y-12562388D02*
X14131967Y-12514769D01*
X14131967Y-12514769D02*
X14122444Y-12495722D01*
X14122444Y-12495722D02*
X14112920Y-12486198D01*
X14112920Y-12486198D02*
X14093872Y-12476674D01*
X14093872Y-12476674D02*
X14055777Y-12476674D01*
X14055777Y-12476674D02*
X14036729Y-12486198D01*
X14036729Y-12486198D02*
X14027206Y-12495722D01*
X14027206Y-12495722D02*
X14017682Y-12514769D01*
X14255777Y-12400484D02*
X14274825Y-12400484D01*
X14274825Y-12400484D02*
X14293872Y-12410008D01*
X14293872Y-12410008D02*
X14303396Y-12419531D01*
X14303396Y-12419531D02*
X14312920Y-12438579D01*
X14312920Y-12438579D02*
X14322444Y-12476674D01*
X14322444Y-12476674D02*
X14322444Y-12524293D01*
X14322444Y-12524293D02*
X14312920Y-12562388D01*
X14312920Y-12562388D02*
X14303396Y-12581436D01*
X14303396Y-12581436D02*
X14293872Y-12590960D01*
X14293872Y-12590960D02*
X14274825Y-12600484D01*
X14274825Y-12600484D02*
X14255777Y-12600484D01*
X14255777Y-12600484D02*
X14236729Y-12590960D01*
X14236729Y-12590960D02*
X14227206Y-12581436D01*
X14227206Y-12581436D02*
X14217682Y-12562388D01*
X14217682Y-12562388D02*
X14208158Y-12524293D01*
X14208158Y-12524293D02*
X14208158Y-12476674D01*
X14208158Y-12476674D02*
X14217682Y-12438579D01*
X14217682Y-12438579D02*
X14227206Y-12419531D01*
X14227206Y-12419531D02*
X14236729Y-12410008D01*
X14236729Y-12410008D02*
X14255777Y-12400484D01*
X14398634Y-12400484D02*
X14398634Y-12438579D01*
X14474825Y-12400484D02*
X14474825Y-12438579D01*
X14770063Y-12676674D02*
X14760539Y-12667150D01*
X14760539Y-12667150D02*
X14741491Y-12638579D01*
X14741491Y-12638579D02*
X14731968Y-12619531D01*
X14731968Y-12619531D02*
X14722444Y-12590960D01*
X14722444Y-12590960D02*
X14712920Y-12543341D01*
X14712920Y-12543341D02*
X14712920Y-12505246D01*
X14712920Y-12505246D02*
X14722444Y-12457627D01*
X14722444Y-12457627D02*
X14731968Y-12429055D01*
X14731968Y-12429055D02*
X14741491Y-12410008D01*
X14741491Y-12410008D02*
X14760539Y-12381436D01*
X14760539Y-12381436D02*
X14770063Y-12371912D01*
X14931968Y-12467150D02*
X14931968Y-12600484D01*
X14884348Y-12390960D02*
X14836729Y-12533817D01*
X14836729Y-12533817D02*
X14960539Y-12533817D01*
X15189110Y-12600484D02*
X15189110Y-12400484D01*
X15274825Y-12600484D02*
X15274825Y-12495722D01*
X15274825Y-12495722D02*
X15265301Y-12476674D01*
X15265301Y-12476674D02*
X15246253Y-12467150D01*
X15246253Y-12467150D02*
X15217682Y-12467150D01*
X15217682Y-12467150D02*
X15198634Y-12476674D01*
X15198634Y-12476674D02*
X15189110Y-12486198D01*
X15398634Y-12600484D02*
X15379587Y-12590960D01*
X15379587Y-12590960D02*
X15370063Y-12581436D01*
X15370063Y-12581436D02*
X15360539Y-12562388D01*
X15360539Y-12562388D02*
X15360539Y-12505246D01*
X15360539Y-12505246D02*
X15370063Y-12486198D01*
X15370063Y-12486198D02*
X15379587Y-12476674D01*
X15379587Y-12476674D02*
X15398634Y-12467150D01*
X15398634Y-12467150D02*
X15427206Y-12467150D01*
X15427206Y-12467150D02*
X15446253Y-12476674D01*
X15446253Y-12476674D02*
X15455777Y-12486198D01*
X15455777Y-12486198D02*
X15465301Y-12505246D01*
X15465301Y-12505246D02*
X15465301Y-12562388D01*
X15465301Y-12562388D02*
X15455777Y-12581436D01*
X15455777Y-12581436D02*
X15446253Y-12590960D01*
X15446253Y-12590960D02*
X15427206Y-12600484D01*
X15427206Y-12600484D02*
X15398634Y-12600484D01*
X15579587Y-12600484D02*
X15560539Y-12590960D01*
X15560539Y-12590960D02*
X15551015Y-12571912D01*
X15551015Y-12571912D02*
X15551015Y-12400484D01*
X15731968Y-12590960D02*
X15712920Y-12600484D01*
X15712920Y-12600484D02*
X15674825Y-12600484D01*
X15674825Y-12600484D02*
X15655777Y-12590960D01*
X15655777Y-12590960D02*
X15646253Y-12571912D01*
X15646253Y-12571912D02*
X15646253Y-12495722D01*
X15646253Y-12495722D02*
X15655777Y-12476674D01*
X15655777Y-12476674D02*
X15674825Y-12467150D01*
X15674825Y-12467150D02*
X15712920Y-12467150D01*
X15712920Y-12467150D02*
X15731968Y-12476674D01*
X15731968Y-12476674D02*
X15741491Y-12495722D01*
X15741491Y-12495722D02*
X15741491Y-12514769D01*
X15741491Y-12514769D02*
X15646253Y-12533817D01*
X15817682Y-12590960D02*
X15836730Y-12600484D01*
X15836730Y-12600484D02*
X15874825Y-12600484D01*
X15874825Y-12600484D02*
X15893872Y-12590960D01*
X15893872Y-12590960D02*
X15903396Y-12571912D01*
X15903396Y-12571912D02*
X15903396Y-12562388D01*
X15903396Y-12562388D02*
X15893872Y-12543341D01*
X15893872Y-12543341D02*
X15874825Y-12533817D01*
X15874825Y-12533817D02*
X15846253Y-12533817D01*
X15846253Y-12533817D02*
X15827206Y-12524293D01*
X15827206Y-12524293D02*
X15817682Y-12505246D01*
X15817682Y-12505246D02*
X15817682Y-12495722D01*
X15817682Y-12495722D02*
X15827206Y-12476674D01*
X15827206Y-12476674D02*
X15846253Y-12467150D01*
X15846253Y-12467150D02*
X15874825Y-12467150D01*
X15874825Y-12467150D02*
X15893872Y-12476674D01*
X15970063Y-12676674D02*
X15979587Y-12667150D01*
X15979587Y-12667150D02*
X15998634Y-12638579D01*
X15998634Y-12638579D02*
X16008158Y-12619531D01*
X16008158Y-12619531D02*
X16017682Y-12590960D01*
X16017682Y-12590960D02*
X16027206Y-12543341D01*
X16027206Y-12543341D02*
X16027206Y-12505246D01*
X16027206Y-12505246D02*
X16017682Y-12457627D01*
X16017682Y-12457627D02*
X16008158Y-12429055D01*
X16008158Y-12429055D02*
X15998634Y-12410008D01*
X15998634Y-12410008D02*
X15979587Y-12381436D01*
X15979587Y-12381436D02*
X15970063Y-12371912D01*
X16331968Y-12676674D02*
X16322444Y-12667150D01*
X16322444Y-12667150D02*
X16303396Y-12638579D01*
X16303396Y-12638579D02*
X16293872Y-12619531D01*
X16293872Y-12619531D02*
X16284349Y-12590960D01*
X16284349Y-12590960D02*
X16274825Y-12543341D01*
X16274825Y-12543341D02*
X16274825Y-12505246D01*
X16274825Y-12505246D02*
X16284349Y-12457627D01*
X16284349Y-12457627D02*
X16293872Y-12429055D01*
X16293872Y-12429055D02*
X16303396Y-12410008D01*
X16303396Y-12410008D02*
X16322444Y-12381436D01*
X16322444Y-12381436D02*
X16331968Y-12371912D01*
X16408158Y-12467150D02*
X16408158Y-12600484D01*
X16408158Y-12486198D02*
X16417682Y-12476674D01*
X16417682Y-12476674D02*
X16436730Y-12467150D01*
X16436730Y-12467150D02*
X16465301Y-12467150D01*
X16465301Y-12467150D02*
X16484349Y-12476674D01*
X16484349Y-12476674D02*
X16493872Y-12495722D01*
X16493872Y-12495722D02*
X16493872Y-12600484D01*
X16617682Y-12600484D02*
X16598634Y-12590960D01*
X16598634Y-12590960D02*
X16589111Y-12581436D01*
X16589111Y-12581436D02*
X16579587Y-12562388D01*
X16579587Y-12562388D02*
X16579587Y-12505246D01*
X16579587Y-12505246D02*
X16589111Y-12486198D01*
X16589111Y-12486198D02*
X16598634Y-12476674D01*
X16598634Y-12476674D02*
X16617682Y-12467150D01*
X16617682Y-12467150D02*
X16646253Y-12467150D01*
X16646253Y-12467150D02*
X16665301Y-12476674D01*
X16665301Y-12476674D02*
X16674825Y-12486198D01*
X16674825Y-12486198D02*
X16684349Y-12505246D01*
X16684349Y-12505246D02*
X16684349Y-12562388D01*
X16684349Y-12562388D02*
X16674825Y-12581436D01*
X16674825Y-12581436D02*
X16665301Y-12590960D01*
X16665301Y-12590960D02*
X16646253Y-12600484D01*
X16646253Y-12600484D02*
X16617682Y-12600484D01*
X16741492Y-12467150D02*
X16817682Y-12467150D01*
X16770063Y-12400484D02*
X16770063Y-12571912D01*
X16770063Y-12571912D02*
X16779587Y-12590960D01*
X16779587Y-12590960D02*
X16798634Y-12600484D01*
X16798634Y-12600484D02*
X16817682Y-12600484D01*
X17036730Y-12467150D02*
X17036730Y-12667150D01*
X17036730Y-12476674D02*
X17055777Y-12467150D01*
X17055777Y-12467150D02*
X17093873Y-12467150D01*
X17093873Y-12467150D02*
X17112920Y-12476674D01*
X17112920Y-12476674D02*
X17122444Y-12486198D01*
X17122444Y-12486198D02*
X17131968Y-12505246D01*
X17131968Y-12505246D02*
X17131968Y-12562388D01*
X17131968Y-12562388D02*
X17122444Y-12581436D01*
X17122444Y-12581436D02*
X17112920Y-12590960D01*
X17112920Y-12590960D02*
X17093873Y-12600484D01*
X17093873Y-12600484D02*
X17055777Y-12600484D01*
X17055777Y-12600484D02*
X17036730Y-12590960D01*
X17246254Y-12600484D02*
X17227206Y-12590960D01*
X17227206Y-12590960D02*
X17217682Y-12571912D01*
X17217682Y-12571912D02*
X17217682Y-12400484D01*
X17408158Y-12600484D02*
X17408158Y-12495722D01*
X17408158Y-12495722D02*
X17398635Y-12476674D01*
X17398635Y-12476674D02*
X17379587Y-12467150D01*
X17379587Y-12467150D02*
X17341492Y-12467150D01*
X17341492Y-12467150D02*
X17322444Y-12476674D01*
X17408158Y-12590960D02*
X17389111Y-12600484D01*
X17389111Y-12600484D02*
X17341492Y-12600484D01*
X17341492Y-12600484D02*
X17322444Y-12590960D01*
X17322444Y-12590960D02*
X17312920Y-12571912D01*
X17312920Y-12571912D02*
X17312920Y-12552865D01*
X17312920Y-12552865D02*
X17322444Y-12533817D01*
X17322444Y-12533817D02*
X17341492Y-12524293D01*
X17341492Y-12524293D02*
X17389111Y-12524293D01*
X17389111Y-12524293D02*
X17408158Y-12514769D01*
X17474825Y-12467150D02*
X17551015Y-12467150D01*
X17503396Y-12400484D02*
X17503396Y-12571912D01*
X17503396Y-12571912D02*
X17512920Y-12590960D01*
X17512920Y-12590960D02*
X17531968Y-12600484D01*
X17531968Y-12600484D02*
X17551015Y-12600484D01*
X17693873Y-12590960D02*
X17674825Y-12600484D01*
X17674825Y-12600484D02*
X17636730Y-12600484D01*
X17636730Y-12600484D02*
X17617682Y-12590960D01*
X17617682Y-12590960D02*
X17608158Y-12571912D01*
X17608158Y-12571912D02*
X17608158Y-12495722D01*
X17608158Y-12495722D02*
X17617682Y-12476674D01*
X17617682Y-12476674D02*
X17636730Y-12467150D01*
X17636730Y-12467150D02*
X17674825Y-12467150D01*
X17674825Y-12467150D02*
X17693873Y-12476674D01*
X17693873Y-12476674D02*
X17703396Y-12495722D01*
X17703396Y-12495722D02*
X17703396Y-12514769D01*
X17703396Y-12514769D02*
X17608158Y-12533817D01*
X17874825Y-12600484D02*
X17874825Y-12400484D01*
X17874825Y-12590960D02*
X17855777Y-12600484D01*
X17855777Y-12600484D02*
X17817682Y-12600484D01*
X17817682Y-12600484D02*
X17798635Y-12590960D01*
X17798635Y-12590960D02*
X17789111Y-12581436D01*
X17789111Y-12581436D02*
X17779587Y-12562388D01*
X17779587Y-12562388D02*
X17779587Y-12505246D01*
X17779587Y-12505246D02*
X17789111Y-12486198D01*
X17789111Y-12486198D02*
X17798635Y-12476674D01*
X17798635Y-12476674D02*
X17817682Y-12467150D01*
X17817682Y-12467150D02*
X17855777Y-12467150D01*
X17855777Y-12467150D02*
X17874825Y-12476674D01*
X17951016Y-12676674D02*
X17960539Y-12667150D01*
X17960539Y-12667150D02*
X17979587Y-12638579D01*
X17979587Y-12638579D02*
X17989111Y-12619531D01*
X17989111Y-12619531D02*
X17998635Y-12590960D01*
X17998635Y-12590960D02*
X18008158Y-12543341D01*
X18008158Y-12543341D02*
X18008158Y-12505246D01*
X18008158Y-12505246D02*
X17998635Y-12457627D01*
X17998635Y-12457627D02*
X17989111Y-12429055D01*
X17989111Y-12429055D02*
X17979587Y-12410008D01*
X17979587Y-12410008D02*
X17960539Y-12381436D01*
X17960539Y-12381436D02*
X17951016Y-12371912D01*
M02*
