G04 #@! TF.GenerationSoftware,KiCad,Pcbnew,8.0.1*
G04 #@! TF.CreationDate,2024-05-22T20:39:37+03:00*
G04 #@! TF.ProjectId,ESP32-C3_6_pico,45535033-322d-4433-935f-365f7069636f,rev?*
G04 #@! TF.SameCoordinates,Original*
G04 #@! TF.FileFunction,Soldermask,Top*
G04 #@! TF.FilePolarity,Negative*
%FSLAX46Y46*%
G04 Gerber Fmt 4.6, Leading zero omitted, Abs format (unit mm)*
G04 Created by KiCad (PCBNEW 8.0.1) date 2024-05-22 20:39:37*
%MOMM*%
%LPD*%
G01*
G04 APERTURE LIST*
G04 Aperture macros list*
%AMRoundRect*
0 Rectangle with rounded corners*
0 $1 Rounding radius*
0 $2 $3 $4 $5 $6 $7 $8 $9 X,Y pos of 4 corners*
0 Add a 4 corners polygon primitive as box body*
4,1,4,$2,$3,$4,$5,$6,$7,$8,$9,$2,$3,0*
0 Add four circle primitives for the rounded corners*
1,1,$1+$1,$2,$3*
1,1,$1+$1,$4,$5*
1,1,$1+$1,$6,$7*
1,1,$1+$1,$8,$9*
0 Add four rect primitives between the rounded corners*
20,1,$1+$1,$2,$3,$4,$5,0*
20,1,$1+$1,$4,$5,$6,$7,0*
20,1,$1+$1,$6,$7,$8,$9,0*
20,1,$1+$1,$8,$9,$2,$3,0*%
%AMFreePoly0*
4,1,9,1.047500,0.125027,1.047500,-0.724973,-0.402500,-0.724973,-0.402500,0.724973,0.392500,0.724973,0.392500,0.725027,0.402500,0.724973,0.447500,0.725027,1.047500,0.125027,1.047500,0.125027,$1*%
G04 Aperture macros list end*
%ADD10C,0.000000*%
%ADD11RoundRect,0.140000X-0.170000X0.140000X-0.170000X-0.140000X0.170000X-0.140000X0.170000X0.140000X0*%
%ADD12RoundRect,0.135000X-0.135000X-0.185000X0.135000X-0.185000X0.135000X0.185000X-0.135000X0.185000X0*%
%ADD13RoundRect,0.135000X0.135000X0.185000X-0.135000X0.185000X-0.135000X-0.185000X0.135000X-0.185000X0*%
%ADD14RoundRect,0.140000X0.140000X0.170000X-0.140000X0.170000X-0.140000X-0.170000X0.140000X-0.170000X0*%
%ADD15RoundRect,0.135000X-0.185000X0.135000X-0.185000X-0.135000X0.185000X-0.135000X0.185000X0.135000X0*%
%ADD16RoundRect,0.200000X0.200000X0.800000X-0.200000X0.800000X-0.200000X-0.800000X0.200000X-0.800000X0*%
%ADD17RoundRect,0.085000X-0.265000X-0.085000X0.265000X-0.085000X0.265000X0.085000X-0.265000X0.085000X0*%
%ADD18RoundRect,0.135000X0.185000X-0.135000X0.185000X0.135000X-0.185000X0.135000X-0.185000X-0.135000X0*%
%ADD19RoundRect,0.112500X0.237500X-0.112500X0.237500X0.112500X-0.237500X0.112500X-0.237500X-0.112500X0*%
%ADD20RoundRect,0.140000X0.170000X-0.140000X0.170000X0.140000X-0.170000X0.140000X-0.170000X-0.140000X0*%
%ADD21RoundRect,0.112500X0.112500X-0.187500X0.112500X0.187500X-0.112500X0.187500X-0.112500X-0.187500X0*%
%ADD22C,3.200000*%
%ADD23RoundRect,0.140000X-0.140000X-0.170000X0.140000X-0.170000X0.140000X0.170000X-0.140000X0.170000X0*%
%ADD24RoundRect,0.112500X0.187500X0.112500X-0.187500X0.112500X-0.187500X-0.112500X0.187500X-0.112500X0*%
%ADD25RoundRect,0.150000X0.625000X-0.150000X0.625000X0.150000X-0.625000X0.150000X-0.625000X-0.150000X0*%
%ADD26RoundRect,0.250000X0.650000X-0.350000X0.650000X0.350000X-0.650000X0.350000X-0.650000X-0.350000X0*%
%ADD27C,0.600000*%
%ADD28R,0.600000X1.160000*%
%ADD29R,0.300000X1.160000*%
%ADD30O,0.900000X2.000000*%
%ADD31O,0.900000X1.700000*%
%ADD32R,3.400000X0.980000*%
%ADD33R,0.300000X0.500000*%
%ADD34R,0.350000X0.500000*%
%ADD35RoundRect,0.147500X0.172500X-0.147500X0.172500X0.147500X-0.172500X0.147500X-0.172500X-0.147500X0*%
%ADD36RoundRect,0.112500X-0.187500X-0.112500X0.187500X-0.112500X0.187500X0.112500X-0.187500X0.112500X0*%
%ADD37RoundRect,0.112500X-0.112500X0.187500X-0.112500X-0.187500X0.112500X-0.187500X0.112500X0.187500X0*%
%ADD38R,0.800000X0.550000*%
%ADD39R,0.550000X0.800000*%
%ADD40R,0.800000X0.800000*%
%ADD41R,0.500000X0.800000*%
%ADD42RoundRect,0.147500X-0.147500X-0.172500X0.147500X-0.172500X0.147500X0.172500X-0.147500X0.172500X0*%
%ADD43R,0.400000X0.800000*%
%ADD44R,0.800000X0.400000*%
%ADD45R,1.450000X1.450000*%
%ADD46FreePoly0,180.000000*%
%ADD47R,0.700000X0.700000*%
%ADD48RoundRect,0.537500X2.212500X-0.537500X2.212500X0.537500X-2.212500X0.537500X-2.212500X-0.537500X0*%
%ADD49RoundRect,0.087500X0.725000X0.087500X-0.725000X0.087500X-0.725000X-0.087500X0.725000X-0.087500X0*%
%ADD50R,1.100000X0.600000*%
%ADD51RoundRect,0.125000X-0.125000X-0.137500X0.125000X-0.137500X0.125000X0.137500X-0.125000X0.137500X0*%
%ADD52R,1.100000X0.300000*%
%ADD53R,3.100000X2.300000*%
%ADD54R,0.325000X0.300000*%
%ADD55R,0.300000X0.325000*%
G04 APERTURE END LIST*
D10*
G04 #@! TO.C,U11*
G36*
X137735000Y-112239998D02*
G01*
X137735001Y-112239999D01*
X137735001Y-112549999D01*
X137735000Y-113080000D01*
X137200000Y-113080000D01*
X136665000Y-113080000D01*
X136664999Y-112549999D01*
X136665000Y-112019999D01*
X137200000Y-112019999D01*
X137515001Y-112019999D01*
X137735000Y-112239998D01*
G37*
G04 #@! TD*
D11*
G04 #@! TO.C,C31*
X166039999Y-103720000D03*
X166039999Y-104680000D03*
G04 #@! TD*
D12*
G04 #@! TO.C,R5*
X138790001Y-96640000D03*
X139809999Y-96640000D03*
G04 #@! TD*
D13*
G04 #@! TO.C,R26*
X171359999Y-102800000D03*
X170340001Y-102800000D03*
G04 #@! TD*
D14*
G04 #@! TO.C,C44*
X171080000Y-92310000D03*
X170120000Y-92310000D03*
G04 #@! TD*
D15*
G04 #@! TO.C,R18*
X161250000Y-92310001D03*
X161250000Y-93329999D03*
G04 #@! TD*
D16*
G04 #@! TO.C,SW2*
X129625000Y-110425000D03*
X125425000Y-110425000D03*
G04 #@! TD*
D17*
G04 #@! TO.C,U3*
X146560000Y-92207502D03*
X146560000Y-92707501D03*
X146560000Y-93207500D03*
X148060000Y-93207500D03*
X148060000Y-92707501D03*
X148060000Y-92207502D03*
G04 #@! TD*
D18*
G04 #@! TO.C,R14*
X140825000Y-95254999D03*
X140825000Y-94235001D03*
G04 #@! TD*
D19*
G04 #@! TO.C,Q1*
X170100000Y-107150000D03*
X170100000Y-105850000D03*
X168100000Y-106500000D03*
G04 #@! TD*
D11*
G04 #@! TO.C,C19*
X143660001Y-94239999D03*
X143660001Y-95199999D03*
G04 #@! TD*
G04 #@! TO.C,C34*
X163280000Y-103720000D03*
X163280000Y-104680000D03*
G04 #@! TD*
D13*
G04 #@! TO.C,R17*
X157209999Y-87600000D03*
X156190001Y-87600000D03*
G04 #@! TD*
D20*
G04 #@! TO.C,C17*
X144580001Y-93380000D03*
X144580001Y-92420000D03*
G04 #@! TD*
D21*
G04 #@! TO.C,D8*
X165400000Y-94540000D03*
X165400000Y-92440000D03*
G04 #@! TD*
D11*
G04 #@! TO.C,C55*
X134900000Y-112970000D03*
X134900000Y-113930000D03*
G04 #@! TD*
D14*
G04 #@! TO.C,C41*
X171080000Y-95080000D03*
X170120000Y-95080000D03*
G04 #@! TD*
D13*
G04 #@! TO.C,R9*
X130839999Y-99830001D03*
X129820001Y-99830001D03*
G04 #@! TD*
D22*
G04 #@! TO.C,H4*
X184000000Y-88000000D03*
G04 #@! TD*
D23*
G04 #@! TO.C,C1*
X125220000Y-91550000D03*
X126180000Y-91550000D03*
G04 #@! TD*
D14*
G04 #@! TO.C,C7*
X121200000Y-109140000D03*
X120240000Y-109140000D03*
G04 #@! TD*
D24*
G04 #@! TO.C,D5*
X169125000Y-95125000D03*
X167025000Y-95125000D03*
G04 #@! TD*
D11*
G04 #@! TO.C,C22*
X146420000Y-94239999D03*
X146420000Y-95199999D03*
G04 #@! TD*
G04 #@! TO.C,C29*
X162360001Y-112120000D03*
X162360001Y-113080000D03*
G04 #@! TD*
G04 #@! TO.C,C26*
X165120000Y-112120000D03*
X165120000Y-113080000D03*
G04 #@! TD*
D14*
G04 #@! TO.C,C40*
X171080000Y-96000000D03*
X170120000Y-96000000D03*
G04 #@! TD*
D12*
G04 #@! TO.C,R13*
X146380000Y-91130000D03*
X147400000Y-91130000D03*
G04 #@! TD*
D18*
G04 #@! TO.C,R10*
X130000000Y-104809999D03*
X130000000Y-103790001D03*
G04 #@! TD*
D25*
G04 #@! TO.C,J2*
X138600000Y-108000000D03*
X138600000Y-107000000D03*
X138600000Y-106000000D03*
X138600000Y-105000000D03*
D26*
X142475000Y-109300000D03*
X142475000Y-103700000D03*
G04 #@! TD*
D27*
G04 #@! TO.C,U5*
X165890001Y-89750000D03*
X160110001Y-89750000D03*
D28*
X166200001Y-90810000D03*
X165400001Y-90810000D03*
D29*
X164250000Y-90810000D03*
X163250001Y-90810000D03*
X162750001Y-90810000D03*
X161750002Y-90810000D03*
D28*
X160600001Y-90810000D03*
X159800001Y-90810000D03*
X159800001Y-90810000D03*
X160600001Y-90810000D03*
D29*
X161250001Y-90810000D03*
X162250001Y-90810000D03*
X163750001Y-90810000D03*
X164750001Y-90810000D03*
D28*
X165400001Y-90810000D03*
X166200001Y-90810000D03*
D30*
X167320001Y-90230000D03*
D31*
X167320001Y-86060000D03*
D30*
X158680001Y-90230000D03*
D31*
X158680001Y-86060000D03*
G04 #@! TD*
D14*
G04 #@! TO.C,C43*
X171080000Y-93240001D03*
X170120000Y-93240001D03*
G04 #@! TD*
D22*
G04 #@! TO.C,H1*
X116000000Y-88000000D03*
G04 #@! TD*
D11*
G04 #@! TO.C,C20*
X148260000Y-94240000D03*
X148260000Y-95200000D03*
G04 #@! TD*
D32*
G04 #@! TO.C,L1*
X150980000Y-92184999D03*
X150980000Y-94555001D03*
G04 #@! TD*
D15*
G04 #@! TO.C,R29*
X139925000Y-112415001D03*
X139925000Y-113434999D03*
G04 #@! TD*
D23*
G04 #@! TO.C,C57*
X151720000Y-104900000D03*
X152680000Y-104900000D03*
G04 #@! TD*
D15*
G04 #@! TO.C,R31*
X133950000Y-111090001D03*
X133950000Y-112109999D03*
G04 #@! TD*
D11*
G04 #@! TO.C,C54*
X144225000Y-113920000D03*
X144225000Y-114880000D03*
G04 #@! TD*
D20*
G04 #@! TO.C,C4*
X140900000Y-93380000D03*
X140900000Y-92420000D03*
G04 #@! TD*
D14*
G04 #@! TO.C,C5*
X165800000Y-95550000D03*
X164840000Y-95550000D03*
G04 #@! TD*
D11*
G04 #@! TO.C,C28*
X163280000Y-112120000D03*
X163280000Y-113080000D03*
G04 #@! TD*
D14*
G04 #@! TO.C,C35*
X171330000Y-104700000D03*
X170370000Y-104700000D03*
G04 #@! TD*
D33*
G04 #@! TO.C,U7*
X157050000Y-112400000D03*
X156250000Y-112400000D03*
X156250000Y-113800000D03*
X157050000Y-113800000D03*
G04 #@! TD*
D13*
G04 #@! TO.C,R6*
X130859999Y-96700000D03*
X129840001Y-96700000D03*
G04 #@! TD*
D34*
G04 #@! TO.C,U8*
X157650001Y-107400000D03*
X157000000Y-107400000D03*
X156350000Y-107400000D03*
X155699999Y-107400000D03*
X155699999Y-105800000D03*
X156350000Y-105800000D03*
X157000000Y-105800000D03*
X157650001Y-105800000D03*
G04 #@! TD*
D35*
G04 #@! TO.C,FB1*
X142725000Y-95230000D03*
X142725000Y-94260000D03*
G04 #@! TD*
D14*
G04 #@! TO.C,C37*
X171080000Y-98760000D03*
X170120000Y-98760000D03*
G04 #@! TD*
D20*
G04 #@! TO.C,C18*
X145500000Y-93380000D03*
X145500000Y-92420000D03*
G04 #@! TD*
D36*
G04 #@! TO.C,D6*
X167025000Y-93225000D03*
X169125000Y-93225000D03*
G04 #@! TD*
D12*
G04 #@! TO.C,R35*
X133915001Y-110200000D03*
X134934999Y-110200000D03*
G04 #@! TD*
D23*
G04 #@! TO.C,C49*
X156170000Y-114800001D03*
X157130000Y-114800001D03*
G04 #@! TD*
D15*
G04 #@! TO.C,R33*
X154625000Y-105740001D03*
X154625000Y-106759999D03*
G04 #@! TD*
D14*
G04 #@! TO.C,C6*
X121200000Y-108220000D03*
X120240000Y-108220000D03*
G04 #@! TD*
D11*
G04 #@! TO.C,C13*
X132735000Y-103810000D03*
X132735000Y-104770000D03*
G04 #@! TD*
D15*
G04 #@! TO.C,R30*
X134900000Y-111090001D03*
X134900000Y-112109999D03*
G04 #@! TD*
G04 #@! TO.C,R15*
X171300000Y-107450001D03*
X171300000Y-108469999D03*
G04 #@! TD*
D37*
G04 #@! TO.C,D7*
X167500000Y-102450000D03*
X167500000Y-104550000D03*
G04 #@! TD*
D11*
G04 #@! TO.C,C32*
X165120000Y-103720000D03*
X165120000Y-104680000D03*
G04 #@! TD*
D14*
G04 #@! TO.C,C53*
X143030000Y-114850000D03*
X142070000Y-114850000D03*
G04 #@! TD*
D38*
G04 #@! TO.C,U11*
X138300000Y-111325000D03*
X137200000Y-111325000D03*
X136100000Y-111325000D03*
D39*
X135975000Y-112550000D03*
D38*
X136100000Y-113775000D03*
X137200000Y-113775000D03*
X138300000Y-113775000D03*
D39*
X138425000Y-112550000D03*
D40*
X137200000Y-112550000D03*
G04 #@! TD*
D23*
G04 #@! TO.C,C8*
X125220000Y-107300000D03*
X126180000Y-107300000D03*
G04 #@! TD*
D20*
G04 #@! TO.C,C14*
X141820000Y-93380000D03*
X141820000Y-92420000D03*
G04 #@! TD*
D15*
G04 #@! TO.C,R3*
X137975000Y-92315001D03*
X137975000Y-93334999D03*
G04 #@! TD*
D14*
G04 #@! TO.C,C11*
X121200000Y-107300000D03*
X120240000Y-107300000D03*
G04 #@! TD*
D41*
G04 #@! TO.C,U2*
X149950000Y-107200000D03*
X150850000Y-107200000D03*
X151750000Y-107200000D03*
X152650000Y-107200000D03*
X152650000Y-106000000D03*
X151750000Y-106000000D03*
X150850000Y-106000000D03*
X149950000Y-106000000D03*
G04 #@! TD*
D14*
G04 #@! TO.C,C39*
X171080000Y-96920000D03*
X170120000Y-96920000D03*
G04 #@! TD*
D11*
G04 #@! TO.C,C27*
X164200000Y-112120000D03*
X164200000Y-113080000D03*
G04 #@! TD*
G04 #@! TO.C,C24*
X144580000Y-94240000D03*
X144580000Y-95200000D03*
G04 #@! TD*
D21*
G04 #@! TO.C,D2*
X139400000Y-94550000D03*
X139400000Y-92450000D03*
G04 #@! TD*
D14*
G04 #@! TO.C,C56*
X138580000Y-114850000D03*
X137620000Y-114850000D03*
G04 #@! TD*
D15*
G04 #@! TO.C,R19*
X163980000Y-92310001D03*
X163980000Y-93329999D03*
G04 #@! TD*
D42*
G04 #@! TO.C,D3*
X138815000Y-95700000D03*
X139785000Y-95700000D03*
G04 #@! TD*
D20*
G04 #@! TO.C,C16*
X143660000Y-93380000D03*
X143660000Y-92420000D03*
G04 #@! TD*
D13*
G04 #@! TO.C,R8*
X130839999Y-100770000D03*
X129820001Y-100770000D03*
G04 #@! TD*
D12*
G04 #@! TO.C,R22*
X154830000Y-91100000D03*
X155850000Y-91100000D03*
G04 #@! TD*
D23*
G04 #@! TO.C,C47*
X156345000Y-104825000D03*
X157305000Y-104825000D03*
G04 #@! TD*
D13*
G04 #@! TO.C,R1*
X152597499Y-114827500D03*
X151577501Y-114827500D03*
G04 #@! TD*
D14*
G04 #@! TO.C,C52*
X150697500Y-114817500D03*
X149737500Y-114817500D03*
G04 #@! TD*
D15*
G04 #@! TO.C,R4*
X135250000Y-92315001D03*
X135250000Y-93334999D03*
G04 #@! TD*
D43*
G04 #@! TO.C,U1*
X119600000Y-105800000D03*
X120400000Y-105800000D03*
X121200000Y-105800000D03*
X122000000Y-105800000D03*
X122800001Y-105800000D03*
X123600000Y-105800000D03*
X124399999Y-105800000D03*
X125200000Y-105800000D03*
X126000000Y-105800000D03*
X126800000Y-105800000D03*
X127600000Y-105800000D03*
D44*
X128500000Y-104700000D03*
X128500000Y-103900000D03*
X128500000Y-103100000D03*
X128500000Y-102300000D03*
X128500000Y-101500000D03*
X128500000Y-100700000D03*
X128500000Y-99900000D03*
X128500000Y-99100000D03*
X128500000Y-98300000D03*
X128500000Y-97500000D03*
X128500000Y-96700000D03*
X128500000Y-95900000D03*
X128500000Y-95100000D03*
D43*
X127600000Y-94000000D03*
X126800000Y-94000000D03*
X126000000Y-94000000D03*
X125200000Y-94000000D03*
X124399999Y-94000000D03*
X123600000Y-94000000D03*
X122800001Y-94000000D03*
X122000000Y-94000000D03*
X121200000Y-94000000D03*
X120400000Y-94000000D03*
X119600000Y-94000000D03*
D44*
X118700000Y-95100000D03*
X118700000Y-95900000D03*
X118700000Y-96700000D03*
X118700000Y-97500000D03*
X118700000Y-98300000D03*
X118700000Y-99100000D03*
X118700000Y-99900000D03*
X118700000Y-100700000D03*
X118700000Y-101500000D03*
X118700000Y-102300000D03*
X118700000Y-103100000D03*
X118700000Y-103900000D03*
X118700000Y-104700000D03*
D45*
X123600000Y-101675001D03*
X125375000Y-101675000D03*
D46*
X122147500Y-101674973D03*
D45*
X121824999Y-99900000D03*
X123600000Y-99900000D03*
X125375001Y-99900000D03*
X121825000Y-98125000D03*
X125375000Y-98125000D03*
X123600000Y-98124999D03*
D47*
X118650000Y-93950000D03*
X128550000Y-93950000D03*
X128550000Y-105850000D03*
X118650000Y-105850000D03*
G04 #@! TD*
D48*
G04 #@! TO.C,L2*
X164200000Y-110325001D03*
X164200000Y-106474999D03*
G04 #@! TD*
D49*
G04 #@! TO.C,U6*
X159712500Y-95259999D03*
X159712500Y-94759998D03*
X159712500Y-94259999D03*
X159712500Y-93760000D03*
X159712500Y-93259999D03*
X155487500Y-93259999D03*
X155487500Y-93760000D03*
X155487500Y-94259999D03*
X155487500Y-94759998D03*
X155487500Y-95259999D03*
G04 #@! TD*
D50*
G04 #@! TO.C,Y1*
X131375000Y-105375000D03*
X131375000Y-103975000D03*
G04 #@! TD*
D23*
G04 #@! TO.C,C48*
X154870000Y-96475000D03*
X155830000Y-96475000D03*
G04 #@! TD*
D13*
G04 #@! TO.C,R12*
X147399999Y-90190000D03*
X146380001Y-90190000D03*
G04 #@! TD*
D18*
G04 #@! TO.C,R23*
X123660000Y-92669999D03*
X123660000Y-91650001D03*
G04 #@! TD*
D20*
G04 #@! TO.C,C15*
X142740000Y-93380000D03*
X142740000Y-92420000D03*
G04 #@! TD*
D51*
G04 #@! TO.C,U12*
X149100000Y-111412500D03*
X149900000Y-111412500D03*
X150700000Y-111412500D03*
X151500000Y-111412500D03*
X151500000Y-113787500D03*
X150700000Y-113787500D03*
X149900000Y-113787500D03*
X149100000Y-113787500D03*
G04 #@! TD*
D18*
G04 #@! TO.C,R27*
X152547500Y-113917499D03*
X152547500Y-112897501D03*
G04 #@! TD*
D11*
G04 #@! TO.C,C21*
X147339999Y-94240000D03*
X147339999Y-95200000D03*
G04 #@! TD*
D35*
G04 #@! TO.C,D4*
X141775000Y-95230000D03*
X141775000Y-94260000D03*
G04 #@! TD*
D14*
G04 #@! TO.C,C36*
X171330000Y-103750000D03*
X170370000Y-103750000D03*
G04 #@! TD*
D52*
G04 #@! TO.C,U4*
X173425000Y-105750000D03*
X173425000Y-105250000D03*
X173425000Y-104750000D03*
X173425000Y-104250000D03*
X173425000Y-103750000D03*
X173425000Y-103250000D03*
X173425000Y-102750000D03*
X173425000Y-102250000D03*
X173425000Y-101750000D03*
X173425000Y-101250000D03*
X173425000Y-100750000D03*
X173425000Y-100250000D03*
X173425000Y-99750000D03*
X173425000Y-99250000D03*
X173425000Y-98750000D03*
X173425000Y-98250000D03*
X173425000Y-97750000D03*
X173425000Y-97250000D03*
X173425000Y-96750000D03*
X173425000Y-96250000D03*
X173425000Y-95750000D03*
X173425000Y-95250000D03*
X173425000Y-94750000D03*
X173425000Y-94250000D03*
D53*
X175125000Y-107420000D03*
X175125000Y-92580000D03*
G04 #@! TD*
D12*
G04 #@! TO.C,R34*
X133915001Y-109250000D03*
X134934999Y-109250000D03*
G04 #@! TD*
D42*
G04 #@! TO.C,D9*
X154855000Y-92040000D03*
X155825000Y-92040000D03*
G04 #@! TD*
D23*
G04 #@! TO.C,C10*
X167020000Y-101375000D03*
X167980000Y-101375000D03*
G04 #@! TD*
D14*
G04 #@! TO.C,C42*
X171080000Y-94160000D03*
X170120000Y-94160000D03*
G04 #@! TD*
D22*
G04 #@! TO.C,H3*
X184000000Y-112000000D03*
G04 #@! TD*
D16*
G04 #@! TO.C,SW1*
X129625000Y-89375000D03*
X125425000Y-89375000D03*
G04 #@! TD*
D11*
G04 #@! TO.C,C23*
X145500000Y-94240000D03*
X145500000Y-95200000D03*
G04 #@! TD*
D20*
G04 #@! TO.C,C51*
X148067500Y-113922500D03*
X148067500Y-112962500D03*
G04 #@! TD*
D12*
G04 #@! TO.C,R2*
X142790000Y-87600000D03*
X143810000Y-87600000D03*
G04 #@! TD*
D13*
G04 #@! TO.C,R11*
X130984999Y-102900000D03*
X129965001Y-102900000D03*
G04 #@! TD*
D15*
G04 #@! TO.C,R32*
X153675000Y-105740001D03*
X153675000Y-106759999D03*
G04 #@! TD*
D20*
G04 #@! TO.C,C50*
X153950000Y-93905000D03*
X153950000Y-92945000D03*
G04 #@! TD*
D11*
G04 #@! TO.C,C25*
X166039999Y-112120000D03*
X166039999Y-113080000D03*
G04 #@! TD*
D13*
G04 #@! TO.C,R21*
X162219999Y-95539999D03*
X161200001Y-95539999D03*
G04 #@! TD*
D14*
G04 #@! TO.C,C45*
X157180000Y-86600000D03*
X156220000Y-86600000D03*
G04 #@! TD*
D11*
G04 #@! TO.C,C46*
X158700000Y-105745000D03*
X158700000Y-106705000D03*
G04 #@! TD*
D54*
G04 #@! TO.C,U10*
X143300000Y-113425000D03*
X143300000Y-112925000D03*
D55*
X143050000Y-112400000D03*
X142550000Y-112400000D03*
X142050000Y-112400000D03*
D54*
X141800000Y-112925000D03*
X141800000Y-113425000D03*
D55*
X142050000Y-113950000D03*
X142550000Y-113950000D03*
X143050000Y-113950000D03*
G04 #@! TD*
D23*
G04 #@! TO.C,C2*
X125220000Y-108220000D03*
X126180000Y-108220000D03*
G04 #@! TD*
D11*
G04 #@! TO.C,C12*
X130015000Y-105660000D03*
X130015000Y-106620000D03*
G04 #@! TD*
D23*
G04 #@! TO.C,C3*
X142820000Y-86600000D03*
X143780000Y-86600000D03*
G04 #@! TD*
D14*
G04 #@! TO.C,C38*
X171080000Y-97840000D03*
X170120000Y-97840000D03*
G04 #@! TD*
D11*
G04 #@! TO.C,C30*
X162360001Y-103720000D03*
X162360001Y-104680000D03*
G04 #@! TD*
D15*
G04 #@! TO.C,R28*
X140874999Y-112415001D03*
X140874999Y-113434999D03*
G04 #@! TD*
D13*
G04 #@! TO.C,R20*
X162219999Y-94600000D03*
X161200001Y-94600000D03*
G04 #@! TD*
D18*
G04 #@! TO.C,R24*
X122720000Y-92669999D03*
X122720000Y-91650001D03*
G04 #@! TD*
D22*
G04 #@! TO.C,H2*
X116000000Y-112000000D03*
G04 #@! TD*
D11*
G04 #@! TO.C,C33*
X164200000Y-103720000D03*
X164200000Y-104680000D03*
G04 #@! TD*
D14*
G04 #@! TO.C,C9*
X171080000Y-99680000D03*
X170120000Y-99680000D03*
G04 #@! TD*
D27*
G04 #@! TO.C,J1*
X139890000Y-89750000D03*
X134110000Y-89750000D03*
D28*
X140200000Y-90810000D03*
X139400000Y-90810000D03*
D29*
X138249999Y-90810000D03*
X137250000Y-90810000D03*
X136750000Y-90810000D03*
X135750001Y-90810000D03*
D28*
X134600000Y-90810000D03*
X133800000Y-90810000D03*
X133800000Y-90810000D03*
X134600000Y-90810000D03*
D29*
X135250000Y-90810000D03*
X136250000Y-90810000D03*
X137750000Y-90810000D03*
X138750000Y-90810000D03*
D28*
X139400000Y-90810000D03*
X140200000Y-90810000D03*
D30*
X141320000Y-90230000D03*
D31*
X141320000Y-86060000D03*
D30*
X132680000Y-90230000D03*
D31*
X132680000Y-86060000D03*
G04 #@! TD*
D15*
G04 #@! TO.C,R16*
X171300000Y-105590001D03*
X171300000Y-106609999D03*
G04 #@! TD*
D18*
G04 #@! TO.C,R7*
X124320000Y-108279999D03*
X124320000Y-107260001D03*
G04 #@! TD*
D12*
G04 #@! TO.C,R25*
X170340000Y-101860000D03*
X171360000Y-101860000D03*
G04 #@! TD*
M02*
