G04 #@! TF.GenerationSoftware,KiCad,Pcbnew,8.0.1*
G04 #@! TF.CreationDate,2024-05-22T20:39:38+03:00*
G04 #@! TF.ProjectId,ESP32-C3_6_pico,45535033-322d-4433-935f-365f7069636f,rev?*
G04 #@! TF.SameCoordinates,Original*
G04 #@! TF.FileFunction,AssemblyDrawing,Bot*
%FSLAX46Y46*%
G04 Gerber Fmt 4.6, Leading zero omitted, Abs format (unit mm)*
G04 Created by KiCad (PCBNEW 8.0.1) date 2024-05-22 20:39:38*
%MOMM*%
%LPD*%
G01*
G04 APERTURE LIST*
%ADD10C,0.150000*%
%ADD11C,0.100000*%
G04 APERTURE END LIST*
D10*
X163595238Y-115931009D02*
X163261905Y-115931009D01*
X163119048Y-116454819D02*
X163595238Y-116454819D01*
X163595238Y-116454819D02*
X163595238Y-115454819D01*
X163595238Y-115454819D02*
X163119048Y-115454819D01*
X162690476Y-116073866D02*
X161928572Y-116073866D01*
X161452381Y-116454819D02*
X161452381Y-115454819D01*
X161452381Y-115454819D02*
X161071429Y-115454819D01*
X161071429Y-115454819D02*
X160976191Y-115502438D01*
X160976191Y-115502438D02*
X160928572Y-115550057D01*
X160928572Y-115550057D02*
X160880953Y-115645295D01*
X160880953Y-115645295D02*
X160880953Y-115788152D01*
X160880953Y-115788152D02*
X160928572Y-115883390D01*
X160928572Y-115883390D02*
X160976191Y-115931009D01*
X160976191Y-115931009D02*
X161071429Y-115978628D01*
X161071429Y-115978628D02*
X161452381Y-115978628D01*
X160500000Y-116169104D02*
X160023810Y-116169104D01*
X160595238Y-116454819D02*
X160261905Y-115454819D01*
X160261905Y-115454819D02*
X159928572Y-116454819D01*
X159595238Y-116454819D02*
X159595238Y-115454819D01*
X159595238Y-115454819D02*
X159214286Y-115454819D01*
X159214286Y-115454819D02*
X159119048Y-115502438D01*
X159119048Y-115502438D02*
X159071429Y-115550057D01*
X159071429Y-115550057D02*
X159023810Y-115645295D01*
X159023810Y-115645295D02*
X159023810Y-115788152D01*
X159023810Y-115788152D02*
X159071429Y-115883390D01*
X159071429Y-115883390D02*
X159119048Y-115931009D01*
X159119048Y-115931009D02*
X159214286Y-115978628D01*
X159214286Y-115978628D02*
X159595238Y-115978628D01*
X158595238Y-115931009D02*
X158261905Y-115931009D01*
X158119048Y-116454819D02*
X158595238Y-116454819D01*
X158595238Y-116454819D02*
X158595238Y-115454819D01*
X158595238Y-115454819D02*
X158119048Y-115454819D01*
X157119048Y-116454819D02*
X157452381Y-115978628D01*
X157690476Y-116454819D02*
X157690476Y-115454819D01*
X157690476Y-115454819D02*
X157309524Y-115454819D01*
X157309524Y-115454819D02*
X157214286Y-115502438D01*
X157214286Y-115502438D02*
X157166667Y-115550057D01*
X157166667Y-115550057D02*
X157119048Y-115645295D01*
X157119048Y-115645295D02*
X157119048Y-115788152D01*
X157119048Y-115788152D02*
X157166667Y-115883390D01*
X157166667Y-115883390D02*
X157214286Y-115931009D01*
X157214286Y-115931009D02*
X157309524Y-115978628D01*
X157309524Y-115978628D02*
X157690476Y-115978628D01*
X156928572Y-116550057D02*
X156166667Y-116550057D01*
X155976190Y-115550057D02*
X155928571Y-115502438D01*
X155928571Y-115502438D02*
X155833333Y-115454819D01*
X155833333Y-115454819D02*
X155595238Y-115454819D01*
X155595238Y-115454819D02*
X155500000Y-115502438D01*
X155500000Y-115502438D02*
X155452381Y-115550057D01*
X155452381Y-115550057D02*
X155404762Y-115645295D01*
X155404762Y-115645295D02*
X155404762Y-115740533D01*
X155404762Y-115740533D02*
X155452381Y-115883390D01*
X155452381Y-115883390D02*
X156023809Y-116454819D01*
X156023809Y-116454819D02*
X155404762Y-116454819D01*
X154976190Y-116359580D02*
X154928571Y-116407200D01*
X154928571Y-116407200D02*
X154976190Y-116454819D01*
X154976190Y-116454819D02*
X155023809Y-116407200D01*
X155023809Y-116407200D02*
X154976190Y-116359580D01*
X154976190Y-116359580D02*
X154976190Y-116454819D01*
X153976191Y-116454819D02*
X154547619Y-116454819D01*
X154261905Y-116454819D02*
X154261905Y-115454819D01*
X154261905Y-115454819D02*
X154357143Y-115597676D01*
X154357143Y-115597676D02*
X154452381Y-115692914D01*
X154452381Y-115692914D02*
X154547619Y-115740533D01*
X153642857Y-115454819D02*
X153023810Y-115454819D01*
X153023810Y-115454819D02*
X153357143Y-115835771D01*
X153357143Y-115835771D02*
X153214286Y-115835771D01*
X153214286Y-115835771D02*
X153119048Y-115883390D01*
X153119048Y-115883390D02*
X153071429Y-115931009D01*
X153071429Y-115931009D02*
X153023810Y-116026247D01*
X153023810Y-116026247D02*
X153023810Y-116264342D01*
X153023810Y-116264342D02*
X153071429Y-116359580D01*
X153071429Y-116359580D02*
X153119048Y-116407200D01*
X153119048Y-116407200D02*
X153214286Y-116454819D01*
X153214286Y-116454819D02*
X153500000Y-116454819D01*
X153500000Y-116454819D02*
X153595238Y-116407200D01*
X153595238Y-116407200D02*
X153642857Y-116359580D01*
X152833334Y-116550057D02*
X152071429Y-116550057D01*
X151309524Y-116454819D02*
X151880952Y-116454819D01*
X151595238Y-116454819D02*
X151595238Y-115454819D01*
X151595238Y-115454819D02*
X151690476Y-115597676D01*
X151690476Y-115597676D02*
X151785714Y-115692914D01*
X151785714Y-115692914D02*
X151880952Y-115740533D01*
X150928571Y-115550057D02*
X150880952Y-115502438D01*
X150880952Y-115502438D02*
X150785714Y-115454819D01*
X150785714Y-115454819D02*
X150547619Y-115454819D01*
X150547619Y-115454819D02*
X150452381Y-115502438D01*
X150452381Y-115502438D02*
X150404762Y-115550057D01*
X150404762Y-115550057D02*
X150357143Y-115645295D01*
X150357143Y-115645295D02*
X150357143Y-115740533D01*
X150357143Y-115740533D02*
X150404762Y-115883390D01*
X150404762Y-115883390D02*
X150976190Y-116454819D01*
X150976190Y-116454819D02*
X150357143Y-116454819D01*
X149976190Y-115550057D02*
X149928571Y-115502438D01*
X149928571Y-115502438D02*
X149833333Y-115454819D01*
X149833333Y-115454819D02*
X149595238Y-115454819D01*
X149595238Y-115454819D02*
X149500000Y-115502438D01*
X149500000Y-115502438D02*
X149452381Y-115550057D01*
X149452381Y-115550057D02*
X149404762Y-115645295D01*
X149404762Y-115645295D02*
X149404762Y-115740533D01*
X149404762Y-115740533D02*
X149452381Y-115883390D01*
X149452381Y-115883390D02*
X150023809Y-116454819D01*
X150023809Y-116454819D02*
X149404762Y-116454819D01*
X149071428Y-116454819D02*
X148547619Y-115788152D01*
X149071428Y-115788152D02*
X148547619Y-116454819D01*
X148214285Y-115550057D02*
X148166666Y-115502438D01*
X148166666Y-115502438D02*
X148071428Y-115454819D01*
X148071428Y-115454819D02*
X147833333Y-115454819D01*
X147833333Y-115454819D02*
X147738095Y-115502438D01*
X147738095Y-115502438D02*
X147690476Y-115550057D01*
X147690476Y-115550057D02*
X147642857Y-115645295D01*
X147642857Y-115645295D02*
X147642857Y-115740533D01*
X147642857Y-115740533D02*
X147690476Y-115883390D01*
X147690476Y-115883390D02*
X148261904Y-116454819D01*
X148261904Y-116454819D02*
X147642857Y-116454819D01*
X146738095Y-115454819D02*
X147214285Y-115454819D01*
X147214285Y-115454819D02*
X147261904Y-115931009D01*
X147261904Y-115931009D02*
X147214285Y-115883390D01*
X147214285Y-115883390D02*
X147119047Y-115835771D01*
X147119047Y-115835771D02*
X146880952Y-115835771D01*
X146880952Y-115835771D02*
X146785714Y-115883390D01*
X146785714Y-115883390D02*
X146738095Y-115931009D01*
X146738095Y-115931009D02*
X146690476Y-116026247D01*
X146690476Y-116026247D02*
X146690476Y-116264342D01*
X146690476Y-116264342D02*
X146738095Y-116359580D01*
X146738095Y-116359580D02*
X146785714Y-116407200D01*
X146785714Y-116407200D02*
X146880952Y-116454819D01*
X146880952Y-116454819D02*
X147119047Y-116454819D01*
X147119047Y-116454819D02*
X147214285Y-116407200D01*
X147214285Y-116407200D02*
X147261904Y-116359580D01*
X146071428Y-115454819D02*
X145976190Y-115454819D01*
X145976190Y-115454819D02*
X145880952Y-115502438D01*
X145880952Y-115502438D02*
X145833333Y-115550057D01*
X145833333Y-115550057D02*
X145785714Y-115645295D01*
X145785714Y-115645295D02*
X145738095Y-115835771D01*
X145738095Y-115835771D02*
X145738095Y-116073866D01*
X145738095Y-116073866D02*
X145785714Y-116264342D01*
X145785714Y-116264342D02*
X145833333Y-116359580D01*
X145833333Y-116359580D02*
X145880952Y-116407200D01*
X145880952Y-116407200D02*
X145976190Y-116454819D01*
X145976190Y-116454819D02*
X146071428Y-116454819D01*
X146071428Y-116454819D02*
X146166666Y-116407200D01*
X146166666Y-116407200D02*
X146214285Y-116359580D01*
X146214285Y-116359580D02*
X146261904Y-116264342D01*
X146261904Y-116264342D02*
X146309523Y-116073866D01*
X146309523Y-116073866D02*
X146309523Y-115835771D01*
X146309523Y-115835771D02*
X146261904Y-115645295D01*
X146261904Y-115645295D02*
X146214285Y-115550057D01*
X146214285Y-115550057D02*
X146166666Y-115502438D01*
X146166666Y-115502438D02*
X146071428Y-115454819D01*
X145547619Y-116550057D02*
X144785714Y-116550057D01*
X144595237Y-116407200D02*
X144452380Y-116454819D01*
X144452380Y-116454819D02*
X144214285Y-116454819D01*
X144214285Y-116454819D02*
X144119047Y-116407200D01*
X144119047Y-116407200D02*
X144071428Y-116359580D01*
X144071428Y-116359580D02*
X144023809Y-116264342D01*
X144023809Y-116264342D02*
X144023809Y-116169104D01*
X144023809Y-116169104D02*
X144071428Y-116073866D01*
X144071428Y-116073866D02*
X144119047Y-116026247D01*
X144119047Y-116026247D02*
X144214285Y-115978628D01*
X144214285Y-115978628D02*
X144404761Y-115931009D01*
X144404761Y-115931009D02*
X144499999Y-115883390D01*
X144499999Y-115883390D02*
X144547618Y-115835771D01*
X144547618Y-115835771D02*
X144595237Y-115740533D01*
X144595237Y-115740533D02*
X144595237Y-115645295D01*
X144595237Y-115645295D02*
X144547618Y-115550057D01*
X144547618Y-115550057D02*
X144499999Y-115502438D01*
X144499999Y-115502438D02*
X144404761Y-115454819D01*
X144404761Y-115454819D02*
X144166666Y-115454819D01*
X144166666Y-115454819D02*
X144023809Y-115502438D01*
X143642856Y-116407200D02*
X143499999Y-116454819D01*
X143499999Y-116454819D02*
X143261904Y-116454819D01*
X143261904Y-116454819D02*
X143166666Y-116407200D01*
X143166666Y-116407200D02*
X143119047Y-116359580D01*
X143119047Y-116359580D02*
X143071428Y-116264342D01*
X143071428Y-116264342D02*
X143071428Y-116169104D01*
X143071428Y-116169104D02*
X143119047Y-116073866D01*
X143119047Y-116073866D02*
X143166666Y-116026247D01*
X143166666Y-116026247D02*
X143261904Y-115978628D01*
X143261904Y-115978628D02*
X143452380Y-115931009D01*
X143452380Y-115931009D02*
X143547618Y-115883390D01*
X143547618Y-115883390D02*
X143595237Y-115835771D01*
X143595237Y-115835771D02*
X143642856Y-115740533D01*
X143642856Y-115740533D02*
X143642856Y-115645295D01*
X143642856Y-115645295D02*
X143595237Y-115550057D01*
X143595237Y-115550057D02*
X143547618Y-115502438D01*
X143547618Y-115502438D02*
X143452380Y-115454819D01*
X143452380Y-115454819D02*
X143214285Y-115454819D01*
X143214285Y-115454819D02*
X143071428Y-115502438D01*
X142642856Y-116454819D02*
X142642856Y-115454819D01*
X142642856Y-115454819D02*
X142404761Y-115454819D01*
X142404761Y-115454819D02*
X142261904Y-115502438D01*
X142261904Y-115502438D02*
X142166666Y-115597676D01*
X142166666Y-115597676D02*
X142119047Y-115692914D01*
X142119047Y-115692914D02*
X142071428Y-115883390D01*
X142071428Y-115883390D02*
X142071428Y-116026247D01*
X142071428Y-116026247D02*
X142119047Y-116216723D01*
X142119047Y-116216723D02*
X142166666Y-116311961D01*
X142166666Y-116311961D02*
X142261904Y-116407200D01*
X142261904Y-116407200D02*
X142404761Y-116454819D01*
X142404761Y-116454819D02*
X142642856Y-116454819D01*
X141119047Y-116454819D02*
X141690475Y-116454819D01*
X141404761Y-116454819D02*
X141404761Y-115454819D01*
X141404761Y-115454819D02*
X141499999Y-115597676D01*
X141499999Y-115597676D02*
X141595237Y-115692914D01*
X141595237Y-115692914D02*
X141690475Y-115740533D01*
X140261904Y-115454819D02*
X140452380Y-115454819D01*
X140452380Y-115454819D02*
X140547618Y-115502438D01*
X140547618Y-115502438D02*
X140595237Y-115550057D01*
X140595237Y-115550057D02*
X140690475Y-115692914D01*
X140690475Y-115692914D02*
X140738094Y-115883390D01*
X140738094Y-115883390D02*
X140738094Y-116264342D01*
X140738094Y-116264342D02*
X140690475Y-116359580D01*
X140690475Y-116359580D02*
X140642856Y-116407200D01*
X140642856Y-116407200D02*
X140547618Y-116454819D01*
X140547618Y-116454819D02*
X140357142Y-116454819D01*
X140357142Y-116454819D02*
X140261904Y-116407200D01*
X140261904Y-116407200D02*
X140214285Y-116359580D01*
X140214285Y-116359580D02*
X140166666Y-116264342D01*
X140166666Y-116264342D02*
X140166666Y-116026247D01*
X140166666Y-116026247D02*
X140214285Y-115931009D01*
X140214285Y-115931009D02*
X140261904Y-115883390D01*
X140261904Y-115883390D02*
X140357142Y-115835771D01*
X140357142Y-115835771D02*
X140547618Y-115835771D01*
X140547618Y-115835771D02*
X140642856Y-115883390D01*
X140642856Y-115883390D02*
X140690475Y-115931009D01*
X140690475Y-115931009D02*
X140738094Y-116026247D01*
X139595237Y-115883390D02*
X139690475Y-115835771D01*
X139690475Y-115835771D02*
X139738094Y-115788152D01*
X139738094Y-115788152D02*
X139785713Y-115692914D01*
X139785713Y-115692914D02*
X139785713Y-115645295D01*
X139785713Y-115645295D02*
X139738094Y-115550057D01*
X139738094Y-115550057D02*
X139690475Y-115502438D01*
X139690475Y-115502438D02*
X139595237Y-115454819D01*
X139595237Y-115454819D02*
X139404761Y-115454819D01*
X139404761Y-115454819D02*
X139309523Y-115502438D01*
X139309523Y-115502438D02*
X139261904Y-115550057D01*
X139261904Y-115550057D02*
X139214285Y-115645295D01*
X139214285Y-115645295D02*
X139214285Y-115692914D01*
X139214285Y-115692914D02*
X139261904Y-115788152D01*
X139261904Y-115788152D02*
X139309523Y-115835771D01*
X139309523Y-115835771D02*
X139404761Y-115883390D01*
X139404761Y-115883390D02*
X139595237Y-115883390D01*
X139595237Y-115883390D02*
X139690475Y-115931009D01*
X139690475Y-115931009D02*
X139738094Y-115978628D01*
X139738094Y-115978628D02*
X139785713Y-116073866D01*
X139785713Y-116073866D02*
X139785713Y-116264342D01*
X139785713Y-116264342D02*
X139738094Y-116359580D01*
X139738094Y-116359580D02*
X139690475Y-116407200D01*
X139690475Y-116407200D02*
X139595237Y-116454819D01*
X139595237Y-116454819D02*
X139404761Y-116454819D01*
X139404761Y-116454819D02*
X139309523Y-116407200D01*
X139309523Y-116407200D02*
X139261904Y-116359580D01*
X139261904Y-116359580D02*
X139214285Y-116264342D01*
X139214285Y-116264342D02*
X139214285Y-116073866D01*
X139214285Y-116073866D02*
X139261904Y-115978628D01*
X139261904Y-115978628D02*
X139309523Y-115931009D01*
X139309523Y-115931009D02*
X139404761Y-115883390D01*
X138595237Y-115454819D02*
X138499999Y-115454819D01*
X138499999Y-115454819D02*
X138404761Y-115502438D01*
X138404761Y-115502438D02*
X138357142Y-115550057D01*
X138357142Y-115550057D02*
X138309523Y-115645295D01*
X138309523Y-115645295D02*
X138261904Y-115835771D01*
X138261904Y-115835771D02*
X138261904Y-116073866D01*
X138261904Y-116073866D02*
X138309523Y-116264342D01*
X138309523Y-116264342D02*
X138357142Y-116359580D01*
X138357142Y-116359580D02*
X138404761Y-116407200D01*
X138404761Y-116407200D02*
X138499999Y-116454819D01*
X138499999Y-116454819D02*
X138595237Y-116454819D01*
X138595237Y-116454819D02*
X138690475Y-116407200D01*
X138690475Y-116407200D02*
X138738094Y-116359580D01*
X138738094Y-116359580D02*
X138785713Y-116264342D01*
X138785713Y-116264342D02*
X138833332Y-116073866D01*
X138833332Y-116073866D02*
X138833332Y-115835771D01*
X138833332Y-115835771D02*
X138785713Y-115645295D01*
X138785713Y-115645295D02*
X138738094Y-115550057D01*
X138738094Y-115550057D02*
X138690475Y-115502438D01*
X138690475Y-115502438D02*
X138595237Y-115454819D01*
X137928570Y-115454819D02*
X137261904Y-115454819D01*
X137261904Y-115454819D02*
X137928570Y-116454819D01*
X137928570Y-116454819D02*
X137261904Y-116454819D01*
X136738094Y-115883390D02*
X136833332Y-115835771D01*
X136833332Y-115835771D02*
X136880951Y-115788152D01*
X136880951Y-115788152D02*
X136928570Y-115692914D01*
X136928570Y-115692914D02*
X136928570Y-115645295D01*
X136928570Y-115645295D02*
X136880951Y-115550057D01*
X136880951Y-115550057D02*
X136833332Y-115502438D01*
X136833332Y-115502438D02*
X136738094Y-115454819D01*
X136738094Y-115454819D02*
X136547618Y-115454819D01*
X136547618Y-115454819D02*
X136452380Y-115502438D01*
X136452380Y-115502438D02*
X136404761Y-115550057D01*
X136404761Y-115550057D02*
X136357142Y-115645295D01*
X136357142Y-115645295D02*
X136357142Y-115692914D01*
X136357142Y-115692914D02*
X136404761Y-115788152D01*
X136404761Y-115788152D02*
X136452380Y-115835771D01*
X136452380Y-115835771D02*
X136547618Y-115883390D01*
X136547618Y-115883390D02*
X136738094Y-115883390D01*
X136738094Y-115883390D02*
X136833332Y-115931009D01*
X136833332Y-115931009D02*
X136880951Y-115978628D01*
X136880951Y-115978628D02*
X136928570Y-116073866D01*
X136928570Y-116073866D02*
X136928570Y-116264342D01*
X136928570Y-116264342D02*
X136880951Y-116359580D01*
X136880951Y-116359580D02*
X136833332Y-116407200D01*
X136833332Y-116407200D02*
X136738094Y-116454819D01*
X136738094Y-116454819D02*
X136547618Y-116454819D01*
X136547618Y-116454819D02*
X136452380Y-116407200D01*
X136452380Y-116407200D02*
X136404761Y-116359580D01*
X136404761Y-116359580D02*
X136357142Y-116264342D01*
X136357142Y-116264342D02*
X136357142Y-116073866D01*
X136357142Y-116073866D02*
X136404761Y-115978628D01*
X136404761Y-115978628D02*
X136452380Y-115931009D01*
X136452380Y-115931009D02*
X136547618Y-115883390D01*
X152047618Y-100454819D02*
X152047618Y-99454819D01*
X152047618Y-99454819D02*
X151666666Y-99454819D01*
X151666666Y-99454819D02*
X151571428Y-99502438D01*
X151571428Y-99502438D02*
X151523809Y-99550057D01*
X151523809Y-99550057D02*
X151476190Y-99645295D01*
X151476190Y-99645295D02*
X151476190Y-99788152D01*
X151476190Y-99788152D02*
X151523809Y-99883390D01*
X151523809Y-99883390D02*
X151571428Y-99931009D01*
X151571428Y-99931009D02*
X151666666Y-99978628D01*
X151666666Y-99978628D02*
X152047618Y-99978628D01*
X151095237Y-100169104D02*
X150619047Y-100169104D01*
X151190475Y-100454819D02*
X150857142Y-99454819D01*
X150857142Y-99454819D02*
X150523809Y-100454819D01*
X149619047Y-100454819D02*
X149952380Y-99978628D01*
X150190475Y-100454819D02*
X150190475Y-99454819D01*
X150190475Y-99454819D02*
X149809523Y-99454819D01*
X149809523Y-99454819D02*
X149714285Y-99502438D01*
X149714285Y-99502438D02*
X149666666Y-99550057D01*
X149666666Y-99550057D02*
X149619047Y-99645295D01*
X149619047Y-99645295D02*
X149619047Y-99788152D01*
X149619047Y-99788152D02*
X149666666Y-99883390D01*
X149666666Y-99883390D02*
X149714285Y-99931009D01*
X149714285Y-99931009D02*
X149809523Y-99978628D01*
X149809523Y-99978628D02*
X150190475Y-99978628D01*
X149333332Y-99454819D02*
X148761904Y-99454819D01*
X149047618Y-100454819D02*
X149047618Y-99454819D01*
X147904761Y-100454819D02*
X148476189Y-100454819D01*
X148190475Y-100454819D02*
X148190475Y-99454819D01*
X148190475Y-99454819D02*
X148285713Y-99597676D01*
X148285713Y-99597676D02*
X148380951Y-99692914D01*
X148380951Y-99692914D02*
X148476189Y-99740533D01*
D11*
G04 #@! TO.C,PART1*
X120400000Y-85399991D02*
X179599999Y-85399991D01*
X120400000Y-85400000D02*
X120400000Y-100000000D01*
X120400000Y-114599990D02*
X121000000Y-114599990D01*
X120400000Y-114600000D02*
X120400000Y-100000000D01*
X121000000Y-86000000D02*
X121000000Y-114000000D01*
X121000000Y-114000000D02*
X175000000Y-114000000D01*
X121000000Y-114599990D02*
X179600001Y-114599990D01*
X175000000Y-91000000D02*
X179000000Y-91000000D01*
X175000000Y-114000000D02*
X175000000Y-91000000D01*
X179000000Y-86000000D02*
X121000000Y-86000000D01*
X179000000Y-91000000D02*
X179000000Y-86000000D01*
X179599999Y-85399991D02*
X179599999Y-99999991D01*
X179600001Y-114599990D02*
X179599998Y-99999995D01*
X178000000Y-105000000D02*
X179000000Y-105000000D01*
X179000000Y-95000000D01*
X178000000Y-95000000D01*
X178000000Y-105000000D01*
G04 #@! TD*
M02*
