G04 #@! TF.GenerationSoftware,KiCad,Pcbnew,8.0.1*
G04 #@! TF.CreationDate,2024-05-22T20:39:38+03:00*
G04 #@! TF.ProjectId,ESP32-C3_6_pico,45535033-322d-4433-935f-365f7069636f,rev?*
G04 #@! TF.SameCoordinates,Original*
G04 #@! TF.FileFunction,Profile,NP*
%FSLAX46Y46*%
G04 Gerber Fmt 4.6, Leading zero omitted, Abs format (unit mm)*
G04 Created by KiCad (PCBNEW 8.0.1) date 2024-05-22 20:39:38*
%MOMM*%
%LPD*%
G01*
G04 APERTURE LIST*
G04 #@! TA.AperFunction,Profile*
%ADD10C,0.100000*%
G04 #@! TD*
G04 APERTURE END LIST*
D10*
X184000000Y-108000000D02*
G75*
G02*
X182000000Y-106000000I0J2000000D01*
G01*
X145800000Y-110000000D02*
X145800000Y-115500000D01*
X146800000Y-110000000D02*
X146800000Y-115500000D01*
X116000000Y-84000000D02*
X116000000Y-84000000D01*
X153900000Y-110000000D02*
G75*
G02*
X154900000Y-110000000I500000J0D01*
G01*
X184000000Y-108000000D02*
G75*
G02*
X188000000Y-112000000I0J-4000000D01*
G01*
X182000000Y-94000000D02*
X182000000Y-106000000D01*
X145300000Y-116000000D02*
X116000000Y-116000000D01*
X184000000Y-84000000D02*
X184000000Y-84000000D01*
X158400000Y-110000000D02*
X158400000Y-115500000D01*
X153900000Y-110000000D02*
X153900000Y-115500000D01*
X147300000Y-116000000D02*
G75*
G02*
X146800000Y-115500000I0J500000D01*
G01*
X116000000Y-116000000D02*
G75*
G02*
X112000000Y-112000000I0J4000000D01*
G01*
X147300000Y-116000000D02*
X153400000Y-116000000D01*
X154900000Y-110000000D02*
X154900000Y-115500000D01*
X188000000Y-88000000D02*
G75*
G02*
X184000000Y-92000000I-4000000J0D01*
G01*
X159400000Y-110000000D02*
X159400000Y-115500000D01*
X159900000Y-116000000D02*
G75*
G02*
X159400000Y-115500000I0J500000D01*
G01*
X112000000Y-88000000D02*
G75*
G02*
X116000000Y-84000000I4000000J0D01*
G01*
X158400000Y-110000000D02*
G75*
G02*
X159400000Y-110000000I500000J0D01*
G01*
X145800000Y-110000000D02*
G75*
G02*
X146800000Y-110000000I500000J0D01*
G01*
X153900000Y-115500000D02*
G75*
G02*
X153400000Y-116000000I-500000J0D01*
G01*
X155400000Y-116000000D02*
X157900000Y-116000000D01*
X158400000Y-115500000D02*
G75*
G02*
X157900000Y-116000000I-500000J0D01*
G01*
X188000000Y-112000000D02*
G75*
G02*
X184000000Y-116000000I-4000000J0D01*
G01*
X155400000Y-116000000D02*
G75*
G02*
X154900000Y-115500000I0J500000D01*
G01*
X112000000Y-112000000D02*
X112000000Y-88000000D01*
X145800000Y-115500000D02*
G75*
G02*
X145300000Y-116000000I-500000J0D01*
G01*
X159900000Y-116000000D02*
X184000000Y-116000000D01*
X182000000Y-94000000D02*
G75*
G02*
X184000000Y-92000000I2000000J0D01*
G01*
X116000000Y-84000000D02*
X116000000Y-84000000D01*
X116000000Y-84000000D02*
X184000000Y-84000000D01*
X184000000Y-84000000D02*
G75*
G02*
X188000000Y-88000000I0J-4000000D01*
G01*
M02*
