G04 #@! TF.GenerationSoftware,KiCad,Pcbnew,8.0.1*
G04 #@! TF.CreationDate,2024-05-22T20:39:38+03:00*
G04 #@! TF.ProjectId,ESP32-C3_6_pico,45535033-322d-4433-935f-365f7069636f,rev?*
G04 #@! TF.SameCoordinates,Original*
G04 #@! TF.FileFunction,Other,User*
%FSLAX46Y46*%
G04 Gerber Fmt 4.6, Leading zero omitted, Abs format (unit mm)*
G04 Created by KiCad (PCBNEW 8.0.1) date 2024-05-22 20:39:38*
%MOMM*%
%LPD*%
G01*
G04 APERTURE LIST*
%ADD10C,0.500000*%
%ADD11C,0.150000*%
%ADD12C,0.125000*%
G04 APERTURE END LIST*
D10*
G36*
X146703550Y-99088399D02*
G01*
X146823647Y-99204923D01*
X146888650Y-99329174D01*
X146973225Y-99652479D01*
X146976467Y-99878196D01*
X146899485Y-100201013D01*
X146833126Y-100340055D01*
X146712426Y-100464456D01*
X146525822Y-100529517D01*
X146329555Y-100531313D01*
X146326028Y-99026987D01*
X146505362Y-99025346D01*
X146703550Y-99088399D01*
G37*
G36*
X148879047Y-99073866D02*
G01*
X148996820Y-99188135D01*
X149068336Y-99461520D01*
X149072394Y-100065782D01*
X149001575Y-100362757D01*
X148892547Y-100475128D01*
X148787963Y-100529842D01*
X148525018Y-100532782D01*
X148424083Y-100484609D01*
X148306310Y-100370340D01*
X148234794Y-100096953D01*
X148230736Y-99492692D01*
X148301555Y-99195718D01*
X148410584Y-99083346D01*
X148515167Y-99028633D01*
X148778113Y-99025693D01*
X148879047Y-99073866D01*
G37*
G36*
X150990556Y-100041192D02*
G01*
X151015670Y-100065024D01*
X151069013Y-100166987D01*
X151071427Y-100335085D01*
X151023100Y-100436345D01*
X150984827Y-100476676D01*
X150883751Y-100529555D01*
X150424795Y-100532274D01*
X150423500Y-99979952D01*
X150790329Y-99977489D01*
X150990556Y-100041192D01*
G37*
G36*
X150880099Y-99074368D02*
G01*
X150920432Y-99112643D01*
X150974099Y-99215224D01*
X150975575Y-99288753D01*
X150927863Y-99388724D01*
X150889588Y-99429057D01*
X150788431Y-99481978D01*
X150422338Y-99484437D01*
X150421267Y-99027586D01*
X150777074Y-99025197D01*
X150880099Y-99074368D01*
G37*
G36*
X152975337Y-99074368D02*
G01*
X153015670Y-99112643D01*
X153069013Y-99214606D01*
X153071427Y-99382704D01*
X153023100Y-99483964D01*
X152984827Y-99524295D01*
X152883751Y-99577174D01*
X152655281Y-99578528D01*
X152646147Y-99576916D01*
X152638419Y-99578628D01*
X152422562Y-99579907D01*
X152421268Y-99027780D01*
X152872126Y-99025109D01*
X152975337Y-99074368D01*
G37*
G36*
X155622952Y-101279238D02*
G01*
X145580137Y-101279238D01*
X145580137Y-98779238D01*
X145830137Y-98779238D01*
X145834941Y-100828011D01*
X145872270Y-100918131D01*
X145941244Y-100987105D01*
X146031364Y-101024434D01*
X146080137Y-101029238D01*
X146554176Y-101024900D01*
X146587594Y-101027275D01*
X146599878Y-101024481D01*
X146605100Y-101024434D01*
X146611197Y-101021908D01*
X146635384Y-101016409D01*
X146885524Y-100929196D01*
X146890815Y-100929196D01*
X146918951Y-100917541D01*
X146965850Y-100901190D01*
X146972635Y-100895304D01*
X146980935Y-100891867D01*
X147018819Y-100860776D01*
X147207373Y-100666439D01*
X147230016Y-100646802D01*
X147236646Y-100636269D01*
X147240386Y-100632415D01*
X147242912Y-100626314D01*
X147256125Y-100605326D01*
X147341508Y-100426424D01*
X147353802Y-100409833D01*
X147366831Y-100373365D01*
X147368878Y-100369078D01*
X147369005Y-100367281D01*
X147370292Y-100363681D01*
X147458232Y-99994907D01*
X147468190Y-99970868D01*
X147471163Y-99940683D01*
X147472698Y-99934247D01*
X147472155Y-99930603D01*
X147472994Y-99922095D01*
X147469066Y-99648632D01*
X147472698Y-99624228D01*
X147468287Y-99594396D01*
X147468190Y-99587607D01*
X147466780Y-99584204D01*
X147465530Y-99575746D01*
X147431564Y-99445904D01*
X147734899Y-99445904D01*
X147739273Y-100097317D01*
X147735195Y-100124723D01*
X147739659Y-100154921D01*
X147739703Y-100161344D01*
X147741112Y-100164746D01*
X147742363Y-100173205D01*
X147834941Y-100527103D01*
X147834941Y-100542294D01*
X147845726Y-100568333D01*
X147854091Y-100600308D01*
X147865156Y-100615242D01*
X147872269Y-100632414D01*
X147903360Y-100670299D01*
X148097694Y-100858853D01*
X148117334Y-100881498D01*
X148127866Y-100888128D01*
X148131720Y-100891867D01*
X148137819Y-100894393D01*
X148158810Y-100907607D01*
X148319289Y-100984198D01*
X148322196Y-100987105D01*
X148346295Y-100997087D01*
X148395058Y-101020360D01*
X148404017Y-101020996D01*
X148412316Y-101024434D01*
X148461089Y-101029238D01*
X148805123Y-101025391D01*
X148810773Y-101027275D01*
X148843269Y-101024965D01*
X148890815Y-101024434D01*
X148899113Y-101020996D01*
X148908073Y-101020360D01*
X148953845Y-101002845D01*
X149145315Y-100902676D01*
X149171411Y-100891867D01*
X149180965Y-100884025D01*
X149185797Y-100881498D01*
X149190122Y-100876510D01*
X149209295Y-100860776D01*
X149379005Y-100685861D01*
X149390968Y-100678684D01*
X149407119Y-100656885D01*
X149430862Y-100632415D01*
X149437974Y-100615242D01*
X149449040Y-100600309D01*
X149465530Y-100554157D01*
X149553470Y-100185383D01*
X149563428Y-100161344D01*
X149566401Y-100131159D01*
X149567936Y-100124723D01*
X149567393Y-100121079D01*
X149568232Y-100112571D01*
X149563857Y-99461157D01*
X149567936Y-99433752D01*
X149563471Y-99403553D01*
X149563428Y-99397131D01*
X149562018Y-99393728D01*
X149560768Y-99385270D01*
X149468191Y-99031374D01*
X149468191Y-99016180D01*
X149457403Y-98990135D01*
X149449040Y-98958166D01*
X149437975Y-98943232D01*
X149430862Y-98926060D01*
X149399771Y-98888175D01*
X149287493Y-98779238D01*
X149925375Y-98779238D01*
X149930179Y-100828011D01*
X149967508Y-100918131D01*
X150036482Y-100987105D01*
X150126602Y-101024434D01*
X150175375Y-101029238D01*
X150899034Y-101024949D01*
X150906011Y-101027275D01*
X150942341Y-101024693D01*
X150986053Y-101024434D01*
X150994351Y-101020996D01*
X151003311Y-101020360D01*
X151049083Y-101002845D01*
X151240553Y-100902676D01*
X151266649Y-100891867D01*
X151276204Y-100884025D01*
X151281035Y-100881498D01*
X151285359Y-100876512D01*
X151304534Y-100860776D01*
X151401943Y-100758127D01*
X151420492Y-100742040D01*
X151426960Y-100731764D01*
X151430863Y-100727652D01*
X151433390Y-100721549D01*
X151446601Y-100700564D01*
X151523192Y-100540084D01*
X151526099Y-100537178D01*
X151536081Y-100513078D01*
X151559354Y-100464316D01*
X151559990Y-100455356D01*
X151563428Y-100447058D01*
X151568232Y-100398285D01*
X151564647Y-100148704D01*
X151566269Y-100143840D01*
X151564149Y-100114012D01*
X151563428Y-100063798D01*
X151559990Y-100055499D01*
X151559354Y-100046540D01*
X151541839Y-100000768D01*
X151441671Y-99809300D01*
X151430862Y-99783203D01*
X151423018Y-99773645D01*
X151420492Y-99768816D01*
X151415506Y-99764492D01*
X151399771Y-99745318D01*
X151333421Y-99682355D01*
X151335624Y-99680034D01*
X151338150Y-99673933D01*
X151351363Y-99652945D01*
X151427954Y-99492465D01*
X151430861Y-99489559D01*
X151440843Y-99465459D01*
X151464116Y-99416697D01*
X151464752Y-99407737D01*
X151468190Y-99399439D01*
X151472994Y-99350666D01*
X151469867Y-99194950D01*
X151471031Y-99191459D01*
X151469311Y-99167261D01*
X151468190Y-99111417D01*
X151464752Y-99103118D01*
X151464116Y-99094159D01*
X151446601Y-99048387D01*
X151346433Y-98856919D01*
X151335624Y-98830822D01*
X151327780Y-98821264D01*
X151325254Y-98816435D01*
X151320268Y-98812111D01*
X151304533Y-98792937D01*
X151290097Y-98779238D01*
X151925375Y-98779238D01*
X151930179Y-100828011D01*
X151967508Y-100918131D01*
X152036482Y-100987105D01*
X152126602Y-101024434D01*
X152224148Y-101024434D01*
X152314268Y-100987105D01*
X152383242Y-100918131D01*
X152420571Y-100828011D01*
X152425375Y-100779238D01*
X152423724Y-100075385D01*
X152520588Y-100074811D01*
X153145329Y-100959805D01*
X153227590Y-101012227D01*
X153323650Y-101029179D01*
X153418886Y-101008080D01*
X153498799Y-100952141D01*
X153551221Y-100869879D01*
X153568173Y-100773819D01*
X153547074Y-100678583D01*
X153523040Y-100635872D01*
X153093413Y-100027272D01*
X153240553Y-99950295D01*
X153266649Y-99939486D01*
X153276204Y-99931644D01*
X153281035Y-99929117D01*
X153285359Y-99924131D01*
X153304534Y-99908395D01*
X153401943Y-99805746D01*
X153420492Y-99789659D01*
X153426960Y-99779383D01*
X153430863Y-99775271D01*
X153433390Y-99769168D01*
X153446601Y-99748183D01*
X153523192Y-99587703D01*
X153526099Y-99584797D01*
X153536081Y-99560697D01*
X153559354Y-99511935D01*
X153559990Y-99502975D01*
X153563428Y-99494677D01*
X153568232Y-99445904D01*
X153564647Y-99196323D01*
X153566269Y-99191459D01*
X153564149Y-99161631D01*
X153563428Y-99111417D01*
X153559990Y-99103118D01*
X153559354Y-99094159D01*
X153541839Y-99048387D01*
X153441671Y-98856919D01*
X153430862Y-98830822D01*
X153423018Y-98821264D01*
X153420492Y-98816435D01*
X153415506Y-98812111D01*
X153399771Y-98792937D01*
X153385335Y-98779238D01*
X153925375Y-98779238D01*
X153930179Y-100828011D01*
X153967508Y-100918131D01*
X154036482Y-100987105D01*
X154126602Y-101024434D01*
X154175375Y-101029238D01*
X155176529Y-101024434D01*
X155266649Y-100987105D01*
X155335623Y-100918131D01*
X155372952Y-100828011D01*
X155372952Y-100730465D01*
X155335623Y-100640345D01*
X155266649Y-100571371D01*
X155176529Y-100534042D01*
X155127756Y-100529238D01*
X154424796Y-100532611D01*
X154423500Y-99979952D01*
X154890815Y-99976815D01*
X154980935Y-99939486D01*
X155049909Y-99870512D01*
X155087238Y-99780392D01*
X155087238Y-99682846D01*
X155049909Y-99592726D01*
X154980935Y-99523752D01*
X154890815Y-99486423D01*
X154842042Y-99481619D01*
X154422338Y-99484437D01*
X154421268Y-99028058D01*
X155176529Y-99024434D01*
X155266649Y-98987105D01*
X155335623Y-98918131D01*
X155372952Y-98828011D01*
X155372952Y-98730465D01*
X155335623Y-98640345D01*
X155266649Y-98571371D01*
X155176529Y-98534042D01*
X155127756Y-98529238D01*
X154126602Y-98534042D01*
X154036482Y-98571371D01*
X153967508Y-98640345D01*
X153930179Y-98730465D01*
X153925375Y-98779238D01*
X153385335Y-98779238D01*
X153297127Y-98695532D01*
X153281035Y-98676978D01*
X153270755Y-98670507D01*
X153266648Y-98666609D01*
X153260553Y-98664084D01*
X153239560Y-98650869D01*
X153079079Y-98574277D01*
X153076173Y-98571371D01*
X153052074Y-98561389D01*
X153003311Y-98538116D01*
X152994351Y-98537479D01*
X152986053Y-98534042D01*
X152937280Y-98529238D01*
X152126602Y-98534042D01*
X152036482Y-98571371D01*
X151967508Y-98640345D01*
X151930179Y-98730465D01*
X151925375Y-98779238D01*
X151290097Y-98779238D01*
X151201889Y-98695532D01*
X151185797Y-98676978D01*
X151175517Y-98670507D01*
X151171410Y-98666609D01*
X151165315Y-98664084D01*
X151144322Y-98650869D01*
X150983841Y-98574277D01*
X150980935Y-98571371D01*
X150956836Y-98561389D01*
X150908073Y-98538116D01*
X150899113Y-98537479D01*
X150890815Y-98534042D01*
X150842042Y-98529238D01*
X150126602Y-98534042D01*
X150036482Y-98571371D01*
X149967508Y-98640345D01*
X149930179Y-98730465D01*
X149925375Y-98779238D01*
X149287493Y-98779238D01*
X149205439Y-98699625D01*
X149185797Y-98676978D01*
X149175261Y-98670345D01*
X149171410Y-98666609D01*
X149165315Y-98664084D01*
X149144322Y-98650869D01*
X148983841Y-98574277D01*
X148980935Y-98571371D01*
X148956836Y-98561389D01*
X148908073Y-98538116D01*
X148899113Y-98537479D01*
X148890815Y-98534042D01*
X148842042Y-98529238D01*
X148498007Y-98533084D01*
X148492358Y-98531201D01*
X148459861Y-98533510D01*
X148412316Y-98534042D01*
X148404017Y-98537479D01*
X148395058Y-98538116D01*
X148349286Y-98555631D01*
X148157820Y-98655797D01*
X148131721Y-98666608D01*
X148122163Y-98674451D01*
X148117334Y-98676978D01*
X148113010Y-98681963D01*
X148093836Y-98697699D01*
X147924127Y-98872612D01*
X147912163Y-98879791D01*
X147896009Y-98901592D01*
X147872270Y-98926060D01*
X147865157Y-98943231D01*
X147854091Y-98958167D01*
X147837601Y-99004318D01*
X147749660Y-99373091D01*
X147739703Y-99397131D01*
X147736729Y-99427315D01*
X147735195Y-99433752D01*
X147735737Y-99437395D01*
X147734899Y-99445904D01*
X147431564Y-99445904D01*
X147370524Y-99212568D01*
X147368878Y-99189397D01*
X147354923Y-99152930D01*
X147353802Y-99148642D01*
X147352728Y-99147192D01*
X147351363Y-99143625D01*
X147251196Y-98952159D01*
X147240386Y-98926060D01*
X147232542Y-98916502D01*
X147230016Y-98911673D01*
X147225030Y-98907349D01*
X147209295Y-98888175D01*
X147041749Y-98725614D01*
X147039541Y-98721198D01*
X147017450Y-98702039D01*
X146980934Y-98666609D01*
X146972636Y-98663172D01*
X146965850Y-98657286D01*
X146921099Y-98637305D01*
X146633502Y-98545806D01*
X146605100Y-98534042D01*
X146592678Y-98532818D01*
X146587594Y-98531201D01*
X146581008Y-98531669D01*
X146556327Y-98529238D01*
X146031364Y-98534042D01*
X145941244Y-98571371D01*
X145872270Y-98640345D01*
X145834941Y-98730465D01*
X145830137Y-98779238D01*
X145580137Y-98779238D01*
X145580137Y-98279238D01*
X155622952Y-98279238D01*
X155622952Y-101279238D01*
G37*
D11*
G36*
X164375727Y-114131290D02*
G01*
X164449936Y-114204080D01*
X164488627Y-114279215D01*
X164533245Y-114452645D01*
X164534387Y-114577417D01*
X164492361Y-114750540D01*
X164453636Y-114830350D01*
X164379359Y-114906076D01*
X164266280Y-114944867D01*
X164111673Y-114945749D01*
X164110464Y-114094398D01*
X164259131Y-114093551D01*
X164375727Y-114131290D01*
G37*
G36*
X170418739Y-114126770D02*
G01*
X170492531Y-114199152D01*
X170533224Y-114357323D01*
X170534527Y-114672077D01*
X170494413Y-114837325D01*
X170423946Y-114909166D01*
X170354500Y-114944928D01*
X170199331Y-114946018D01*
X170131009Y-114912867D01*
X170057216Y-114840485D01*
X170016523Y-114682313D01*
X170015220Y-114367559D01*
X170055334Y-114202311D01*
X170125802Y-114130470D01*
X170195247Y-114094709D01*
X170350416Y-114093619D01*
X170418739Y-114126770D01*
G37*
G36*
X169418946Y-114126871D02*
G01*
X169450273Y-114157115D01*
X169485731Y-114225972D01*
X169486716Y-114333604D01*
X169453536Y-114401985D01*
X169423291Y-114433313D01*
X169354603Y-114468684D01*
X169228452Y-114469144D01*
X169225630Y-114468646D01*
X169223296Y-114469162D01*
X169063378Y-114469745D01*
X169062845Y-114094550D01*
X169350179Y-114093503D01*
X169418946Y-114126871D01*
G37*
G36*
X163505174Y-114659406D02*
G01*
X163235134Y-114660199D01*
X163369679Y-114254742D01*
X163505174Y-114659406D01*
G37*
G36*
X172505174Y-114659406D02*
G01*
X172235134Y-114660199D01*
X172369679Y-114254742D01*
X172505174Y-114659406D01*
G37*
G36*
X174886126Y-114659406D02*
G01*
X174616086Y-114660199D01*
X174750631Y-114254742D01*
X174886126Y-114659406D01*
G37*
G36*
X175269919Y-115205930D02*
G01*
X161850668Y-115205930D01*
X161850668Y-114019819D01*
X161961779Y-114019819D01*
X161963220Y-115034451D01*
X161974419Y-115061487D01*
X161995111Y-115082179D01*
X162022147Y-115093378D01*
X162051411Y-115093378D01*
X162078447Y-115082179D01*
X162099139Y-115061487D01*
X162110338Y-115034451D01*
X162111779Y-115019819D01*
X162110834Y-114354441D01*
X162302209Y-114762619D01*
X162305982Y-114772993D01*
X162308218Y-114775435D01*
X162309642Y-114778471D01*
X162318051Y-114786171D01*
X162325746Y-114794574D01*
X162328764Y-114795982D01*
X162331223Y-114798234D01*
X162341935Y-114802129D01*
X162352264Y-114806950D01*
X162355592Y-114807096D01*
X162358724Y-114808235D01*
X162370118Y-114807734D01*
X162381500Y-114808234D01*
X162384628Y-114807096D01*
X162387960Y-114806950D01*
X162398295Y-114802126D01*
X162409001Y-114798234D01*
X162411456Y-114795984D01*
X162414478Y-114794575D01*
X162422179Y-114786164D01*
X162430582Y-114778470D01*
X162433065Y-114774277D01*
X162434242Y-114772993D01*
X162434902Y-114771177D01*
X162438076Y-114765820D01*
X162628920Y-114354943D01*
X162629886Y-115034451D01*
X162641085Y-115061487D01*
X162661777Y-115082179D01*
X162688813Y-115093378D01*
X162718077Y-115093378D01*
X162745113Y-115082179D01*
X162765805Y-115061487D01*
X162777004Y-115034451D01*
X162778445Y-115019819D01*
X162778432Y-115010439D01*
X162962368Y-115010439D01*
X162964443Y-115039629D01*
X162977529Y-115065802D01*
X162999636Y-115084976D01*
X163027399Y-115094230D01*
X163056589Y-115092155D01*
X163082762Y-115079069D01*
X163101936Y-115056962D01*
X163107930Y-115043536D01*
X163185775Y-114808946D01*
X163554881Y-114807862D01*
X163638288Y-115056961D01*
X163657462Y-115079068D01*
X163683635Y-115092155D01*
X163712825Y-115094230D01*
X163740587Y-115084976D01*
X163762695Y-115065802D01*
X163775781Y-115039628D01*
X163777856Y-115010438D01*
X163774596Y-114996102D01*
X163447705Y-114019819D01*
X163961779Y-114019819D01*
X163963220Y-115034451D01*
X163974419Y-115061487D01*
X163995111Y-115082179D01*
X164022147Y-115093378D01*
X164036779Y-115094819D01*
X164273548Y-115093468D01*
X164284254Y-115094230D01*
X164287962Y-115093386D01*
X164289506Y-115093378D01*
X164291337Y-115092619D01*
X164298591Y-115090970D01*
X164430381Y-115045759D01*
X164432363Y-115045759D01*
X164441915Y-115041802D01*
X164454873Y-115037357D01*
X164456908Y-115035591D01*
X164459399Y-115034560D01*
X164470764Y-115025233D01*
X164564696Y-114929468D01*
X164572219Y-114922945D01*
X164574231Y-114919748D01*
X164575330Y-114918628D01*
X164576087Y-114916798D01*
X164580051Y-114910502D01*
X164624319Y-114819269D01*
X164628402Y-114813759D01*
X164632337Y-114802743D01*
X164632925Y-114801533D01*
X164632963Y-114800992D01*
X164633349Y-114799913D01*
X164678589Y-114613547D01*
X164681766Y-114605879D01*
X164682663Y-114596764D01*
X164683118Y-114594893D01*
X164682955Y-114593800D01*
X164683207Y-114591247D01*
X164681939Y-114452667D01*
X164683118Y-114444744D01*
X164681783Y-114435719D01*
X164681766Y-114433758D01*
X164681343Y-114432736D01*
X164680968Y-114430200D01*
X164633450Y-114245501D01*
X164632925Y-114238104D01*
X164628721Y-114227121D01*
X164628402Y-114225878D01*
X164628079Y-114225442D01*
X164627670Y-114224373D01*
X164578981Y-114129823D01*
X164575330Y-114121008D01*
X164572945Y-114118102D01*
X164572219Y-114116692D01*
X164570722Y-114115393D01*
X164566002Y-114109643D01*
X164477831Y-114023158D01*
X164476980Y-114021455D01*
X164475094Y-114019819D01*
X164961779Y-114019819D01*
X164963220Y-115034451D01*
X164974419Y-115061487D01*
X164995111Y-115082179D01*
X165022147Y-115093378D01*
X165036779Y-115094819D01*
X165527601Y-115093378D01*
X165554637Y-115082179D01*
X165575329Y-115061487D01*
X165586528Y-115034451D01*
X165586528Y-115005187D01*
X165575329Y-114978151D01*
X165554637Y-114957459D01*
X165527601Y-114946260D01*
X165512969Y-114944819D01*
X165111674Y-114945997D01*
X165111141Y-114570701D01*
X165384744Y-114569568D01*
X165411780Y-114558369D01*
X165432472Y-114537677D01*
X165443671Y-114510641D01*
X165443671Y-114481377D01*
X165432472Y-114454341D01*
X165411780Y-114433649D01*
X165384744Y-114422450D01*
X165370112Y-114421009D01*
X165110930Y-114422082D01*
X165110464Y-114094602D01*
X165527601Y-114093378D01*
X165554637Y-114082179D01*
X165575329Y-114061487D01*
X165586528Y-114034451D01*
X165586528Y-114019819D01*
X166628446Y-114019819D01*
X166629887Y-115034451D01*
X166641086Y-115061487D01*
X166661778Y-115082179D01*
X166688814Y-115093378D01*
X166718078Y-115093378D01*
X166745114Y-115082179D01*
X166765806Y-115061487D01*
X166777005Y-115034451D01*
X166778446Y-115019819D01*
X166777026Y-114019819D01*
X167104636Y-114019819D01*
X167106077Y-115034451D01*
X167117276Y-115061487D01*
X167137968Y-115082179D01*
X167165004Y-115093378D01*
X167194268Y-115093378D01*
X167221304Y-115082179D01*
X167241996Y-115061487D01*
X167253195Y-115034451D01*
X167254636Y-115019819D01*
X167253613Y-114299749D01*
X167684960Y-115052448D01*
X167688704Y-115061487D01*
X167692066Y-115064849D01*
X167694456Y-115069019D01*
X167702344Y-115075127D01*
X167709396Y-115082179D01*
X167713814Y-115084009D01*
X167717594Y-115086936D01*
X167727215Y-115089560D01*
X167736432Y-115093378D01*
X167741213Y-115093378D01*
X167745825Y-115094636D01*
X167755722Y-115093378D01*
X167765696Y-115093378D01*
X167770111Y-115091548D01*
X167774855Y-115090946D01*
X167783519Y-115085995D01*
X167792732Y-115082179D01*
X167796110Y-115078800D01*
X167800264Y-115076427D01*
X167806373Y-115068537D01*
X167813424Y-115061487D01*
X167815253Y-115057070D01*
X167818181Y-115053290D01*
X167820805Y-115043666D01*
X167824623Y-115034451D01*
X167825359Y-115026968D01*
X167825881Y-115025058D01*
X167825693Y-115023582D01*
X167826064Y-115019819D01*
X167824644Y-114019819D01*
X168914160Y-114019819D01*
X168915601Y-115034451D01*
X168926800Y-115061487D01*
X168947492Y-115082179D01*
X168974528Y-115093378D01*
X169003792Y-115093378D01*
X169030828Y-115082179D01*
X169051520Y-115061487D01*
X169062719Y-115034451D01*
X169064160Y-115019819D01*
X169063589Y-114618356D01*
X169187812Y-114617904D01*
X169508717Y-115073989D01*
X169533396Y-115089716D01*
X169562213Y-115094802D01*
X169590784Y-115088472D01*
X169614758Y-115071690D01*
X169630485Y-115047012D01*
X169635570Y-115018194D01*
X169629241Y-114989623D01*
X169622031Y-114976810D01*
X169369174Y-114617439D01*
X169372072Y-114617233D01*
X169384744Y-114617187D01*
X169387233Y-114616155D01*
X169389921Y-114615965D01*
X169403653Y-114610710D01*
X169498209Y-114562017D01*
X169507018Y-114558369D01*
X169509920Y-114555986D01*
X169511334Y-114555259D01*
X169512633Y-114553760D01*
X169518383Y-114549042D01*
X169565724Y-114500006D01*
X169572219Y-114494374D01*
X169574198Y-114491228D01*
X169575329Y-114490058D01*
X169576086Y-114488230D01*
X169580051Y-114481931D01*
X169621726Y-114396041D01*
X169622948Y-114394820D01*
X169626617Y-114385960D01*
X169632925Y-114372962D01*
X169633116Y-114370272D01*
X169634147Y-114367784D01*
X169635588Y-114353152D01*
X169866541Y-114353152D01*
X169867901Y-114681588D01*
X169866630Y-114690131D01*
X169867974Y-114699223D01*
X169867982Y-114701117D01*
X169868404Y-114702138D01*
X169868780Y-114704675D01*
X169915601Y-114886666D01*
X169915601Y-114891592D01*
X169918945Y-114899667D01*
X169921346Y-114908997D01*
X169924665Y-114913476D01*
X169926799Y-114918628D01*
X169936127Y-114929994D01*
X170031894Y-115023932D01*
X170038414Y-115031450D01*
X170041607Y-115033460D01*
X170042730Y-115034561D01*
X170044562Y-115035319D01*
X170050857Y-115039282D01*
X170136746Y-115080957D01*
X170137968Y-115082179D01*
X170146827Y-115085848D01*
X170159826Y-115092156D01*
X170162515Y-115092347D01*
X170165004Y-115093378D01*
X170179636Y-115094819D01*
X170358723Y-115093560D01*
X170360731Y-115094230D01*
X170371403Y-115093471D01*
X170384744Y-115093378D01*
X170387233Y-115092346D01*
X170389921Y-115092156D01*
X170403653Y-115086901D01*
X170498207Y-115038209D01*
X170507018Y-115034560D01*
X170509920Y-115032177D01*
X170511334Y-115031450D01*
X170512633Y-115029951D01*
X170518383Y-115025233D01*
X170606978Y-114934909D01*
X170610980Y-114932509D01*
X170616065Y-114925645D01*
X170622949Y-114918628D01*
X170625082Y-114913476D01*
X170628402Y-114908997D01*
X170633349Y-114895151D01*
X170678589Y-114708785D01*
X170681766Y-114701117D01*
X170682663Y-114692002D01*
X170683118Y-114690131D01*
X170682955Y-114689038D01*
X170683207Y-114686485D01*
X170681846Y-114358048D01*
X170683118Y-114349506D01*
X170681773Y-114340413D01*
X170681766Y-114338520D01*
X170681343Y-114337498D01*
X170680968Y-114334962D01*
X170634147Y-114152970D01*
X170634147Y-114148045D01*
X170630801Y-114139968D01*
X170628402Y-114130640D01*
X170625083Y-114126161D01*
X170622949Y-114121008D01*
X170613621Y-114109643D01*
X170522046Y-114019819D01*
X170961779Y-114019819D01*
X170963220Y-115034451D01*
X170974419Y-115061487D01*
X170995111Y-115082179D01*
X171022147Y-115093378D01*
X171051411Y-115093378D01*
X171078447Y-115082179D01*
X171099139Y-115061487D01*
X171110338Y-115034451D01*
X171111779Y-115019819D01*
X171110834Y-114354441D01*
X171302209Y-114762619D01*
X171305982Y-114772993D01*
X171308218Y-114775435D01*
X171309642Y-114778471D01*
X171318051Y-114786171D01*
X171325746Y-114794574D01*
X171328764Y-114795982D01*
X171331223Y-114798234D01*
X171341935Y-114802129D01*
X171352264Y-114806950D01*
X171355592Y-114807096D01*
X171358724Y-114808235D01*
X171370118Y-114807734D01*
X171381500Y-114808234D01*
X171384628Y-114807096D01*
X171387960Y-114806950D01*
X171398295Y-114802126D01*
X171409001Y-114798234D01*
X171411456Y-114795984D01*
X171414478Y-114794575D01*
X171422179Y-114786164D01*
X171430582Y-114778470D01*
X171433065Y-114774277D01*
X171434242Y-114772993D01*
X171434902Y-114771177D01*
X171438076Y-114765820D01*
X171628920Y-114354943D01*
X171629886Y-115034451D01*
X171641085Y-115061487D01*
X171661777Y-115082179D01*
X171688813Y-115093378D01*
X171718077Y-115093378D01*
X171745113Y-115082179D01*
X171765805Y-115061487D01*
X171777004Y-115034451D01*
X171778445Y-115019819D01*
X171778432Y-115010439D01*
X171962368Y-115010439D01*
X171964443Y-115039629D01*
X171977529Y-115065802D01*
X171999636Y-115084976D01*
X172027399Y-115094230D01*
X172056589Y-115092155D01*
X172082762Y-115079069D01*
X172101936Y-115056962D01*
X172107930Y-115043536D01*
X172185775Y-114808946D01*
X172554881Y-114807862D01*
X172638288Y-115056961D01*
X172657462Y-115079068D01*
X172683635Y-115092155D01*
X172712825Y-115094230D01*
X172740587Y-115084976D01*
X172762695Y-115065802D01*
X172775781Y-115039628D01*
X172777856Y-115010438D01*
X172774596Y-114996102D01*
X172447705Y-114019819D01*
X172961779Y-114019819D01*
X172963220Y-115034451D01*
X172974419Y-115061487D01*
X172995111Y-115082179D01*
X173022147Y-115093378D01*
X173051411Y-115093378D01*
X173078447Y-115082179D01*
X173099139Y-115061487D01*
X173110338Y-115034451D01*
X173111779Y-115019819D01*
X173110756Y-114299749D01*
X173542103Y-115052448D01*
X173545847Y-115061487D01*
X173549209Y-115064849D01*
X173551599Y-115069019D01*
X173559487Y-115075127D01*
X173566539Y-115082179D01*
X173570957Y-115084009D01*
X173574737Y-115086936D01*
X173584358Y-115089560D01*
X173593575Y-115093378D01*
X173598356Y-115093378D01*
X173602968Y-115094636D01*
X173612865Y-115093378D01*
X173622839Y-115093378D01*
X173627254Y-115091548D01*
X173631998Y-115090946D01*
X173640662Y-115085995D01*
X173649875Y-115082179D01*
X173653253Y-115078800D01*
X173657407Y-115076427D01*
X173663516Y-115068537D01*
X173670567Y-115061487D01*
X173672396Y-115057070D01*
X173675324Y-115053290D01*
X173677948Y-115043666D01*
X173681766Y-115034451D01*
X173682502Y-115026968D01*
X173683024Y-115025058D01*
X173682836Y-115023582D01*
X173683207Y-115019819D01*
X173681787Y-114019819D01*
X174009398Y-114019819D01*
X174010839Y-115034451D01*
X174022038Y-115061487D01*
X174042730Y-115082179D01*
X174069766Y-115093378D01*
X174099030Y-115093378D01*
X174126066Y-115082179D01*
X174146758Y-115061487D01*
X174157957Y-115034451D01*
X174159398Y-115019819D01*
X174159385Y-115010439D01*
X174343320Y-115010439D01*
X174345395Y-115039629D01*
X174358481Y-115065802D01*
X174380588Y-115084976D01*
X174408351Y-115094230D01*
X174437541Y-115092155D01*
X174463714Y-115079069D01*
X174482888Y-115056962D01*
X174488882Y-115043536D01*
X174566727Y-114808946D01*
X174935833Y-114807862D01*
X175019240Y-115056961D01*
X175038414Y-115079068D01*
X175064587Y-115092155D01*
X175093777Y-115094230D01*
X175121539Y-115084976D01*
X175143647Y-115065802D01*
X175156733Y-115039628D01*
X175158808Y-115010438D01*
X175155548Y-114996102D01*
X174823770Y-114005223D01*
X174823400Y-114000010D01*
X174819236Y-113991683D01*
X174816221Y-113982676D01*
X174812709Y-113978627D01*
X174810314Y-113973836D01*
X174803210Y-113967674D01*
X174797047Y-113960569D01*
X174792253Y-113958172D01*
X174788206Y-113954662D01*
X174779284Y-113951688D01*
X174770874Y-113947483D01*
X174765529Y-113947103D01*
X174760444Y-113945408D01*
X174751064Y-113946074D01*
X174741684Y-113945408D01*
X174736598Y-113947103D01*
X174731254Y-113947483D01*
X174722846Y-113951687D01*
X174713921Y-113954662D01*
X174709870Y-113958175D01*
X174705081Y-113960570D01*
X174698922Y-113967670D01*
X174691814Y-113973836D01*
X174689417Y-113978629D01*
X174685907Y-113982677D01*
X174679913Y-113996102D01*
X174441738Y-114713850D01*
X174439410Y-114719472D01*
X174439410Y-114720867D01*
X174343320Y-115010439D01*
X174159385Y-115010439D01*
X174157957Y-114005187D01*
X174146758Y-113978151D01*
X174126066Y-113957459D01*
X174099030Y-113946260D01*
X174069766Y-113946260D01*
X174042730Y-113957459D01*
X174022038Y-113978151D01*
X174010839Y-114005187D01*
X174009398Y-114019819D01*
X173681787Y-114019819D01*
X173681766Y-114005187D01*
X173670567Y-113978151D01*
X173649875Y-113957459D01*
X173622839Y-113946260D01*
X173593575Y-113946260D01*
X173566539Y-113957459D01*
X173545847Y-113978151D01*
X173534648Y-114005187D01*
X173533207Y-114019819D01*
X173534229Y-114739888D01*
X173102882Y-113987189D01*
X173099139Y-113978151D01*
X173095776Y-113974788D01*
X173093387Y-113970619D01*
X173085497Y-113964509D01*
X173078447Y-113957459D01*
X173074030Y-113955629D01*
X173070250Y-113952702D01*
X173060626Y-113950077D01*
X173051411Y-113946260D01*
X173046630Y-113946260D01*
X173042018Y-113945002D01*
X173032121Y-113946260D01*
X173022147Y-113946260D01*
X173017731Y-113948089D01*
X173012988Y-113948692D01*
X173004323Y-113953642D01*
X172995111Y-113957459D01*
X172991732Y-113960837D01*
X172987579Y-113963211D01*
X172981469Y-113971100D01*
X172974419Y-113978151D01*
X172972589Y-113982567D01*
X172969662Y-113986348D01*
X172967037Y-113995971D01*
X172963220Y-114005187D01*
X172962483Y-114012669D01*
X172961962Y-114014580D01*
X172962149Y-114016055D01*
X172961779Y-114019819D01*
X172447705Y-114019819D01*
X172442818Y-114005223D01*
X172442448Y-114000010D01*
X172438284Y-113991683D01*
X172435269Y-113982676D01*
X172431757Y-113978627D01*
X172429362Y-113973836D01*
X172422258Y-113967674D01*
X172416095Y-113960569D01*
X172411301Y-113958172D01*
X172407254Y-113954662D01*
X172398332Y-113951688D01*
X172389922Y-113947483D01*
X172384577Y-113947103D01*
X172379492Y-113945408D01*
X172370112Y-113946074D01*
X172360732Y-113945408D01*
X172355646Y-113947103D01*
X172350302Y-113947483D01*
X172341894Y-113951687D01*
X172332969Y-113954662D01*
X172328918Y-113958175D01*
X172324129Y-113960570D01*
X172317970Y-113967670D01*
X172310862Y-113973836D01*
X172308465Y-113978629D01*
X172304955Y-113982677D01*
X172298961Y-113996102D01*
X172060786Y-114713850D01*
X172058458Y-114719472D01*
X172058458Y-114720867D01*
X171962368Y-115010439D01*
X171778432Y-115010439D01*
X171777026Y-114020923D01*
X171777575Y-114008431D01*
X171777006Y-114006867D01*
X171777004Y-114005187D01*
X171772022Y-113993160D01*
X171767575Y-113980930D01*
X171766445Y-113979696D01*
X171765805Y-113978151D01*
X171756605Y-113968951D01*
X171747811Y-113959348D01*
X171746294Y-113958640D01*
X171745113Y-113957459D01*
X171733100Y-113952482D01*
X171721293Y-113946973D01*
X171719620Y-113946899D01*
X171718077Y-113946260D01*
X171705071Y-113946260D01*
X171692057Y-113945688D01*
X171690484Y-113946260D01*
X171688813Y-113946260D01*
X171676794Y-113951238D01*
X171664556Y-113955689D01*
X171663322Y-113956819D01*
X171661777Y-113957459D01*
X171652578Y-113966657D01*
X171642975Y-113975452D01*
X171641799Y-113977436D01*
X171641085Y-113978151D01*
X171640408Y-113979784D01*
X171635481Y-113988102D01*
X171370577Y-114558422D01*
X171103878Y-113989592D01*
X171099139Y-113978151D01*
X171097962Y-113976974D01*
X171097249Y-113975453D01*
X171087652Y-113966664D01*
X171078447Y-113957459D01*
X171076901Y-113956818D01*
X171075668Y-113955689D01*
X171063437Y-113951241D01*
X171051411Y-113946260D01*
X171049737Y-113946260D01*
X171048167Y-113945689D01*
X171035166Y-113946260D01*
X171022147Y-113946260D01*
X171020602Y-113946899D01*
X171018931Y-113946973D01*
X171007132Y-113952479D01*
X170995111Y-113957459D01*
X170993928Y-113958641D01*
X170992413Y-113959349D01*
X170983624Y-113968945D01*
X170974419Y-113978151D01*
X170973778Y-113979696D01*
X170972649Y-113980930D01*
X170968201Y-113993160D01*
X170963220Y-114005187D01*
X170962993Y-114007482D01*
X170962649Y-114008431D01*
X170962726Y-114010197D01*
X170961779Y-114019819D01*
X170522046Y-114019819D01*
X170517858Y-114015711D01*
X170511334Y-114008188D01*
X170508137Y-114006175D01*
X170507018Y-114005078D01*
X170505190Y-114004320D01*
X170498891Y-114000356D01*
X170413002Y-113958681D01*
X170411780Y-113957459D01*
X170402914Y-113953786D01*
X170389921Y-113947482D01*
X170387233Y-113947291D01*
X170384744Y-113946260D01*
X170370112Y-113944819D01*
X170191023Y-113946077D01*
X170189016Y-113945408D01*
X170178343Y-113946166D01*
X170165004Y-113946260D01*
X170162515Y-113947290D01*
X170159826Y-113947482D01*
X170146095Y-113952737D01*
X170051545Y-114001425D01*
X170042730Y-114005077D01*
X170039824Y-114007461D01*
X170038414Y-114008188D01*
X170037115Y-114009684D01*
X170031365Y-114014405D01*
X169942769Y-114104726D01*
X169938768Y-114107128D01*
X169933681Y-114113991D01*
X169926800Y-114121008D01*
X169924666Y-114126158D01*
X169921346Y-114130640D01*
X169916399Y-114144486D01*
X169871158Y-114330851D01*
X169867982Y-114338520D01*
X169867084Y-114347634D01*
X169866630Y-114349506D01*
X169866792Y-114350598D01*
X169866541Y-114353152D01*
X169635588Y-114353152D01*
X169634383Y-114221521D01*
X169634999Y-114219675D01*
X169634273Y-114209460D01*
X169634147Y-114195663D01*
X169633116Y-114193174D01*
X169632925Y-114190485D01*
X169627670Y-114176754D01*
X169578978Y-114082199D01*
X169575329Y-114073389D01*
X169572946Y-114070486D01*
X169572219Y-114069073D01*
X169570720Y-114067773D01*
X169566002Y-114062024D01*
X169516966Y-114014682D01*
X169511334Y-114008188D01*
X169508188Y-114006208D01*
X169507018Y-114005078D01*
X169505190Y-114004320D01*
X169498891Y-114000356D01*
X169413002Y-113958681D01*
X169411780Y-113957459D01*
X169402914Y-113953786D01*
X169389921Y-113947482D01*
X169387233Y-113947291D01*
X169384744Y-113946260D01*
X169370112Y-113944819D01*
X168974528Y-113946260D01*
X168947492Y-113957459D01*
X168926800Y-113978151D01*
X168915601Y-114005187D01*
X168914160Y-114019819D01*
X167824644Y-114019819D01*
X167824623Y-114005187D01*
X167813424Y-113978151D01*
X167792732Y-113957459D01*
X167765696Y-113946260D01*
X167736432Y-113946260D01*
X167709396Y-113957459D01*
X167688704Y-113978151D01*
X167677505Y-114005187D01*
X167676064Y-114019819D01*
X167677086Y-114739888D01*
X167245739Y-113987189D01*
X167241996Y-113978151D01*
X167238633Y-113974788D01*
X167236244Y-113970619D01*
X167228354Y-113964509D01*
X167221304Y-113957459D01*
X167216887Y-113955629D01*
X167213107Y-113952702D01*
X167203483Y-113950077D01*
X167194268Y-113946260D01*
X167189487Y-113946260D01*
X167184875Y-113945002D01*
X167174978Y-113946260D01*
X167165004Y-113946260D01*
X167160588Y-113948089D01*
X167155845Y-113948692D01*
X167147180Y-113953642D01*
X167137968Y-113957459D01*
X167134589Y-113960837D01*
X167130436Y-113963211D01*
X167124326Y-113971100D01*
X167117276Y-113978151D01*
X167115446Y-113982567D01*
X167112519Y-113986348D01*
X167109894Y-113995971D01*
X167106077Y-114005187D01*
X167105340Y-114012669D01*
X167104819Y-114014580D01*
X167105006Y-114016055D01*
X167104636Y-114019819D01*
X166777026Y-114019819D01*
X166777005Y-114005187D01*
X166765806Y-113978151D01*
X166745114Y-113957459D01*
X166718078Y-113946260D01*
X166688814Y-113946260D01*
X166661778Y-113957459D01*
X166641086Y-113978151D01*
X166629887Y-114005187D01*
X166628446Y-114019819D01*
X165586528Y-114019819D01*
X165586528Y-114005187D01*
X165575329Y-113978151D01*
X165554637Y-113957459D01*
X165527601Y-113946260D01*
X165512969Y-113944819D01*
X165022147Y-113946260D01*
X164995111Y-113957459D01*
X164974419Y-113978151D01*
X164963220Y-114005187D01*
X164961779Y-114019819D01*
X164475094Y-114019819D01*
X164469337Y-114014826D01*
X164459399Y-114005078D01*
X164456908Y-114004046D01*
X164454873Y-114002281D01*
X164441448Y-113996287D01*
X164298869Y-113950138D01*
X164289506Y-113946260D01*
X164285740Y-113945889D01*
X164284254Y-113945408D01*
X164282279Y-113945548D01*
X164274874Y-113944819D01*
X164022147Y-113946260D01*
X163995111Y-113957459D01*
X163974419Y-113978151D01*
X163963220Y-114005187D01*
X163961779Y-114019819D01*
X163447705Y-114019819D01*
X163442818Y-114005223D01*
X163442448Y-114000010D01*
X163438284Y-113991683D01*
X163435269Y-113982676D01*
X163431757Y-113978627D01*
X163429362Y-113973836D01*
X163422258Y-113967674D01*
X163416095Y-113960569D01*
X163411301Y-113958172D01*
X163407254Y-113954662D01*
X163398332Y-113951688D01*
X163389922Y-113947483D01*
X163384577Y-113947103D01*
X163379492Y-113945408D01*
X163370112Y-113946074D01*
X163360732Y-113945408D01*
X163355646Y-113947103D01*
X163350302Y-113947483D01*
X163341894Y-113951687D01*
X163332969Y-113954662D01*
X163328918Y-113958175D01*
X163324129Y-113960570D01*
X163317970Y-113967670D01*
X163310862Y-113973836D01*
X163308465Y-113978629D01*
X163304955Y-113982677D01*
X163298961Y-113996102D01*
X163060786Y-114713850D01*
X163058458Y-114719472D01*
X163058458Y-114720867D01*
X162962368Y-115010439D01*
X162778432Y-115010439D01*
X162777026Y-114020923D01*
X162777575Y-114008431D01*
X162777006Y-114006867D01*
X162777004Y-114005187D01*
X162772022Y-113993160D01*
X162767575Y-113980930D01*
X162766445Y-113979696D01*
X162765805Y-113978151D01*
X162756605Y-113968951D01*
X162747811Y-113959348D01*
X162746294Y-113958640D01*
X162745113Y-113957459D01*
X162733100Y-113952482D01*
X162721293Y-113946973D01*
X162719620Y-113946899D01*
X162718077Y-113946260D01*
X162705071Y-113946260D01*
X162692057Y-113945688D01*
X162690484Y-113946260D01*
X162688813Y-113946260D01*
X162676794Y-113951238D01*
X162664556Y-113955689D01*
X162663322Y-113956819D01*
X162661777Y-113957459D01*
X162652578Y-113966657D01*
X162642975Y-113975452D01*
X162641799Y-113977436D01*
X162641085Y-113978151D01*
X162640408Y-113979784D01*
X162635481Y-113988102D01*
X162370577Y-114558422D01*
X162103878Y-113989592D01*
X162099139Y-113978151D01*
X162097962Y-113976974D01*
X162097249Y-113975453D01*
X162087652Y-113966664D01*
X162078447Y-113957459D01*
X162076901Y-113956818D01*
X162075668Y-113955689D01*
X162063437Y-113951241D01*
X162051411Y-113946260D01*
X162049737Y-113946260D01*
X162048167Y-113945689D01*
X162035166Y-113946260D01*
X162022147Y-113946260D01*
X162020602Y-113946899D01*
X162018931Y-113946973D01*
X162007132Y-113952479D01*
X161995111Y-113957459D01*
X161993928Y-113958641D01*
X161992413Y-113959349D01*
X161983624Y-113968945D01*
X161974419Y-113978151D01*
X161973778Y-113979696D01*
X161972649Y-113980930D01*
X161968201Y-113993160D01*
X161963220Y-114005187D01*
X161962993Y-114007482D01*
X161962649Y-114008431D01*
X161962726Y-114010197D01*
X161961779Y-114019819D01*
X161850668Y-114019819D01*
X161850668Y-113833708D01*
X175269919Y-113833708D01*
X175269919Y-115205930D01*
G37*
G36*
X145046231Y-88957566D02*
G01*
X145072892Y-88983305D01*
X145108350Y-89052162D01*
X145109335Y-89159794D01*
X145076155Y-89228175D01*
X145045909Y-89259504D01*
X144977222Y-89294875D01*
X144686674Y-89295933D01*
X144686141Y-88920701D01*
X144929225Y-88919694D01*
X145046231Y-88957566D01*
G37*
G36*
X144993946Y-88476871D02*
G01*
X145025273Y-88507115D01*
X145060795Y-88576096D01*
X145061584Y-88636257D01*
X145028536Y-88704366D01*
X144998291Y-88735694D01*
X144929588Y-88771073D01*
X144685930Y-88772082D01*
X144685464Y-88444513D01*
X144925214Y-88443520D01*
X144993946Y-88476871D01*
G37*
G36*
X145369318Y-89555930D02*
G01*
X142425668Y-89555930D01*
X142425668Y-88369819D01*
X142536779Y-88369819D01*
X142538173Y-89167543D01*
X142537368Y-89169961D01*
X142538198Y-89181648D01*
X142538220Y-89193974D01*
X142539251Y-89196463D01*
X142539442Y-89199151D01*
X142544697Y-89212883D01*
X142593387Y-89307435D01*
X142597037Y-89316247D01*
X142599420Y-89319151D01*
X142600148Y-89320564D01*
X142601646Y-89321863D01*
X142606364Y-89327612D01*
X142655399Y-89374953D01*
X142661033Y-89381450D01*
X142664178Y-89383429D01*
X142665349Y-89384560D01*
X142667176Y-89385317D01*
X142673476Y-89389282D01*
X142759365Y-89430957D01*
X142760587Y-89432179D01*
X142769446Y-89435848D01*
X142782445Y-89442156D01*
X142785134Y-89442347D01*
X142787623Y-89443378D01*
X142802255Y-89444819D01*
X142981342Y-89443560D01*
X142983350Y-89444230D01*
X142994022Y-89443471D01*
X143007363Y-89443378D01*
X143009852Y-89442346D01*
X143012540Y-89442156D01*
X143026272Y-89436901D01*
X143120826Y-89388209D01*
X143129637Y-89384560D01*
X143132539Y-89382177D01*
X143133953Y-89381450D01*
X143135253Y-89379950D01*
X143141003Y-89375232D01*
X143188344Y-89326195D01*
X143194838Y-89320564D01*
X143196817Y-89317418D01*
X143197949Y-89316247D01*
X143198706Y-89314417D01*
X143202670Y-89308121D01*
X143244345Y-89222231D01*
X143245567Y-89221010D01*
X143249236Y-89212150D01*
X143255544Y-89199152D01*
X143255735Y-89196462D01*
X143256766Y-89193974D01*
X143258207Y-89179342D01*
X143257125Y-88560295D01*
X143536779Y-88560295D01*
X143537884Y-88644601D01*
X143537368Y-88646152D01*
X143538026Y-88655421D01*
X143538220Y-88670165D01*
X143539251Y-88672654D01*
X143539442Y-88675342D01*
X143544697Y-88689074D01*
X143593389Y-88783630D01*
X143597038Y-88792439D01*
X143599420Y-88795341D01*
X143600148Y-88796755D01*
X143601646Y-88798054D01*
X143606365Y-88803804D01*
X143655400Y-88851145D01*
X143661033Y-88857640D01*
X143664178Y-88859619D01*
X143665349Y-88860750D01*
X143667176Y-88861507D01*
X143673476Y-88865472D01*
X143764708Y-88909740D01*
X143770219Y-88913823D01*
X143781234Y-88917758D01*
X143782445Y-88918346D01*
X143782985Y-88918384D01*
X143784065Y-88918770D01*
X143961548Y-88961854D01*
X144041565Y-89000680D01*
X144072892Y-89030924D01*
X144108414Y-89099905D01*
X144109203Y-89160066D01*
X144076155Y-89228175D01*
X144045909Y-89259504D01*
X143977159Y-89294907D01*
X143770378Y-89296086D01*
X143621159Y-89247789D01*
X143591969Y-89249864D01*
X143565796Y-89262950D01*
X143546622Y-89285057D01*
X143537368Y-89312820D01*
X143539443Y-89342010D01*
X143552529Y-89368183D01*
X143574636Y-89387357D01*
X143588062Y-89393351D01*
X143730643Y-89439500D01*
X143740004Y-89443378D01*
X143743767Y-89443748D01*
X143745255Y-89444230D01*
X143747229Y-89444089D01*
X143754636Y-89444819D01*
X143981240Y-89443526D01*
X143983350Y-89444230D01*
X143994292Y-89443452D01*
X144007363Y-89443378D01*
X144009852Y-89442346D01*
X144012540Y-89442156D01*
X144026272Y-89436901D01*
X144120826Y-89388209D01*
X144129637Y-89384560D01*
X144132539Y-89382177D01*
X144133953Y-89381450D01*
X144135253Y-89379950D01*
X144141003Y-89375232D01*
X144188344Y-89326195D01*
X144194838Y-89320564D01*
X144196817Y-89317418D01*
X144197949Y-89316247D01*
X144198706Y-89314417D01*
X144202670Y-89308121D01*
X144244345Y-89222231D01*
X144245567Y-89221010D01*
X144249236Y-89212150D01*
X144255544Y-89199152D01*
X144255735Y-89196462D01*
X144256766Y-89193974D01*
X144258207Y-89179342D01*
X144257101Y-89095034D01*
X144257618Y-89093484D01*
X144256959Y-89084213D01*
X144256766Y-89069472D01*
X144255735Y-89066983D01*
X144255544Y-89064294D01*
X144250289Y-89050563D01*
X144201597Y-88956008D01*
X144197948Y-88947198D01*
X144195565Y-88944295D01*
X144194838Y-88942882D01*
X144193339Y-88941582D01*
X144188621Y-88935833D01*
X144139585Y-88888491D01*
X144133953Y-88881997D01*
X144130807Y-88880017D01*
X144129637Y-88878887D01*
X144127809Y-88878129D01*
X144121510Y-88874165D01*
X144030278Y-88829898D01*
X144024767Y-88825814D01*
X144013747Y-88821876D01*
X144012540Y-88821291D01*
X144012000Y-88821252D01*
X144010921Y-88820867D01*
X143833437Y-88777782D01*
X143753421Y-88738957D01*
X143722093Y-88708712D01*
X143686571Y-88639731D01*
X143685782Y-88579570D01*
X143718831Y-88511460D01*
X143749075Y-88480133D01*
X143817826Y-88444730D01*
X144024607Y-88443551D01*
X144173826Y-88491849D01*
X144203016Y-88489774D01*
X144229190Y-88476688D01*
X144248364Y-88454580D01*
X144257618Y-88426818D01*
X144255543Y-88397628D01*
X144242456Y-88371455D01*
X144240570Y-88369819D01*
X144536779Y-88369819D01*
X144538220Y-89384451D01*
X144549419Y-89411487D01*
X144570111Y-89432179D01*
X144597147Y-89443378D01*
X144611779Y-89444819D01*
X144981081Y-89443473D01*
X144983350Y-89444230D01*
X144994691Y-89443424D01*
X145007363Y-89443378D01*
X145009852Y-89442346D01*
X145012540Y-89442156D01*
X145026272Y-89436901D01*
X145120826Y-89388209D01*
X145129637Y-89384560D01*
X145132539Y-89382177D01*
X145133953Y-89381450D01*
X145135253Y-89379950D01*
X145141003Y-89375232D01*
X145188344Y-89326195D01*
X145194838Y-89320564D01*
X145196817Y-89317418D01*
X145197949Y-89316247D01*
X145198706Y-89314417D01*
X145202670Y-89308121D01*
X145244345Y-89222231D01*
X145245567Y-89221010D01*
X145249236Y-89212150D01*
X145255544Y-89199152D01*
X145255735Y-89196462D01*
X145256766Y-89193974D01*
X145258207Y-89179342D01*
X145257002Y-89047711D01*
X145257618Y-89045865D01*
X145256892Y-89035650D01*
X145256766Y-89021853D01*
X145255735Y-89019364D01*
X145255544Y-89016675D01*
X145250289Y-89002944D01*
X145201597Y-88908389D01*
X145197948Y-88899579D01*
X145195565Y-88896676D01*
X145194838Y-88895263D01*
X145193339Y-88893963D01*
X145188621Y-88888214D01*
X145147794Y-88848798D01*
X145147218Y-88847645D01*
X145141138Y-88842371D01*
X145129637Y-88831268D01*
X145127146Y-88830236D01*
X145125111Y-88828471D01*
X145118424Y-88825485D01*
X145140724Y-88802387D01*
X145147219Y-88796755D01*
X145149198Y-88793609D01*
X145150329Y-88792439D01*
X145151086Y-88790611D01*
X145155051Y-88784312D01*
X145196726Y-88698422D01*
X145197948Y-88697201D01*
X145201617Y-88688341D01*
X145207925Y-88675343D01*
X145208116Y-88672653D01*
X145209147Y-88670165D01*
X145210588Y-88655533D01*
X145209482Y-88571225D01*
X145209999Y-88569675D01*
X145209340Y-88560404D01*
X145209147Y-88545663D01*
X145208116Y-88543174D01*
X145207925Y-88540485D01*
X145202670Y-88526754D01*
X145153978Y-88432199D01*
X145150329Y-88423389D01*
X145147946Y-88420486D01*
X145147219Y-88419073D01*
X145145720Y-88417773D01*
X145141002Y-88412024D01*
X145091966Y-88364682D01*
X145086334Y-88358188D01*
X145083188Y-88356208D01*
X145082018Y-88355078D01*
X145080190Y-88354320D01*
X145073891Y-88350356D01*
X144988002Y-88308681D01*
X144986780Y-88307459D01*
X144977914Y-88303786D01*
X144964921Y-88297482D01*
X144962233Y-88297291D01*
X144959744Y-88296260D01*
X144945112Y-88294819D01*
X144597147Y-88296260D01*
X144570111Y-88307459D01*
X144549419Y-88328151D01*
X144538220Y-88355187D01*
X144536779Y-88369819D01*
X144240570Y-88369819D01*
X144220349Y-88352281D01*
X144206924Y-88346287D01*
X144064345Y-88300138D01*
X144054982Y-88296260D01*
X144051216Y-88295889D01*
X144049730Y-88295408D01*
X144047755Y-88295548D01*
X144040350Y-88294819D01*
X143813744Y-88296111D01*
X143811635Y-88295408D01*
X143800692Y-88296185D01*
X143787623Y-88296260D01*
X143785134Y-88297290D01*
X143782445Y-88297482D01*
X143768714Y-88302737D01*
X143674159Y-88351428D01*
X143665349Y-88355078D01*
X143662446Y-88357460D01*
X143661033Y-88358188D01*
X143659733Y-88359686D01*
X143653984Y-88364405D01*
X143606642Y-88413440D01*
X143600148Y-88419073D01*
X143598168Y-88422218D01*
X143597038Y-88423389D01*
X143596280Y-88425216D01*
X143592316Y-88431516D01*
X143550641Y-88517404D01*
X143549419Y-88518627D01*
X143545746Y-88527492D01*
X143539442Y-88540486D01*
X143539251Y-88543173D01*
X143538220Y-88545663D01*
X143536779Y-88560295D01*
X143257125Y-88560295D01*
X143256766Y-88355187D01*
X143245567Y-88328151D01*
X143224875Y-88307459D01*
X143197839Y-88296260D01*
X143168575Y-88296260D01*
X143141539Y-88307459D01*
X143120847Y-88328151D01*
X143109648Y-88355187D01*
X143108207Y-88369819D01*
X143109587Y-89159274D01*
X143076155Y-89228175D01*
X143045909Y-89259504D01*
X142977119Y-89294928D01*
X142821950Y-89296018D01*
X142753421Y-89262767D01*
X142722094Y-89232521D01*
X142686751Y-89163890D01*
X142685338Y-88355187D01*
X142674139Y-88328151D01*
X142653447Y-88307459D01*
X142626411Y-88296260D01*
X142597147Y-88296260D01*
X142570111Y-88307459D01*
X142549419Y-88328151D01*
X142538220Y-88355187D01*
X142536779Y-88369819D01*
X142425668Y-88369819D01*
X142425668Y-88183708D01*
X145369318Y-88183708D01*
X145369318Y-89555930D01*
G37*
G36*
X126171231Y-87057566D02*
G01*
X126197892Y-87083305D01*
X126233350Y-87152162D01*
X126234335Y-87259794D01*
X126201155Y-87328175D01*
X126170909Y-87359504D01*
X126102222Y-87394875D01*
X125811674Y-87395933D01*
X125811141Y-87020701D01*
X126054225Y-87019694D01*
X126171231Y-87057566D01*
G37*
G36*
X126118946Y-86576871D02*
G01*
X126150273Y-86607115D01*
X126185795Y-86676096D01*
X126186584Y-86736257D01*
X126153536Y-86804366D01*
X126123291Y-86835694D01*
X126054588Y-86871073D01*
X125810930Y-86872082D01*
X125810464Y-86544513D01*
X126050214Y-86543520D01*
X126118946Y-86576871D01*
G37*
G36*
X127166358Y-86576770D02*
G01*
X127240150Y-86649152D01*
X127280843Y-86807323D01*
X127282146Y-87122077D01*
X127242032Y-87287325D01*
X127171565Y-87359166D01*
X127102119Y-87394928D01*
X126946950Y-87396018D01*
X126878628Y-87362867D01*
X126804835Y-87290485D01*
X126764142Y-87132313D01*
X126762839Y-86817559D01*
X126802953Y-86652311D01*
X126873421Y-86580470D01*
X126942866Y-86544709D01*
X127098035Y-86543619D01*
X127166358Y-86576770D01*
G37*
G36*
X128213977Y-86576770D02*
G01*
X128287769Y-86649152D01*
X128328462Y-86807323D01*
X128329765Y-87122077D01*
X128289651Y-87287325D01*
X128219184Y-87359166D01*
X128149738Y-87394928D01*
X127994569Y-87396018D01*
X127926247Y-87362867D01*
X127852454Y-87290485D01*
X127811761Y-87132313D01*
X127810458Y-86817559D01*
X127850572Y-86652311D01*
X127921040Y-86580470D01*
X127990485Y-86544709D01*
X128145654Y-86543619D01*
X128213977Y-86576770D01*
G37*
G36*
X129445258Y-87655930D02*
G01*
X125550668Y-87655930D01*
X125550668Y-86469819D01*
X125661779Y-86469819D01*
X125663220Y-87484451D01*
X125674419Y-87511487D01*
X125695111Y-87532179D01*
X125722147Y-87543378D01*
X125736779Y-87544819D01*
X126106081Y-87543473D01*
X126108350Y-87544230D01*
X126119691Y-87543424D01*
X126132363Y-87543378D01*
X126134852Y-87542346D01*
X126137540Y-87542156D01*
X126151272Y-87536901D01*
X126245826Y-87488209D01*
X126254637Y-87484560D01*
X126257539Y-87482177D01*
X126258953Y-87481450D01*
X126260253Y-87479950D01*
X126266003Y-87475232D01*
X126313344Y-87426195D01*
X126319838Y-87420564D01*
X126321817Y-87417418D01*
X126322949Y-87416247D01*
X126323706Y-87414417D01*
X126327670Y-87408121D01*
X126369345Y-87322231D01*
X126370567Y-87321010D01*
X126374236Y-87312150D01*
X126380544Y-87299152D01*
X126380735Y-87296462D01*
X126381766Y-87293974D01*
X126383207Y-87279342D01*
X126382002Y-87147711D01*
X126382618Y-87145865D01*
X126381892Y-87135650D01*
X126381766Y-87121853D01*
X126380735Y-87119364D01*
X126380544Y-87116675D01*
X126375289Y-87102944D01*
X126326597Y-87008389D01*
X126322948Y-86999579D01*
X126320565Y-86996676D01*
X126319838Y-86995263D01*
X126318339Y-86993963D01*
X126313621Y-86988214D01*
X126272794Y-86948798D01*
X126272218Y-86947645D01*
X126266138Y-86942371D01*
X126254637Y-86931268D01*
X126252146Y-86930236D01*
X126250111Y-86928471D01*
X126243424Y-86925485D01*
X126265724Y-86902387D01*
X126272219Y-86896755D01*
X126274198Y-86893609D01*
X126275329Y-86892439D01*
X126276086Y-86890611D01*
X126280051Y-86884312D01*
X126319431Y-86803152D01*
X126614160Y-86803152D01*
X126615520Y-87131588D01*
X126614249Y-87140131D01*
X126615593Y-87149223D01*
X126615601Y-87151117D01*
X126616023Y-87152138D01*
X126616399Y-87154675D01*
X126663220Y-87336666D01*
X126663220Y-87341592D01*
X126666564Y-87349667D01*
X126668965Y-87358997D01*
X126672284Y-87363476D01*
X126674418Y-87368628D01*
X126683746Y-87379994D01*
X126779513Y-87473932D01*
X126786033Y-87481450D01*
X126789226Y-87483460D01*
X126790349Y-87484561D01*
X126792181Y-87485319D01*
X126798476Y-87489282D01*
X126884365Y-87530957D01*
X126885587Y-87532179D01*
X126894446Y-87535848D01*
X126907445Y-87542156D01*
X126910134Y-87542347D01*
X126912623Y-87543378D01*
X126927255Y-87544819D01*
X127106342Y-87543560D01*
X127108350Y-87544230D01*
X127119022Y-87543471D01*
X127132363Y-87543378D01*
X127134852Y-87542346D01*
X127137540Y-87542156D01*
X127151272Y-87536901D01*
X127245826Y-87488209D01*
X127254637Y-87484560D01*
X127257539Y-87482177D01*
X127258953Y-87481450D01*
X127260252Y-87479951D01*
X127266002Y-87475233D01*
X127354597Y-87384909D01*
X127358599Y-87382509D01*
X127363684Y-87375645D01*
X127370568Y-87368628D01*
X127372701Y-87363476D01*
X127376021Y-87358997D01*
X127380968Y-87345151D01*
X127426208Y-87158785D01*
X127429385Y-87151117D01*
X127430282Y-87142002D01*
X127430737Y-87140131D01*
X127430574Y-87139038D01*
X127430826Y-87136485D01*
X127429465Y-86808048D01*
X127430194Y-86803152D01*
X127661779Y-86803152D01*
X127663139Y-87131588D01*
X127661868Y-87140131D01*
X127663212Y-87149223D01*
X127663220Y-87151117D01*
X127663642Y-87152138D01*
X127664018Y-87154675D01*
X127710839Y-87336666D01*
X127710839Y-87341592D01*
X127714183Y-87349667D01*
X127716584Y-87358997D01*
X127719903Y-87363476D01*
X127722037Y-87368628D01*
X127731365Y-87379994D01*
X127827132Y-87473932D01*
X127833652Y-87481450D01*
X127836845Y-87483460D01*
X127837968Y-87484561D01*
X127839800Y-87485319D01*
X127846095Y-87489282D01*
X127931984Y-87530957D01*
X127933206Y-87532179D01*
X127942065Y-87535848D01*
X127955064Y-87542156D01*
X127957753Y-87542347D01*
X127960242Y-87543378D01*
X127974874Y-87544819D01*
X128153961Y-87543560D01*
X128155969Y-87544230D01*
X128166641Y-87543471D01*
X128179982Y-87543378D01*
X128182471Y-87542346D01*
X128185159Y-87542156D01*
X128198891Y-87536901D01*
X128293445Y-87488209D01*
X128302256Y-87484560D01*
X128305158Y-87482177D01*
X128306572Y-87481450D01*
X128307871Y-87479951D01*
X128313621Y-87475233D01*
X128402216Y-87384909D01*
X128406218Y-87382509D01*
X128411303Y-87375645D01*
X128418187Y-87368628D01*
X128420320Y-87363476D01*
X128423640Y-87358997D01*
X128428587Y-87345151D01*
X128473827Y-87158785D01*
X128477004Y-87151117D01*
X128477901Y-87142002D01*
X128478356Y-87140131D01*
X128478193Y-87139038D01*
X128478445Y-87136485D01*
X128477084Y-86808048D01*
X128478356Y-86799506D01*
X128477011Y-86790413D01*
X128477004Y-86788520D01*
X128476581Y-86787498D01*
X128476206Y-86784962D01*
X128429385Y-86602970D01*
X128429385Y-86598045D01*
X128426039Y-86589968D01*
X128423640Y-86580640D01*
X128420321Y-86576161D01*
X128418187Y-86571008D01*
X128408859Y-86559643D01*
X128332201Y-86484451D01*
X128615601Y-86484451D01*
X128626800Y-86511487D01*
X128647492Y-86532179D01*
X128674528Y-86543378D01*
X128689160Y-86544819D01*
X128899979Y-86544300D01*
X128901315Y-87484451D01*
X128912514Y-87511487D01*
X128933206Y-87532179D01*
X128960242Y-87543378D01*
X128989506Y-87543378D01*
X129016542Y-87532179D01*
X129037234Y-87511487D01*
X129048433Y-87484451D01*
X129049874Y-87469819D01*
X129048559Y-86543935D01*
X129275220Y-86543378D01*
X129302256Y-86532179D01*
X129322948Y-86511487D01*
X129334147Y-86484451D01*
X129334147Y-86455187D01*
X129322948Y-86428151D01*
X129302256Y-86407459D01*
X129275220Y-86396260D01*
X129260588Y-86394819D01*
X128674528Y-86396260D01*
X128647492Y-86407459D01*
X128626800Y-86428151D01*
X128615601Y-86455187D01*
X128615601Y-86484451D01*
X128332201Y-86484451D01*
X128313096Y-86465711D01*
X128306572Y-86458188D01*
X128303375Y-86456175D01*
X128302256Y-86455078D01*
X128300428Y-86454320D01*
X128294129Y-86450356D01*
X128208240Y-86408681D01*
X128207018Y-86407459D01*
X128198152Y-86403786D01*
X128185159Y-86397482D01*
X128182471Y-86397291D01*
X128179982Y-86396260D01*
X128165350Y-86394819D01*
X127986261Y-86396077D01*
X127984254Y-86395408D01*
X127973581Y-86396166D01*
X127960242Y-86396260D01*
X127957753Y-86397290D01*
X127955064Y-86397482D01*
X127941333Y-86402737D01*
X127846783Y-86451425D01*
X127837968Y-86455077D01*
X127835062Y-86457461D01*
X127833652Y-86458188D01*
X127832353Y-86459684D01*
X127826603Y-86464405D01*
X127738007Y-86554726D01*
X127734006Y-86557128D01*
X127728919Y-86563991D01*
X127722038Y-86571008D01*
X127719904Y-86576158D01*
X127716584Y-86580640D01*
X127711637Y-86594486D01*
X127666396Y-86780851D01*
X127663220Y-86788520D01*
X127662322Y-86797634D01*
X127661868Y-86799506D01*
X127662030Y-86800598D01*
X127661779Y-86803152D01*
X127430194Y-86803152D01*
X127430737Y-86799506D01*
X127429392Y-86790413D01*
X127429385Y-86788520D01*
X127428962Y-86787498D01*
X127428587Y-86784962D01*
X127381766Y-86602970D01*
X127381766Y-86598045D01*
X127378420Y-86589968D01*
X127376021Y-86580640D01*
X127372702Y-86576161D01*
X127370568Y-86571008D01*
X127361240Y-86559643D01*
X127265477Y-86465711D01*
X127258953Y-86458188D01*
X127255756Y-86456175D01*
X127254637Y-86455078D01*
X127252809Y-86454320D01*
X127246510Y-86450356D01*
X127160621Y-86408681D01*
X127159399Y-86407459D01*
X127150533Y-86403786D01*
X127137540Y-86397482D01*
X127134852Y-86397291D01*
X127132363Y-86396260D01*
X127117731Y-86394819D01*
X126938642Y-86396077D01*
X126936635Y-86395408D01*
X126925962Y-86396166D01*
X126912623Y-86396260D01*
X126910134Y-86397290D01*
X126907445Y-86397482D01*
X126893714Y-86402737D01*
X126799164Y-86451425D01*
X126790349Y-86455077D01*
X126787443Y-86457461D01*
X126786033Y-86458188D01*
X126784734Y-86459684D01*
X126778984Y-86464405D01*
X126690388Y-86554726D01*
X126686387Y-86557128D01*
X126681300Y-86563991D01*
X126674419Y-86571008D01*
X126672285Y-86576158D01*
X126668965Y-86580640D01*
X126664018Y-86594486D01*
X126618777Y-86780851D01*
X126615601Y-86788520D01*
X126614703Y-86797634D01*
X126614249Y-86799506D01*
X126614411Y-86800598D01*
X126614160Y-86803152D01*
X126319431Y-86803152D01*
X126321726Y-86798422D01*
X126322948Y-86797201D01*
X126326617Y-86788341D01*
X126332925Y-86775343D01*
X126333116Y-86772653D01*
X126334147Y-86770165D01*
X126335588Y-86755533D01*
X126334482Y-86671225D01*
X126334999Y-86669675D01*
X126334340Y-86660404D01*
X126334147Y-86645663D01*
X126333116Y-86643174D01*
X126332925Y-86640485D01*
X126327670Y-86626754D01*
X126278978Y-86532199D01*
X126275329Y-86523389D01*
X126272946Y-86520486D01*
X126272219Y-86519073D01*
X126270720Y-86517773D01*
X126266002Y-86512024D01*
X126216966Y-86464682D01*
X126211334Y-86458188D01*
X126208188Y-86456208D01*
X126207018Y-86455078D01*
X126205190Y-86454320D01*
X126198891Y-86450356D01*
X126113002Y-86408681D01*
X126111780Y-86407459D01*
X126102914Y-86403786D01*
X126089921Y-86397482D01*
X126087233Y-86397291D01*
X126084744Y-86396260D01*
X126070112Y-86394819D01*
X125722147Y-86396260D01*
X125695111Y-86407459D01*
X125674419Y-86428151D01*
X125663220Y-86455187D01*
X125661779Y-86469819D01*
X125550668Y-86469819D01*
X125550668Y-86283708D01*
X129445258Y-86283708D01*
X129445258Y-87655930D01*
G37*
G36*
X178771327Y-109676871D02*
G01*
X178802654Y-109707115D01*
X178838112Y-109775972D01*
X178839097Y-109883604D01*
X178805917Y-109951985D01*
X178775672Y-109983313D01*
X178706984Y-110018684D01*
X178580833Y-110019144D01*
X178578011Y-110018646D01*
X178575677Y-110019162D01*
X178415759Y-110019745D01*
X178415226Y-109644550D01*
X178702560Y-109643503D01*
X178771327Y-109676871D01*
G37*
G36*
X175905174Y-110209406D02*
G01*
X175635134Y-110210199D01*
X175769679Y-109804742D01*
X175905174Y-110209406D01*
G37*
G36*
X175009422Y-109676871D02*
G01*
X175040749Y-109707115D01*
X175076207Y-109775972D01*
X175077192Y-109883604D01*
X175044012Y-109951985D01*
X175013767Y-109983313D01*
X174945079Y-110018684D01*
X174653854Y-110019745D01*
X174653321Y-109644550D01*
X174940655Y-109643503D01*
X175009422Y-109676871D01*
G37*
G36*
X176866565Y-109676871D02*
G01*
X176897892Y-109707115D01*
X176933350Y-109775972D01*
X176934335Y-109883604D01*
X176901155Y-109951985D01*
X176870910Y-109983313D01*
X176802222Y-110018684D01*
X176510997Y-110019745D01*
X176510464Y-109644550D01*
X176797798Y-109643503D01*
X176866565Y-109676871D01*
G37*
G36*
X179099080Y-110755930D02*
G01*
X172250668Y-110755930D01*
X172250668Y-109569819D01*
X172361779Y-109569819D01*
X172363220Y-110584451D01*
X172374419Y-110611487D01*
X172395111Y-110632179D01*
X172422147Y-110643378D01*
X172436779Y-110644819D01*
X172927601Y-110643378D01*
X172954637Y-110632179D01*
X172975329Y-110611487D01*
X172986528Y-110584451D01*
X172986528Y-110555187D01*
X172975329Y-110528151D01*
X172954637Y-110507459D01*
X172927601Y-110496260D01*
X172912969Y-110494819D01*
X172511674Y-110495997D01*
X172511259Y-110203498D01*
X173267982Y-110203498D01*
X173279181Y-110230534D01*
X173299873Y-110251226D01*
X173326909Y-110262425D01*
X173341541Y-110263866D01*
X174118078Y-110262425D01*
X174145114Y-110251226D01*
X174165806Y-110230534D01*
X174177005Y-110203498D01*
X174177005Y-110174234D01*
X174165806Y-110147198D01*
X174145114Y-110126506D01*
X174118078Y-110115307D01*
X174103446Y-110113866D01*
X173326909Y-110115307D01*
X173299873Y-110126506D01*
X173279181Y-110147198D01*
X173267982Y-110174234D01*
X173267982Y-110203498D01*
X172511259Y-110203498D01*
X172511141Y-110120701D01*
X172784744Y-110119568D01*
X172811780Y-110108369D01*
X172832472Y-110087677D01*
X172843671Y-110060641D01*
X172843671Y-110031377D01*
X172832472Y-110004341D01*
X172811780Y-109983649D01*
X172784744Y-109972450D01*
X172770112Y-109971009D01*
X172510930Y-109972082D01*
X172510464Y-109644602D01*
X172927601Y-109643378D01*
X172954637Y-109632179D01*
X172975329Y-109611487D01*
X172986528Y-109584451D01*
X172986528Y-109569819D01*
X174504636Y-109569819D01*
X174506077Y-110584451D01*
X174517276Y-110611487D01*
X174537968Y-110632179D01*
X174565004Y-110643378D01*
X174594268Y-110643378D01*
X174621304Y-110632179D01*
X174641996Y-110611487D01*
X174653195Y-110584451D01*
X174654636Y-110569819D01*
X174654623Y-110560439D01*
X175362368Y-110560439D01*
X175364443Y-110589629D01*
X175377529Y-110615802D01*
X175399636Y-110634976D01*
X175427399Y-110644230D01*
X175456589Y-110642155D01*
X175482762Y-110629069D01*
X175501936Y-110606962D01*
X175507930Y-110593536D01*
X175585775Y-110358946D01*
X175954881Y-110357862D01*
X176038288Y-110606961D01*
X176057462Y-110629068D01*
X176083635Y-110642155D01*
X176112825Y-110644230D01*
X176140587Y-110634976D01*
X176162695Y-110615802D01*
X176175781Y-110589628D01*
X176177856Y-110560438D01*
X176174596Y-110546102D01*
X175847705Y-109569819D01*
X176361779Y-109569819D01*
X176363220Y-110584451D01*
X176374419Y-110611487D01*
X176395111Y-110632179D01*
X176422147Y-110643378D01*
X176451411Y-110643378D01*
X176478447Y-110632179D01*
X176499139Y-110611487D01*
X176510338Y-110584451D01*
X176511779Y-110569819D01*
X176511208Y-110168356D01*
X176806081Y-110167282D01*
X176808350Y-110168039D01*
X176819691Y-110167233D01*
X176832363Y-110167187D01*
X176834852Y-110166155D01*
X176837540Y-110165965D01*
X176851272Y-110160710D01*
X176945828Y-110112017D01*
X176954637Y-110108369D01*
X176957539Y-110105986D01*
X176958953Y-110105259D01*
X176960252Y-110103760D01*
X176966002Y-110099042D01*
X177013343Y-110050006D01*
X177019838Y-110044374D01*
X177021817Y-110041228D01*
X177022948Y-110040058D01*
X177023705Y-110038230D01*
X177027670Y-110031931D01*
X177069345Y-109946041D01*
X177070567Y-109944820D01*
X177074236Y-109935960D01*
X177080544Y-109922962D01*
X177080735Y-109920272D01*
X177081766Y-109917784D01*
X177083207Y-109903152D01*
X177082002Y-109771521D01*
X177082618Y-109769675D01*
X177081892Y-109759460D01*
X177081766Y-109745663D01*
X177080735Y-109743174D01*
X177080544Y-109740485D01*
X177075289Y-109726754D01*
X177026597Y-109632199D01*
X177022948Y-109623389D01*
X177020565Y-109620486D01*
X177019838Y-109619073D01*
X177018339Y-109617773D01*
X177013621Y-109612024D01*
X176969906Y-109569819D01*
X177361779Y-109569819D01*
X177363220Y-110584451D01*
X177374419Y-110611487D01*
X177395111Y-110632179D01*
X177422147Y-110643378D01*
X177436779Y-110644819D01*
X177927601Y-110643378D01*
X177954637Y-110632179D01*
X177975329Y-110611487D01*
X177986528Y-110584451D01*
X177986528Y-110555187D01*
X177975329Y-110528151D01*
X177954637Y-110507459D01*
X177927601Y-110496260D01*
X177912969Y-110494819D01*
X177511674Y-110495997D01*
X177511141Y-110120701D01*
X177784744Y-110119568D01*
X177811780Y-110108369D01*
X177832472Y-110087677D01*
X177843671Y-110060641D01*
X177843671Y-110031377D01*
X177832472Y-110004341D01*
X177811780Y-109983649D01*
X177784744Y-109972450D01*
X177770112Y-109971009D01*
X177510930Y-109972082D01*
X177510464Y-109644602D01*
X177927601Y-109643378D01*
X177954637Y-109632179D01*
X177975329Y-109611487D01*
X177986528Y-109584451D01*
X177986528Y-109569819D01*
X178266541Y-109569819D01*
X178267982Y-110584451D01*
X178279181Y-110611487D01*
X178299873Y-110632179D01*
X178326909Y-110643378D01*
X178356173Y-110643378D01*
X178383209Y-110632179D01*
X178403901Y-110611487D01*
X178415100Y-110584451D01*
X178416541Y-110569819D01*
X178415970Y-110168356D01*
X178540193Y-110167904D01*
X178861098Y-110623989D01*
X178885777Y-110639716D01*
X178914594Y-110644802D01*
X178943165Y-110638472D01*
X178967139Y-110621690D01*
X178982866Y-110597012D01*
X178987951Y-110568194D01*
X178981622Y-110539623D01*
X178974412Y-110526810D01*
X178721555Y-110167439D01*
X178724453Y-110167233D01*
X178737125Y-110167187D01*
X178739614Y-110166155D01*
X178742302Y-110165965D01*
X178756034Y-110160710D01*
X178850590Y-110112017D01*
X178859399Y-110108369D01*
X178862301Y-110105986D01*
X178863715Y-110105259D01*
X178865014Y-110103760D01*
X178870764Y-110099042D01*
X178918105Y-110050006D01*
X178924600Y-110044374D01*
X178926579Y-110041228D01*
X178927710Y-110040058D01*
X178928467Y-110038230D01*
X178932432Y-110031931D01*
X178974107Y-109946041D01*
X178975329Y-109944820D01*
X178978998Y-109935960D01*
X178985306Y-109922962D01*
X178985497Y-109920272D01*
X178986528Y-109917784D01*
X178987969Y-109903152D01*
X178986764Y-109771521D01*
X178987380Y-109769675D01*
X178986654Y-109759460D01*
X178986528Y-109745663D01*
X178985497Y-109743174D01*
X178985306Y-109740485D01*
X178980051Y-109726754D01*
X178931359Y-109632199D01*
X178927710Y-109623389D01*
X178925327Y-109620486D01*
X178924600Y-109619073D01*
X178923101Y-109617773D01*
X178918383Y-109612024D01*
X178869347Y-109564682D01*
X178863715Y-109558188D01*
X178860569Y-109556208D01*
X178859399Y-109555078D01*
X178857571Y-109554320D01*
X178851272Y-109550356D01*
X178765383Y-109508681D01*
X178764161Y-109507459D01*
X178755295Y-109503786D01*
X178742302Y-109497482D01*
X178739614Y-109497291D01*
X178737125Y-109496260D01*
X178722493Y-109494819D01*
X178326909Y-109496260D01*
X178299873Y-109507459D01*
X178279181Y-109528151D01*
X178267982Y-109555187D01*
X178266541Y-109569819D01*
X177986528Y-109569819D01*
X177986528Y-109555187D01*
X177975329Y-109528151D01*
X177954637Y-109507459D01*
X177927601Y-109496260D01*
X177912969Y-109494819D01*
X177422147Y-109496260D01*
X177395111Y-109507459D01*
X177374419Y-109528151D01*
X177363220Y-109555187D01*
X177361779Y-109569819D01*
X176969906Y-109569819D01*
X176964585Y-109564682D01*
X176958953Y-109558188D01*
X176955807Y-109556208D01*
X176954637Y-109555078D01*
X176952809Y-109554320D01*
X176946510Y-109550356D01*
X176860621Y-109508681D01*
X176859399Y-109507459D01*
X176850533Y-109503786D01*
X176837540Y-109497482D01*
X176834852Y-109497291D01*
X176832363Y-109496260D01*
X176817731Y-109494819D01*
X176422147Y-109496260D01*
X176395111Y-109507459D01*
X176374419Y-109528151D01*
X176363220Y-109555187D01*
X176361779Y-109569819D01*
X175847705Y-109569819D01*
X175842818Y-109555223D01*
X175842448Y-109550010D01*
X175838284Y-109541683D01*
X175835269Y-109532676D01*
X175831757Y-109528627D01*
X175829362Y-109523836D01*
X175822258Y-109517674D01*
X175816095Y-109510569D01*
X175811301Y-109508172D01*
X175807254Y-109504662D01*
X175798332Y-109501688D01*
X175789922Y-109497483D01*
X175784577Y-109497103D01*
X175779492Y-109495408D01*
X175770112Y-109496074D01*
X175760732Y-109495408D01*
X175755646Y-109497103D01*
X175750302Y-109497483D01*
X175741894Y-109501687D01*
X175732969Y-109504662D01*
X175728918Y-109508175D01*
X175724129Y-109510570D01*
X175717970Y-109517670D01*
X175710862Y-109523836D01*
X175708465Y-109528629D01*
X175704955Y-109532677D01*
X175698961Y-109546102D01*
X175460786Y-110263850D01*
X175458458Y-110269472D01*
X175458458Y-110270867D01*
X175362368Y-110560439D01*
X174654623Y-110560439D01*
X174654065Y-110168356D01*
X174948938Y-110167282D01*
X174951207Y-110168039D01*
X174962548Y-110167233D01*
X174975220Y-110167187D01*
X174977709Y-110166155D01*
X174980397Y-110165965D01*
X174994129Y-110160710D01*
X175088685Y-110112017D01*
X175097494Y-110108369D01*
X175100396Y-110105986D01*
X175101810Y-110105259D01*
X175103109Y-110103760D01*
X175108859Y-110099042D01*
X175156200Y-110050006D01*
X175162695Y-110044374D01*
X175164674Y-110041228D01*
X175165805Y-110040058D01*
X175166562Y-110038230D01*
X175170527Y-110031931D01*
X175212202Y-109946041D01*
X175213424Y-109944820D01*
X175217093Y-109935960D01*
X175223401Y-109922962D01*
X175223592Y-109920272D01*
X175224623Y-109917784D01*
X175226064Y-109903152D01*
X175224859Y-109771521D01*
X175225475Y-109769675D01*
X175224749Y-109759460D01*
X175224623Y-109745663D01*
X175223592Y-109743174D01*
X175223401Y-109740485D01*
X175218146Y-109726754D01*
X175169454Y-109632199D01*
X175165805Y-109623389D01*
X175163422Y-109620486D01*
X175162695Y-109619073D01*
X175161196Y-109617773D01*
X175156478Y-109612024D01*
X175107442Y-109564682D01*
X175101810Y-109558188D01*
X175098664Y-109556208D01*
X175097494Y-109555078D01*
X175095666Y-109554320D01*
X175089367Y-109550356D01*
X175003478Y-109508681D01*
X175002256Y-109507459D01*
X174993390Y-109503786D01*
X174980397Y-109497482D01*
X174977709Y-109497291D01*
X174975220Y-109496260D01*
X174960588Y-109494819D01*
X174565004Y-109496260D01*
X174537968Y-109507459D01*
X174517276Y-109528151D01*
X174506077Y-109555187D01*
X174504636Y-109569819D01*
X172986528Y-109569819D01*
X172986528Y-109555187D01*
X172975329Y-109528151D01*
X172954637Y-109507459D01*
X172927601Y-109496260D01*
X172912969Y-109494819D01*
X172422147Y-109496260D01*
X172395111Y-109507459D01*
X172374419Y-109528151D01*
X172363220Y-109555187D01*
X172361779Y-109569819D01*
X172250668Y-109569819D01*
X172250668Y-109383708D01*
X179099080Y-109383708D01*
X179099080Y-110755930D01*
G37*
G36*
X148046231Y-109907566D02*
G01*
X148072892Y-109933305D01*
X148108350Y-110002162D01*
X148109335Y-110109794D01*
X148076155Y-110178175D01*
X148045909Y-110209504D01*
X147977222Y-110244875D01*
X147686674Y-110245933D01*
X147686141Y-109870701D01*
X147929225Y-109869694D01*
X148046231Y-109907566D01*
G37*
G36*
X147993946Y-109426871D02*
G01*
X148025273Y-109457115D01*
X148060795Y-109526096D01*
X148061584Y-109586257D01*
X148028536Y-109654366D01*
X147998291Y-109685694D01*
X147929588Y-109721073D01*
X147685930Y-109722082D01*
X147685464Y-109394513D01*
X147925214Y-109393520D01*
X147993946Y-109426871D01*
G37*
G36*
X151041565Y-109807823D02*
G01*
X151072892Y-109838067D01*
X151108295Y-109906818D01*
X151109451Y-110109554D01*
X151076155Y-110178175D01*
X151045909Y-110209504D01*
X150977119Y-110244928D01*
X150821950Y-110246018D01*
X150753421Y-110212767D01*
X150722094Y-110182521D01*
X150686722Y-110113833D01*
X150685980Y-109910115D01*
X150718831Y-109842412D01*
X150749075Y-109811085D01*
X150817866Y-109775661D01*
X150973035Y-109774571D01*
X151041565Y-109807823D01*
G37*
G36*
X151993946Y-109855442D02*
G01*
X152025273Y-109885686D01*
X152060697Y-109954477D01*
X152061787Y-110109646D01*
X152028536Y-110178175D01*
X151998290Y-110209504D01*
X151929500Y-110244928D01*
X151774331Y-110246018D01*
X151705802Y-110212767D01*
X151674475Y-110182521D01*
X151639050Y-110113730D01*
X151637960Y-109958561D01*
X151671212Y-109890031D01*
X151701456Y-109858704D01*
X151770247Y-109823280D01*
X151925416Y-109822190D01*
X151993946Y-109855442D01*
G37*
G36*
X151993946Y-109426871D02*
G01*
X152025273Y-109457115D01*
X152060961Y-109526418D01*
X152061259Y-109539307D01*
X152028536Y-109606747D01*
X151998291Y-109638075D01*
X151929500Y-109673499D01*
X151774331Y-109674589D01*
X151705802Y-109641338D01*
X151674474Y-109611093D01*
X151638786Y-109541790D01*
X151638488Y-109528901D01*
X151671212Y-109461460D01*
X151701456Y-109430133D01*
X151770247Y-109394709D01*
X151925416Y-109393619D01*
X151993946Y-109426871D01*
G37*
G36*
X152898708Y-109426871D02*
G01*
X152930035Y-109457115D01*
X152968389Y-109531596D01*
X153012992Y-109704968D01*
X153014245Y-109924641D01*
X152972123Y-110098159D01*
X152933298Y-110178175D01*
X152903052Y-110209504D01*
X152834072Y-110245026D01*
X152773911Y-110245815D01*
X152705802Y-110212767D01*
X152674475Y-110182521D01*
X152636120Y-110108040D01*
X152591517Y-109934668D01*
X152590264Y-109714995D01*
X152632386Y-109541477D01*
X152671212Y-109461460D01*
X152701456Y-109430133D01*
X152770437Y-109394611D01*
X152830598Y-109393822D01*
X152898708Y-109426871D01*
G37*
G36*
X153274080Y-110505930D02*
G01*
X147425668Y-110505930D01*
X147425668Y-109319819D01*
X147536779Y-109319819D01*
X147538220Y-110334451D01*
X147549419Y-110361487D01*
X147570111Y-110382179D01*
X147597147Y-110393378D01*
X147611779Y-110394819D01*
X147981081Y-110393473D01*
X147983350Y-110394230D01*
X147994691Y-110393424D01*
X148007363Y-110393378D01*
X148009852Y-110392346D01*
X148012540Y-110392156D01*
X148026272Y-110386901D01*
X148120826Y-110338209D01*
X148129637Y-110334560D01*
X148132539Y-110332177D01*
X148133953Y-110331450D01*
X148135253Y-110329950D01*
X148141003Y-110325232D01*
X148188344Y-110276195D01*
X148194838Y-110270564D01*
X148196817Y-110267418D01*
X148197949Y-110266247D01*
X148198706Y-110264417D01*
X148202670Y-110258121D01*
X148244345Y-110172231D01*
X148245567Y-110171010D01*
X148249236Y-110162150D01*
X148255544Y-110149152D01*
X148255735Y-110146462D01*
X148256766Y-110143974D01*
X148258207Y-110129342D01*
X148257002Y-109997711D01*
X148257618Y-109995865D01*
X148256892Y-109985650D01*
X148256766Y-109971853D01*
X148255735Y-109969364D01*
X148255544Y-109966675D01*
X148250289Y-109952944D01*
X148201597Y-109858389D01*
X148197948Y-109849579D01*
X148195565Y-109846676D01*
X148194838Y-109845263D01*
X148193339Y-109843963D01*
X148188621Y-109838214D01*
X148147794Y-109798798D01*
X148147218Y-109797645D01*
X148141138Y-109792371D01*
X148129637Y-109781268D01*
X148127146Y-109780236D01*
X148125111Y-109778471D01*
X148118424Y-109775485D01*
X148140724Y-109752387D01*
X148147219Y-109746755D01*
X148149198Y-109743609D01*
X148150329Y-109742439D01*
X148151086Y-109740611D01*
X148155051Y-109734312D01*
X148196726Y-109648422D01*
X148197948Y-109647201D01*
X148201617Y-109638341D01*
X148207925Y-109625343D01*
X148208116Y-109622653D01*
X148209147Y-109620165D01*
X148210588Y-109605533D01*
X148209482Y-109521225D01*
X148209999Y-109519675D01*
X148209340Y-109510404D01*
X148209147Y-109495663D01*
X148208116Y-109493174D01*
X148207925Y-109490485D01*
X148202670Y-109476754D01*
X148153978Y-109382199D01*
X148150329Y-109373389D01*
X148147946Y-109370486D01*
X148147219Y-109369073D01*
X148145720Y-109367773D01*
X148141002Y-109362024D01*
X148097287Y-109319819D01*
X148536779Y-109319819D01*
X148538220Y-110334451D01*
X148549419Y-110361487D01*
X148570111Y-110382179D01*
X148597147Y-110393378D01*
X148626411Y-110393378D01*
X148653447Y-110382179D01*
X148674139Y-110361487D01*
X148685338Y-110334451D01*
X148686779Y-110319819D01*
X148685834Y-109654441D01*
X148877209Y-110062619D01*
X148880982Y-110072993D01*
X148883218Y-110075435D01*
X148884642Y-110078471D01*
X148893051Y-110086171D01*
X148900746Y-110094574D01*
X148903764Y-110095982D01*
X148906223Y-110098234D01*
X148916935Y-110102129D01*
X148927264Y-110106950D01*
X148930592Y-110107096D01*
X148933724Y-110108235D01*
X148945118Y-110107734D01*
X148956500Y-110108234D01*
X148959628Y-110107096D01*
X148962960Y-110106950D01*
X148973295Y-110102126D01*
X148984001Y-110098234D01*
X148986456Y-110095984D01*
X148989478Y-110094575D01*
X148997179Y-110086164D01*
X149005582Y-110078470D01*
X149008065Y-110074277D01*
X149009242Y-110072993D01*
X149009902Y-110071177D01*
X149013076Y-110065820D01*
X149203920Y-109654943D01*
X149204886Y-110334451D01*
X149216085Y-110361487D01*
X149236777Y-110382179D01*
X149263813Y-110393378D01*
X149293077Y-110393378D01*
X149320113Y-110382179D01*
X149340805Y-110361487D01*
X149352004Y-110334451D01*
X149353445Y-110319819D01*
X149352026Y-109320923D01*
X149352075Y-109319819D01*
X149679636Y-109319819D01*
X149681077Y-110334451D01*
X149692276Y-110361487D01*
X149712968Y-110382179D01*
X149740004Y-110393378D01*
X149754636Y-110394819D01*
X150245458Y-110393378D01*
X150272494Y-110382179D01*
X150293186Y-110361487D01*
X150304385Y-110334451D01*
X150304385Y-110305187D01*
X150293186Y-110278151D01*
X150272494Y-110257459D01*
X150245458Y-110246260D01*
X150230826Y-110244819D01*
X149829531Y-110245997D01*
X149828998Y-109870701D01*
X150102601Y-109869568D01*
X150129637Y-109858369D01*
X150150329Y-109837677D01*
X150161528Y-109810641D01*
X150161528Y-109781377D01*
X150150329Y-109754341D01*
X150144378Y-109748390D01*
X150536779Y-109748390D01*
X150538124Y-110117692D01*
X150537368Y-110119961D01*
X150538173Y-110131302D01*
X150538220Y-110143974D01*
X150539251Y-110146463D01*
X150539442Y-110149151D01*
X150544697Y-110162883D01*
X150593387Y-110257435D01*
X150597037Y-110266247D01*
X150599420Y-110269151D01*
X150600148Y-110270564D01*
X150601646Y-110271863D01*
X150606364Y-110277612D01*
X150655399Y-110324953D01*
X150661033Y-110331450D01*
X150664178Y-110333429D01*
X150665349Y-110334560D01*
X150667176Y-110335317D01*
X150673476Y-110339282D01*
X150759365Y-110380957D01*
X150760587Y-110382179D01*
X150769446Y-110385848D01*
X150782445Y-110392156D01*
X150785134Y-110392347D01*
X150787623Y-110393378D01*
X150802255Y-110394819D01*
X150981342Y-110393560D01*
X150983350Y-110394230D01*
X150994022Y-110393471D01*
X151007363Y-110393378D01*
X151009852Y-110392346D01*
X151012540Y-110392156D01*
X151026272Y-110386901D01*
X151120826Y-110338209D01*
X151129637Y-110334560D01*
X151132539Y-110332177D01*
X151133953Y-110331450D01*
X151135253Y-110329950D01*
X151141003Y-110325232D01*
X151188344Y-110276195D01*
X151194838Y-110270564D01*
X151196817Y-110267418D01*
X151197949Y-110266247D01*
X151198706Y-110264417D01*
X151202670Y-110258121D01*
X151244345Y-110172231D01*
X151245567Y-110171010D01*
X151249236Y-110162150D01*
X151255544Y-110149152D01*
X151255735Y-110146462D01*
X151256766Y-110143974D01*
X151258207Y-110129342D01*
X151257120Y-109938866D01*
X151489160Y-109938866D01*
X151490418Y-110117953D01*
X151489749Y-110119961D01*
X151490507Y-110130633D01*
X151490601Y-110143974D01*
X151491632Y-110146463D01*
X151491823Y-110149151D01*
X151497078Y-110162883D01*
X151545768Y-110257435D01*
X151549418Y-110266247D01*
X151551801Y-110269151D01*
X151552529Y-110270564D01*
X151554027Y-110271863D01*
X151558745Y-110277612D01*
X151607780Y-110324953D01*
X151613414Y-110331450D01*
X151616559Y-110333429D01*
X151617730Y-110334560D01*
X151619557Y-110335317D01*
X151625857Y-110339282D01*
X151711746Y-110380957D01*
X151712968Y-110382179D01*
X151721827Y-110385848D01*
X151734826Y-110392156D01*
X151737515Y-110392347D01*
X151740004Y-110393378D01*
X151754636Y-110394819D01*
X151933723Y-110393560D01*
X151935731Y-110394230D01*
X151946403Y-110393471D01*
X151959744Y-110393378D01*
X151962233Y-110392346D01*
X151964921Y-110392156D01*
X151978653Y-110386901D01*
X152073207Y-110338209D01*
X152082018Y-110334560D01*
X152084920Y-110332177D01*
X152086334Y-110331450D01*
X152087634Y-110329950D01*
X152093384Y-110325232D01*
X152140725Y-110276195D01*
X152147219Y-110270564D01*
X152149198Y-110267418D01*
X152150330Y-110266247D01*
X152151087Y-110264417D01*
X152155051Y-110258121D01*
X152196726Y-110172231D01*
X152197948Y-110171010D01*
X152201617Y-110162150D01*
X152207925Y-110149152D01*
X152208116Y-110146462D01*
X152209147Y-110143974D01*
X152210588Y-110129342D01*
X152209329Y-109950253D01*
X152209999Y-109948246D01*
X152209240Y-109937573D01*
X152209147Y-109924234D01*
X152208116Y-109921745D01*
X152207925Y-109919056D01*
X152202670Y-109905325D01*
X152153978Y-109810770D01*
X152150329Y-109801960D01*
X152147946Y-109799057D01*
X152147219Y-109797644D01*
X152145720Y-109796344D01*
X152141002Y-109790595D01*
X152097971Y-109749051D01*
X152140724Y-109704768D01*
X152145333Y-109700771D01*
X152441541Y-109700771D01*
X152442871Y-109934166D01*
X152441630Y-109942512D01*
X152442971Y-109951583D01*
X152442982Y-109953498D01*
X152443404Y-109954519D01*
X152443780Y-109957056D01*
X152491297Y-110141754D01*
X152491823Y-110149151D01*
X152496025Y-110160133D01*
X152496346Y-110161378D01*
X152496668Y-110161813D01*
X152497078Y-110162883D01*
X152545768Y-110257435D01*
X152549418Y-110266247D01*
X152551801Y-110269151D01*
X152552529Y-110270564D01*
X152554027Y-110271863D01*
X152558745Y-110277612D01*
X152607780Y-110324953D01*
X152613414Y-110331450D01*
X152616559Y-110333429D01*
X152617730Y-110334560D01*
X152619557Y-110335317D01*
X152625857Y-110339282D01*
X152711746Y-110380957D01*
X152712968Y-110382179D01*
X152721827Y-110385848D01*
X152734826Y-110392156D01*
X152737515Y-110392347D01*
X152740004Y-110393378D01*
X152754636Y-110394819D01*
X152838942Y-110393713D01*
X152840493Y-110394230D01*
X152849762Y-110393571D01*
X152864506Y-110393378D01*
X152866995Y-110392346D01*
X152869683Y-110392156D01*
X152883415Y-110386901D01*
X152977969Y-110338209D01*
X152986780Y-110334560D01*
X152989682Y-110332177D01*
X152991096Y-110331450D01*
X152992396Y-110329950D01*
X152998146Y-110325232D01*
X153045487Y-110276195D01*
X153051981Y-110270564D01*
X153053960Y-110267418D01*
X153055092Y-110266247D01*
X153055849Y-110264417D01*
X153059813Y-110258121D01*
X153104081Y-110166888D01*
X153108164Y-110161378D01*
X153112099Y-110150362D01*
X153112687Y-110149152D01*
X153112725Y-110148611D01*
X153113111Y-110147532D01*
X153158351Y-109961166D01*
X153161528Y-109953498D01*
X153162425Y-109944383D01*
X153162880Y-109942512D01*
X153162717Y-109941419D01*
X153162969Y-109938866D01*
X153161638Y-109705470D01*
X153162880Y-109697125D01*
X153161538Y-109688053D01*
X153161528Y-109686139D01*
X153161105Y-109685117D01*
X153160730Y-109682581D01*
X153113212Y-109497882D01*
X153112687Y-109490485D01*
X153108483Y-109479502D01*
X153108164Y-109478259D01*
X153107841Y-109477823D01*
X153107432Y-109476754D01*
X153058740Y-109382199D01*
X153055091Y-109373389D01*
X153052708Y-109370486D01*
X153051981Y-109369073D01*
X153050482Y-109367773D01*
X153045764Y-109362024D01*
X152996728Y-109314682D01*
X152991096Y-109308188D01*
X152987950Y-109306208D01*
X152986780Y-109305078D01*
X152984952Y-109304320D01*
X152978653Y-109300356D01*
X152892764Y-109258681D01*
X152891542Y-109257459D01*
X152882676Y-109253786D01*
X152869683Y-109247482D01*
X152866995Y-109247291D01*
X152864506Y-109246260D01*
X152849874Y-109244819D01*
X152765566Y-109245924D01*
X152764016Y-109245408D01*
X152754745Y-109246066D01*
X152740004Y-109246260D01*
X152737515Y-109247290D01*
X152734826Y-109247482D01*
X152721095Y-109252737D01*
X152626540Y-109301428D01*
X152617730Y-109305078D01*
X152614827Y-109307460D01*
X152613414Y-109308188D01*
X152612114Y-109309686D01*
X152606365Y-109314405D01*
X152559023Y-109363440D01*
X152552529Y-109369073D01*
X152550549Y-109372218D01*
X152549419Y-109373389D01*
X152548661Y-109375216D01*
X152544697Y-109381516D01*
X152500430Y-109472747D01*
X152496346Y-109478259D01*
X152492408Y-109489278D01*
X152491823Y-109490486D01*
X152491784Y-109491025D01*
X152491399Y-109492105D01*
X152446158Y-109678470D01*
X152442982Y-109686139D01*
X152442084Y-109695253D01*
X152441630Y-109697125D01*
X152441792Y-109698217D01*
X152441541Y-109700771D01*
X152145333Y-109700771D01*
X152147219Y-109699136D01*
X152149198Y-109695990D01*
X152150329Y-109694820D01*
X152151086Y-109692992D01*
X152155051Y-109686693D01*
X152196726Y-109600803D01*
X152197948Y-109599582D01*
X152201617Y-109590722D01*
X152207925Y-109577724D01*
X152208116Y-109575034D01*
X152209147Y-109572546D01*
X152210588Y-109557914D01*
X152209722Y-109520505D01*
X152209999Y-109519675D01*
X152209559Y-109513492D01*
X152209147Y-109495663D01*
X152208116Y-109493174D01*
X152207925Y-109490485D01*
X152202670Y-109476754D01*
X152153978Y-109382199D01*
X152150329Y-109373389D01*
X152147946Y-109370486D01*
X152147219Y-109369073D01*
X152145720Y-109367773D01*
X152141002Y-109362024D01*
X152091966Y-109314682D01*
X152086334Y-109308188D01*
X152083188Y-109306208D01*
X152082018Y-109305078D01*
X152080190Y-109304320D01*
X152073891Y-109300356D01*
X151988002Y-109258681D01*
X151986780Y-109257459D01*
X151977914Y-109253786D01*
X151964921Y-109247482D01*
X151962233Y-109247291D01*
X151959744Y-109246260D01*
X151945112Y-109244819D01*
X151766023Y-109246077D01*
X151764016Y-109245408D01*
X151753343Y-109246166D01*
X151740004Y-109246260D01*
X151737515Y-109247290D01*
X151734826Y-109247482D01*
X151721095Y-109252737D01*
X151626540Y-109301428D01*
X151617730Y-109305078D01*
X151614827Y-109307460D01*
X151613414Y-109308188D01*
X151612114Y-109309686D01*
X151606365Y-109314405D01*
X151559023Y-109363440D01*
X151552529Y-109369073D01*
X151550549Y-109372218D01*
X151549419Y-109373389D01*
X151548661Y-109375216D01*
X151544697Y-109381516D01*
X151503022Y-109467404D01*
X151501800Y-109468627D01*
X151498127Y-109477492D01*
X151491823Y-109490486D01*
X151491632Y-109493173D01*
X151490601Y-109495663D01*
X151489160Y-109510295D01*
X151490025Y-109547702D01*
X151489749Y-109548533D01*
X151490188Y-109554715D01*
X151490601Y-109572546D01*
X151491632Y-109575035D01*
X151491823Y-109577723D01*
X151497078Y-109591455D01*
X151545770Y-109686011D01*
X151549419Y-109694820D01*
X151551801Y-109697722D01*
X151552529Y-109699136D01*
X151554027Y-109700435D01*
X151558746Y-109706185D01*
X151601776Y-109747728D01*
X151559023Y-109792011D01*
X151552529Y-109797644D01*
X151550549Y-109800789D01*
X151549419Y-109801960D01*
X151548661Y-109803787D01*
X151544697Y-109810087D01*
X151503022Y-109895975D01*
X151501800Y-109897198D01*
X151498127Y-109906063D01*
X151491823Y-109919057D01*
X151491632Y-109921744D01*
X151490601Y-109924234D01*
X151489160Y-109938866D01*
X151257120Y-109938866D01*
X151256914Y-109902736D01*
X151257618Y-109900627D01*
X151256840Y-109889684D01*
X151256766Y-109876615D01*
X151255735Y-109874126D01*
X151255544Y-109871437D01*
X151250289Y-109857706D01*
X151201597Y-109763151D01*
X151197948Y-109754341D01*
X151195565Y-109751438D01*
X151194838Y-109750025D01*
X151193339Y-109748725D01*
X151188621Y-109742976D01*
X151139585Y-109695634D01*
X151133953Y-109689140D01*
X151130807Y-109687160D01*
X151129637Y-109686030D01*
X151127809Y-109685272D01*
X151121510Y-109681308D01*
X151035621Y-109639633D01*
X151034399Y-109638411D01*
X151025533Y-109634738D01*
X151012540Y-109628434D01*
X151009852Y-109628243D01*
X151007363Y-109627212D01*
X150992731Y-109625771D01*
X150813642Y-109627029D01*
X150811635Y-109626360D01*
X150800962Y-109627118D01*
X150787623Y-109627212D01*
X150785134Y-109628242D01*
X150782445Y-109628434D01*
X150768714Y-109633689D01*
X150709382Y-109664241D01*
X150727031Y-109591539D01*
X150808570Y-109467156D01*
X150844313Y-109430133D01*
X150913104Y-109394709D01*
X151102601Y-109393378D01*
X151129637Y-109382179D01*
X151150329Y-109361487D01*
X151161528Y-109334451D01*
X151161528Y-109305187D01*
X151150329Y-109278151D01*
X151129637Y-109257459D01*
X151102601Y-109246260D01*
X151087969Y-109244819D01*
X150908880Y-109246077D01*
X150906873Y-109245408D01*
X150896200Y-109246166D01*
X150882861Y-109246260D01*
X150880372Y-109247290D01*
X150877683Y-109247482D01*
X150863952Y-109252737D01*
X150769397Y-109301428D01*
X150760587Y-109305078D01*
X150757684Y-109307460D01*
X150756271Y-109308188D01*
X150754971Y-109309686D01*
X150749222Y-109314405D01*
X150706208Y-109358958D01*
X150701548Y-109362079D01*
X150692336Y-109373325D01*
X150692276Y-109373389D01*
X150692266Y-109373411D01*
X150692232Y-109373454D01*
X150597884Y-109517374D01*
X150591584Y-109525878D01*
X150590713Y-109528313D01*
X150590077Y-109529285D01*
X150589717Y-109531101D01*
X150586637Y-109539724D01*
X150541396Y-109726089D01*
X150538220Y-109733758D01*
X150537322Y-109742872D01*
X150536868Y-109744744D01*
X150537030Y-109745836D01*
X150536779Y-109748390D01*
X150144378Y-109748390D01*
X150129637Y-109733649D01*
X150102601Y-109722450D01*
X150087969Y-109721009D01*
X149828787Y-109722082D01*
X149828321Y-109394602D01*
X150245458Y-109393378D01*
X150272494Y-109382179D01*
X150293186Y-109361487D01*
X150304385Y-109334451D01*
X150304385Y-109305187D01*
X150293186Y-109278151D01*
X150272494Y-109257459D01*
X150245458Y-109246260D01*
X150230826Y-109244819D01*
X149740004Y-109246260D01*
X149712968Y-109257459D01*
X149692276Y-109278151D01*
X149681077Y-109305187D01*
X149679636Y-109319819D01*
X149352075Y-109319819D01*
X149352575Y-109308431D01*
X149352006Y-109306867D01*
X149352004Y-109305187D01*
X149347022Y-109293160D01*
X149342575Y-109280930D01*
X149341445Y-109279696D01*
X149340805Y-109278151D01*
X149331605Y-109268951D01*
X149322811Y-109259348D01*
X149321294Y-109258640D01*
X149320113Y-109257459D01*
X149308100Y-109252482D01*
X149296293Y-109246973D01*
X149294620Y-109246899D01*
X149293077Y-109246260D01*
X149280071Y-109246260D01*
X149267057Y-109245688D01*
X149265484Y-109246260D01*
X149263813Y-109246260D01*
X149251794Y-109251238D01*
X149239556Y-109255689D01*
X149238322Y-109256819D01*
X149236777Y-109257459D01*
X149227578Y-109266657D01*
X149217975Y-109275452D01*
X149216799Y-109277436D01*
X149216085Y-109278151D01*
X149215408Y-109279784D01*
X149210481Y-109288102D01*
X148945577Y-109858422D01*
X148678878Y-109289592D01*
X148674139Y-109278151D01*
X148672962Y-109276974D01*
X148672249Y-109275453D01*
X148662652Y-109266664D01*
X148653447Y-109257459D01*
X148651901Y-109256818D01*
X148650668Y-109255689D01*
X148638437Y-109251241D01*
X148626411Y-109246260D01*
X148624737Y-109246260D01*
X148623167Y-109245689D01*
X148610166Y-109246260D01*
X148597147Y-109246260D01*
X148595602Y-109246899D01*
X148593931Y-109246973D01*
X148582132Y-109252479D01*
X148570111Y-109257459D01*
X148568928Y-109258641D01*
X148567413Y-109259349D01*
X148558624Y-109268945D01*
X148549419Y-109278151D01*
X148548778Y-109279696D01*
X148547649Y-109280930D01*
X148543201Y-109293160D01*
X148538220Y-109305187D01*
X148537993Y-109307482D01*
X148537649Y-109308431D01*
X148537726Y-109310197D01*
X148536779Y-109319819D01*
X148097287Y-109319819D01*
X148091966Y-109314682D01*
X148086334Y-109308188D01*
X148083188Y-109306208D01*
X148082018Y-109305078D01*
X148080190Y-109304320D01*
X148073891Y-109300356D01*
X147988002Y-109258681D01*
X147986780Y-109257459D01*
X147977914Y-109253786D01*
X147964921Y-109247482D01*
X147962233Y-109247291D01*
X147959744Y-109246260D01*
X147945112Y-109244819D01*
X147597147Y-109246260D01*
X147570111Y-109257459D01*
X147549419Y-109278151D01*
X147538220Y-109305187D01*
X147536779Y-109319819D01*
X147425668Y-109319819D01*
X147425668Y-109133708D01*
X153274080Y-109133708D01*
X153274080Y-110505930D01*
G37*
G36*
X125791565Y-112626871D02*
G01*
X125822892Y-112657115D01*
X125858350Y-112725972D01*
X125859335Y-112833604D01*
X125826155Y-112901985D01*
X125795910Y-112933313D01*
X125727222Y-112968684D01*
X125601071Y-112969144D01*
X125598249Y-112968646D01*
X125595915Y-112969162D01*
X125435997Y-112969745D01*
X125435464Y-112594550D01*
X125722798Y-112593503D01*
X125791565Y-112626871D01*
G37*
G36*
X129736925Y-113705930D02*
G01*
X125175668Y-113705930D01*
X125175668Y-112519819D01*
X125286779Y-112519819D01*
X125288220Y-113534451D01*
X125299419Y-113561487D01*
X125320111Y-113582179D01*
X125347147Y-113593378D01*
X125376411Y-113593378D01*
X125403447Y-113582179D01*
X125424139Y-113561487D01*
X125435338Y-113534451D01*
X125436779Y-113519819D01*
X125436208Y-113118356D01*
X125560431Y-113117904D01*
X125881336Y-113573989D01*
X125906015Y-113589716D01*
X125934832Y-113594802D01*
X125963403Y-113588472D01*
X125987377Y-113571690D01*
X126003104Y-113547012D01*
X126008189Y-113518194D01*
X126001860Y-113489623D01*
X125994650Y-113476810D01*
X125741793Y-113117439D01*
X125744691Y-113117233D01*
X125757363Y-113117187D01*
X125759852Y-113116155D01*
X125762540Y-113115965D01*
X125776272Y-113110710D01*
X125870828Y-113062017D01*
X125879637Y-113058369D01*
X125882539Y-113055986D01*
X125883953Y-113055259D01*
X125885252Y-113053760D01*
X125891002Y-113049042D01*
X125938343Y-113000006D01*
X125944838Y-112994374D01*
X125946817Y-112991228D01*
X125947948Y-112990058D01*
X125948705Y-112988230D01*
X125952670Y-112981931D01*
X125994345Y-112896041D01*
X125995567Y-112894820D01*
X125999236Y-112885960D01*
X126005544Y-112872962D01*
X126005735Y-112870272D01*
X126006766Y-112867784D01*
X126008207Y-112853152D01*
X126007002Y-112721521D01*
X126007618Y-112719675D01*
X126006892Y-112709460D01*
X126006766Y-112695663D01*
X126005735Y-112693174D01*
X126005544Y-112690485D01*
X126000289Y-112676754D01*
X125951597Y-112582199D01*
X125947948Y-112573389D01*
X125945565Y-112570486D01*
X125944838Y-112569073D01*
X125943339Y-112567773D01*
X125938621Y-112562024D01*
X125894906Y-112519819D01*
X126286779Y-112519819D01*
X126288220Y-113534451D01*
X126299419Y-113561487D01*
X126320111Y-113582179D01*
X126347147Y-113593378D01*
X126361779Y-113594819D01*
X126852601Y-113593378D01*
X126879637Y-113582179D01*
X126900329Y-113561487D01*
X126911528Y-113534451D01*
X126911528Y-113505187D01*
X126900329Y-113478151D01*
X126879637Y-113457459D01*
X126852601Y-113446260D01*
X126837969Y-113444819D01*
X126436674Y-113445997D01*
X126436141Y-113070701D01*
X126709744Y-113069568D01*
X126736780Y-113058369D01*
X126757472Y-113037677D01*
X126768671Y-113010641D01*
X126768671Y-112981377D01*
X126757472Y-112954341D01*
X126736780Y-112933649D01*
X126709744Y-112922450D01*
X126695112Y-112921009D01*
X126435930Y-112922082D01*
X126435629Y-112710295D01*
X127143922Y-112710295D01*
X127145027Y-112794601D01*
X127144511Y-112796152D01*
X127145169Y-112805421D01*
X127145363Y-112820165D01*
X127146394Y-112822654D01*
X127146585Y-112825342D01*
X127151840Y-112839074D01*
X127200532Y-112933630D01*
X127204181Y-112942439D01*
X127206563Y-112945341D01*
X127207291Y-112946755D01*
X127208789Y-112948054D01*
X127213508Y-112953804D01*
X127262543Y-113001145D01*
X127268176Y-113007640D01*
X127271321Y-113009619D01*
X127272492Y-113010750D01*
X127274319Y-113011507D01*
X127280619Y-113015472D01*
X127371851Y-113059740D01*
X127377362Y-113063823D01*
X127388377Y-113067758D01*
X127389588Y-113068346D01*
X127390128Y-113068384D01*
X127391208Y-113068770D01*
X127568691Y-113111854D01*
X127648708Y-113150680D01*
X127680035Y-113180924D01*
X127715557Y-113249905D01*
X127716346Y-113310066D01*
X127683298Y-113378175D01*
X127653052Y-113409504D01*
X127584302Y-113444907D01*
X127377521Y-113446086D01*
X127228302Y-113397789D01*
X127199112Y-113399864D01*
X127172939Y-113412950D01*
X127153765Y-113435057D01*
X127144511Y-113462820D01*
X127146586Y-113492010D01*
X127159672Y-113518183D01*
X127181779Y-113537357D01*
X127195205Y-113543351D01*
X127337786Y-113589500D01*
X127347147Y-113593378D01*
X127350910Y-113593748D01*
X127352398Y-113594230D01*
X127354372Y-113594089D01*
X127361779Y-113594819D01*
X127588383Y-113593526D01*
X127590493Y-113594230D01*
X127601435Y-113593452D01*
X127614506Y-113593378D01*
X127616995Y-113592346D01*
X127619683Y-113592156D01*
X127633415Y-113586901D01*
X127727969Y-113538209D01*
X127736780Y-113534560D01*
X127739682Y-113532177D01*
X127741096Y-113531450D01*
X127742396Y-113529950D01*
X127748146Y-113525232D01*
X127795487Y-113476195D01*
X127801981Y-113470564D01*
X127803960Y-113467418D01*
X127805092Y-113466247D01*
X127805849Y-113464417D01*
X127809813Y-113458121D01*
X127851488Y-113372231D01*
X127852710Y-113371010D01*
X127856379Y-113362150D01*
X127862687Y-113349152D01*
X127862878Y-113346462D01*
X127863909Y-113343974D01*
X127865350Y-113329342D01*
X127864244Y-113245034D01*
X127864761Y-113243484D01*
X127864102Y-113234213D01*
X127863909Y-113219472D01*
X127862878Y-113216983D01*
X127862687Y-113214294D01*
X127857432Y-113200563D01*
X127808740Y-113106008D01*
X127805091Y-113097198D01*
X127802708Y-113094295D01*
X127801981Y-113092882D01*
X127800482Y-113091582D01*
X127795764Y-113085833D01*
X127746728Y-113038491D01*
X127741096Y-113031997D01*
X127737950Y-113030017D01*
X127736780Y-113028887D01*
X127734952Y-113028129D01*
X127728653Y-113024165D01*
X127637421Y-112979898D01*
X127631910Y-112975814D01*
X127620890Y-112971876D01*
X127619683Y-112971291D01*
X127619143Y-112971252D01*
X127618064Y-112970867D01*
X127440580Y-112927782D01*
X127360564Y-112888957D01*
X127329236Y-112858712D01*
X127293714Y-112789731D01*
X127292925Y-112729570D01*
X127325974Y-112661460D01*
X127356218Y-112630133D01*
X127424969Y-112594730D01*
X127631750Y-112593551D01*
X127780969Y-112641849D01*
X127810159Y-112639774D01*
X127836333Y-112626688D01*
X127855507Y-112604580D01*
X127864761Y-112576818D01*
X127862686Y-112547628D01*
X127849599Y-112521455D01*
X127847713Y-112519819D01*
X128143922Y-112519819D01*
X128145363Y-113534451D01*
X128156562Y-113561487D01*
X128177254Y-113582179D01*
X128204290Y-113593378D01*
X128218922Y-113594819D01*
X128709744Y-113593378D01*
X128736780Y-113582179D01*
X128757472Y-113561487D01*
X128768671Y-113534451D01*
X128768671Y-113505187D01*
X128757472Y-113478151D01*
X128736780Y-113457459D01*
X128709744Y-113446260D01*
X128695112Y-113444819D01*
X128293817Y-113445997D01*
X128293284Y-113070701D01*
X128566887Y-113069568D01*
X128593923Y-113058369D01*
X128614615Y-113037677D01*
X128625814Y-113010641D01*
X128625814Y-112981377D01*
X128614615Y-112954341D01*
X128593923Y-112933649D01*
X128566887Y-112922450D01*
X128552255Y-112921009D01*
X128293073Y-112922082D01*
X128292607Y-112594602D01*
X128709744Y-112593378D01*
X128736780Y-112582179D01*
X128757472Y-112561487D01*
X128768671Y-112534451D01*
X128907268Y-112534451D01*
X128918467Y-112561487D01*
X128939159Y-112582179D01*
X128966195Y-112593378D01*
X128980827Y-112594819D01*
X129191646Y-112594300D01*
X129192982Y-113534451D01*
X129204181Y-113561487D01*
X129224873Y-113582179D01*
X129251909Y-113593378D01*
X129281173Y-113593378D01*
X129308209Y-113582179D01*
X129328901Y-113561487D01*
X129340100Y-113534451D01*
X129341541Y-113519819D01*
X129340226Y-112593935D01*
X129566887Y-112593378D01*
X129593923Y-112582179D01*
X129614615Y-112561487D01*
X129625814Y-112534451D01*
X129625814Y-112505187D01*
X129614615Y-112478151D01*
X129593923Y-112457459D01*
X129566887Y-112446260D01*
X129552255Y-112444819D01*
X128966195Y-112446260D01*
X128939159Y-112457459D01*
X128918467Y-112478151D01*
X128907268Y-112505187D01*
X128907268Y-112534451D01*
X128768671Y-112534451D01*
X128768671Y-112505187D01*
X128757472Y-112478151D01*
X128736780Y-112457459D01*
X128709744Y-112446260D01*
X128695112Y-112444819D01*
X128204290Y-112446260D01*
X128177254Y-112457459D01*
X128156562Y-112478151D01*
X128145363Y-112505187D01*
X128143922Y-112519819D01*
X127847713Y-112519819D01*
X127827492Y-112502281D01*
X127814067Y-112496287D01*
X127671488Y-112450138D01*
X127662125Y-112446260D01*
X127658359Y-112445889D01*
X127656873Y-112445408D01*
X127654898Y-112445548D01*
X127647493Y-112444819D01*
X127420887Y-112446111D01*
X127418778Y-112445408D01*
X127407835Y-112446185D01*
X127394766Y-112446260D01*
X127392277Y-112447290D01*
X127389588Y-112447482D01*
X127375857Y-112452737D01*
X127281302Y-112501428D01*
X127272492Y-112505078D01*
X127269589Y-112507460D01*
X127268176Y-112508188D01*
X127266876Y-112509686D01*
X127261127Y-112514405D01*
X127213785Y-112563440D01*
X127207291Y-112569073D01*
X127205311Y-112572218D01*
X127204181Y-112573389D01*
X127203423Y-112575216D01*
X127199459Y-112581516D01*
X127157784Y-112667404D01*
X127156562Y-112668627D01*
X127152889Y-112677492D01*
X127146585Y-112690486D01*
X127146394Y-112693173D01*
X127145363Y-112695663D01*
X127143922Y-112710295D01*
X126435629Y-112710295D01*
X126435464Y-112594602D01*
X126852601Y-112593378D01*
X126879637Y-112582179D01*
X126900329Y-112561487D01*
X126911528Y-112534451D01*
X126911528Y-112505187D01*
X126900329Y-112478151D01*
X126879637Y-112457459D01*
X126852601Y-112446260D01*
X126837969Y-112444819D01*
X126347147Y-112446260D01*
X126320111Y-112457459D01*
X126299419Y-112478151D01*
X126288220Y-112505187D01*
X126286779Y-112519819D01*
X125894906Y-112519819D01*
X125889585Y-112514682D01*
X125883953Y-112508188D01*
X125880807Y-112506208D01*
X125879637Y-112505078D01*
X125877809Y-112504320D01*
X125871510Y-112500356D01*
X125785621Y-112458681D01*
X125784399Y-112457459D01*
X125775533Y-112453786D01*
X125762540Y-112447482D01*
X125759852Y-112447291D01*
X125757363Y-112446260D01*
X125742731Y-112444819D01*
X125347147Y-112446260D01*
X125320111Y-112457459D01*
X125299419Y-112478151D01*
X125288220Y-112505187D01*
X125286779Y-112519819D01*
X125175668Y-112519819D01*
X125175668Y-112333708D01*
X129736925Y-112333708D01*
X129736925Y-113705930D01*
G37*
D12*
G36*
X158072117Y-111624238D02*
G01*
X155242354Y-111624238D01*
X155242354Y-111009357D01*
X155309021Y-111009357D01*
X155312117Y-111062114D01*
X155309179Y-111070931D01*
X155313578Y-111086995D01*
X155313779Y-111090418D01*
X155314793Y-111091432D01*
X155315620Y-111094452D01*
X155342350Y-111141376D01*
X155342350Y-111147558D01*
X155355898Y-111167835D01*
X155358893Y-111170417D01*
X155359144Y-111170858D01*
X155359567Y-111170999D01*
X155379905Y-111188536D01*
X155381448Y-111193164D01*
X155400714Y-111208116D01*
X155404536Y-111209774D01*
X155404746Y-111209956D01*
X155404953Y-111209956D01*
X155446892Y-111228159D01*
X155448598Y-111231002D01*
X155470648Y-111241419D01*
X155568480Y-111262416D01*
X155572143Y-111265259D01*
X155615118Y-111283912D01*
X155632380Y-111298797D01*
X155652492Y-111334102D01*
X155654173Y-111362746D01*
X155639821Y-111395811D01*
X155624935Y-111413075D01*
X155590215Y-111432852D01*
X155477509Y-111436068D01*
X155477000Y-111435778D01*
X155367090Y-111404158D01*
X155324305Y-111425550D01*
X155309179Y-111470931D01*
X155330571Y-111513716D01*
X155351757Y-111525793D01*
X155428326Y-111547821D01*
X155433318Y-111552813D01*
X155457236Y-111557571D01*
X155593344Y-111553687D01*
X155604523Y-111557414D01*
X155621011Y-111552898D01*
X155624011Y-111552813D01*
X155625024Y-111551799D01*
X155628043Y-111550973D01*
X155674971Y-111524242D01*
X155681154Y-111524242D01*
X155701431Y-111510693D01*
X155704010Y-111507701D01*
X155704452Y-111507450D01*
X155704593Y-111507024D01*
X155722130Y-111486686D01*
X155726757Y-111485144D01*
X155741709Y-111465878D01*
X155743368Y-111462054D01*
X155743550Y-111461844D01*
X155743549Y-111461636D01*
X155765302Y-111411520D01*
X155772120Y-111404703D01*
X155775384Y-111388293D01*
X155776721Y-111385214D01*
X155776267Y-111383853D01*
X155776878Y-111380785D01*
X155773781Y-111328030D01*
X155776721Y-111319212D01*
X155772320Y-111303143D01*
X155772120Y-111299724D01*
X155771106Y-111298710D01*
X155770280Y-111295691D01*
X155743549Y-111248764D01*
X155743550Y-111242584D01*
X155730002Y-111222306D01*
X155727007Y-111219724D01*
X155726757Y-111219284D01*
X155726333Y-111219142D01*
X155705994Y-111201605D01*
X155704452Y-111196978D01*
X155685187Y-111182026D01*
X155681362Y-111180366D01*
X155681154Y-111180186D01*
X155680947Y-111180185D01*
X155639005Y-111161981D01*
X155637301Y-111159140D01*
X155615251Y-111148723D01*
X155517420Y-111127725D01*
X155513758Y-111124883D01*
X155470782Y-111106229D01*
X155453517Y-111091342D01*
X155433406Y-111056038D01*
X155431725Y-111027395D01*
X155446076Y-110994332D01*
X155460964Y-110977066D01*
X155495684Y-110957289D01*
X155608390Y-110954073D01*
X155608900Y-110954364D01*
X155718809Y-110985984D01*
X155761593Y-110964592D01*
X155776720Y-110919211D01*
X155776609Y-110918989D01*
X155828065Y-110918989D01*
X155861889Y-110952813D01*
X155885807Y-110957571D01*
X155995201Y-110956151D01*
X155999494Y-111518989D01*
X156033318Y-111552813D01*
X156081154Y-111552813D01*
X156114978Y-111518989D01*
X156119736Y-111495071D01*
X156115614Y-110954589D01*
X156252583Y-110952813D01*
X156286407Y-110918989D01*
X156286407Y-110895071D01*
X156366165Y-110895071D01*
X156370923Y-111518989D01*
X156404747Y-111552813D01*
X156452583Y-111552813D01*
X156486407Y-111518989D01*
X156491165Y-111495071D01*
X156489238Y-111242499D01*
X156711649Y-111239613D01*
X156713780Y-111518989D01*
X156747604Y-111552813D01*
X156795440Y-111552813D01*
X156829264Y-111518989D01*
X156834022Y-111495071D01*
X156832531Y-111299502D01*
X156966322Y-111299502D01*
X156970922Y-111308702D01*
X156970922Y-111318989D01*
X156981209Y-111329276D01*
X156987714Y-111342286D01*
X156997471Y-111345538D01*
X157004746Y-111352813D01*
X157028664Y-111357571D01*
X157254794Y-111354849D01*
X157256637Y-111518989D01*
X157290461Y-111552813D01*
X157338297Y-111552813D01*
X157372121Y-111518989D01*
X157376879Y-111495071D01*
X157375288Y-111353399D01*
X157424011Y-111352813D01*
X157457835Y-111318989D01*
X157457835Y-111271153D01*
X157424011Y-111237329D01*
X157400093Y-111232571D01*
X157373936Y-111232885D01*
X157373554Y-111198839D01*
X157540258Y-111198839D01*
X157542350Y-111201395D01*
X157542350Y-111204701D01*
X157557225Y-111219576D01*
X157570548Y-111235860D01*
X157573836Y-111236188D01*
X157576175Y-111238527D01*
X157597221Y-111238527D01*
X157618147Y-111240620D01*
X157620703Y-111238527D01*
X157624009Y-111238528D01*
X157644286Y-111224980D01*
X157660962Y-111205639D01*
X157695686Y-111185860D01*
X157807890Y-111182659D01*
X157843689Y-111198197D01*
X157860954Y-111213084D01*
X157880731Y-111247805D01*
X157883932Y-111360010D01*
X157868393Y-111395811D01*
X157853507Y-111413075D01*
X157818787Y-111432852D01*
X157706582Y-111436053D01*
X157670781Y-111420514D01*
X157624010Y-111380186D01*
X157576176Y-111380186D01*
X157542351Y-111414011D01*
X157542351Y-111461845D01*
X157555899Y-111482122D01*
X157579906Y-111502822D01*
X157581449Y-111507450D01*
X157600715Y-111522402D01*
X157604539Y-111524061D01*
X157604748Y-111524242D01*
X157604954Y-111524242D01*
X157655072Y-111545995D01*
X157661890Y-111552813D01*
X157678299Y-111556077D01*
X157681379Y-111557414D01*
X157682739Y-111556960D01*
X157685808Y-111557571D01*
X157821916Y-111553687D01*
X157833095Y-111557414D01*
X157849583Y-111552898D01*
X157852583Y-111552813D01*
X157853596Y-111551799D01*
X157856615Y-111550973D01*
X157903543Y-111524242D01*
X157909726Y-111524242D01*
X157930003Y-111510693D01*
X157932582Y-111507701D01*
X157933024Y-111507450D01*
X157933165Y-111507024D01*
X157950702Y-111486686D01*
X157955329Y-111485144D01*
X157970281Y-111465878D01*
X157971940Y-111462054D01*
X157972122Y-111461844D01*
X157972121Y-111461636D01*
X157993874Y-111411520D01*
X158000692Y-111404703D01*
X158003956Y-111388293D01*
X158005293Y-111385214D01*
X158004839Y-111383853D01*
X158005450Y-111380785D01*
X158001566Y-111244676D01*
X158005293Y-111233499D01*
X158000777Y-111217009D01*
X158000692Y-111214010D01*
X157999678Y-111212996D01*
X157998852Y-111209978D01*
X157972121Y-111163049D01*
X157972121Y-111156867D01*
X157958573Y-111136590D01*
X157955579Y-111134009D01*
X157955329Y-111133569D01*
X157954905Y-111133427D01*
X157934565Y-111115890D01*
X157933024Y-111111265D01*
X157913759Y-111096312D01*
X157909932Y-111094651D01*
X157909725Y-111094472D01*
X157909520Y-111094472D01*
X157859400Y-111072717D01*
X157852583Y-111065900D01*
X157836172Y-111062635D01*
X157833096Y-111061300D01*
X157831736Y-111061753D01*
X157828665Y-111061142D01*
X157692553Y-111065025D01*
X157681377Y-111061300D01*
X157672713Y-111063672D01*
X157681756Y-110956755D01*
X157938297Y-110952813D01*
X157972121Y-110918989D01*
X157972121Y-110871153D01*
X157938297Y-110837329D01*
X157914379Y-110832571D01*
X157627971Y-110836972D01*
X157610611Y-110835236D01*
X157608116Y-110837277D01*
X157604747Y-110837329D01*
X157589870Y-110852205D01*
X157573590Y-110865526D01*
X157572290Y-110869785D01*
X157570923Y-110871153D01*
X157570923Y-110874269D01*
X157566475Y-110888852D01*
X157543966Y-111154993D01*
X157542351Y-111156867D01*
X157542350Y-111174095D01*
X157540258Y-111198839D01*
X157373554Y-111198839D01*
X157372121Y-111071153D01*
X157338297Y-111037329D01*
X157290461Y-111037329D01*
X157256637Y-111071153D01*
X157251879Y-111095071D01*
X157253442Y-111234335D01*
X157113354Y-111236021D01*
X157233863Y-110862069D01*
X157212471Y-110819285D01*
X157167090Y-110804158D01*
X157124306Y-110825550D01*
X157112228Y-110846736D01*
X156977614Y-111264460D01*
X156970922Y-111271153D01*
X156970922Y-111285227D01*
X156966322Y-111299502D01*
X156832531Y-111299502D01*
X156829264Y-110871153D01*
X156795440Y-110837329D01*
X156747604Y-110837329D01*
X156713780Y-110871153D01*
X156709022Y-110895071D01*
X156710730Y-111119073D01*
X156488319Y-111121958D01*
X156486407Y-110871153D01*
X156452583Y-110837329D01*
X156404747Y-110837329D01*
X156370923Y-110871153D01*
X156366165Y-110895071D01*
X156286407Y-110895071D01*
X156286407Y-110871153D01*
X156252583Y-110837329D01*
X156228665Y-110832571D01*
X155861889Y-110837329D01*
X155828065Y-110871153D01*
X155828065Y-110918989D01*
X155776609Y-110918989D01*
X155755328Y-110876426D01*
X155734142Y-110864349D01*
X155657573Y-110842320D01*
X155652582Y-110837329D01*
X155628664Y-110832571D01*
X155492555Y-110836454D01*
X155481378Y-110832728D01*
X155464888Y-110837243D01*
X155461889Y-110837329D01*
X155460875Y-110838342D01*
X155457857Y-110839169D01*
X155410928Y-110865899D01*
X155404746Y-110865900D01*
X155384469Y-110879449D01*
X155381889Y-110882440D01*
X155381448Y-110882692D01*
X155381306Y-110883117D01*
X155363769Y-110903456D01*
X155359144Y-110904998D01*
X155344191Y-110924263D01*
X155342530Y-110928088D01*
X155342350Y-110928298D01*
X155342350Y-110928504D01*
X155320596Y-110978621D01*
X155313779Y-110985439D01*
X155310514Y-111001849D01*
X155309179Y-111004926D01*
X155309632Y-111006285D01*
X155309021Y-111009357D01*
X155242354Y-111009357D01*
X155242354Y-110737491D01*
X158072117Y-110737491D01*
X158072117Y-111624238D01*
G37*
D11*
G36*
X156396327Y-88526871D02*
G01*
X156427654Y-88557115D01*
X156463112Y-88625972D01*
X156464097Y-88733604D01*
X156430917Y-88801985D01*
X156400672Y-88833313D01*
X156331984Y-88868684D01*
X156205833Y-88869144D01*
X156203011Y-88868646D01*
X156200677Y-88869162D01*
X156040759Y-88869745D01*
X156040226Y-88494550D01*
X156327560Y-88493503D01*
X156396327Y-88526871D01*
G37*
G36*
X155434936Y-89059406D02*
G01*
X155164896Y-89060199D01*
X155299441Y-88654742D01*
X155434936Y-89059406D01*
G37*
G36*
X157579782Y-89605930D02*
G01*
X153875668Y-89605930D01*
X153875668Y-88419819D01*
X153986779Y-88419819D01*
X153988173Y-89217543D01*
X153987368Y-89219961D01*
X153988198Y-89231648D01*
X153988220Y-89243974D01*
X153989251Y-89246463D01*
X153989442Y-89249151D01*
X153994697Y-89262883D01*
X154043387Y-89357435D01*
X154047037Y-89366247D01*
X154049420Y-89369151D01*
X154050148Y-89370564D01*
X154051646Y-89371863D01*
X154056364Y-89377612D01*
X154105399Y-89424953D01*
X154111033Y-89431450D01*
X154114178Y-89433429D01*
X154115349Y-89434560D01*
X154117176Y-89435317D01*
X154123476Y-89439282D01*
X154209365Y-89480957D01*
X154210587Y-89482179D01*
X154219446Y-89485848D01*
X154232445Y-89492156D01*
X154235134Y-89492347D01*
X154237623Y-89493378D01*
X154252255Y-89494819D01*
X154431342Y-89493560D01*
X154433350Y-89494230D01*
X154444022Y-89493471D01*
X154457363Y-89493378D01*
X154459852Y-89492346D01*
X154462540Y-89492156D01*
X154476272Y-89486901D01*
X154570826Y-89438209D01*
X154579637Y-89434560D01*
X154582539Y-89432177D01*
X154583953Y-89431450D01*
X154585253Y-89429950D01*
X154591003Y-89425232D01*
X154605284Y-89410439D01*
X154892130Y-89410439D01*
X154894205Y-89439629D01*
X154907291Y-89465802D01*
X154929398Y-89484976D01*
X154957161Y-89494230D01*
X154986351Y-89492155D01*
X155012524Y-89479069D01*
X155031698Y-89456962D01*
X155037692Y-89443536D01*
X155115537Y-89208946D01*
X155484643Y-89207862D01*
X155568050Y-89456961D01*
X155587224Y-89479068D01*
X155613397Y-89492155D01*
X155642587Y-89494230D01*
X155670349Y-89484976D01*
X155692457Y-89465802D01*
X155705543Y-89439628D01*
X155707618Y-89410438D01*
X155704358Y-89396102D01*
X155377467Y-88419819D01*
X155891541Y-88419819D01*
X155892982Y-89434451D01*
X155904181Y-89461487D01*
X155924873Y-89482179D01*
X155951909Y-89493378D01*
X155981173Y-89493378D01*
X156008209Y-89482179D01*
X156028901Y-89461487D01*
X156040100Y-89434451D01*
X156041541Y-89419819D01*
X156040970Y-89018356D01*
X156165193Y-89017904D01*
X156486098Y-89473989D01*
X156510777Y-89489716D01*
X156539594Y-89494802D01*
X156568165Y-89488472D01*
X156592139Y-89471690D01*
X156607866Y-89447012D01*
X156612951Y-89418194D01*
X156606622Y-89389623D01*
X156599412Y-89376810D01*
X156346555Y-89017439D01*
X156349453Y-89017233D01*
X156362125Y-89017187D01*
X156364614Y-89016155D01*
X156367302Y-89015965D01*
X156381034Y-89010710D01*
X156475590Y-88962017D01*
X156484399Y-88958369D01*
X156487301Y-88955986D01*
X156488715Y-88955259D01*
X156490014Y-88953760D01*
X156495764Y-88949042D01*
X156543105Y-88900006D01*
X156549600Y-88894374D01*
X156551579Y-88891228D01*
X156552710Y-88890058D01*
X156553467Y-88888230D01*
X156557432Y-88881931D01*
X156599107Y-88796041D01*
X156600329Y-88794820D01*
X156603998Y-88785960D01*
X156610306Y-88772962D01*
X156610497Y-88770272D01*
X156611528Y-88767784D01*
X156612969Y-88753152D01*
X156611764Y-88621521D01*
X156612380Y-88619675D01*
X156611654Y-88609460D01*
X156611528Y-88595663D01*
X156610497Y-88593174D01*
X156610306Y-88590485D01*
X156605051Y-88576754D01*
X156556359Y-88482199D01*
X156552710Y-88473389D01*
X156550327Y-88470486D01*
X156549600Y-88469073D01*
X156548101Y-88467773D01*
X156543383Y-88462024D01*
X156514823Y-88434451D01*
X156750125Y-88434451D01*
X156761324Y-88461487D01*
X156782016Y-88482179D01*
X156809052Y-88493378D01*
X156823684Y-88494819D01*
X157034503Y-88494300D01*
X157035839Y-89434451D01*
X157047038Y-89461487D01*
X157067730Y-89482179D01*
X157094766Y-89493378D01*
X157124030Y-89493378D01*
X157151066Y-89482179D01*
X157171758Y-89461487D01*
X157182957Y-89434451D01*
X157184398Y-89419819D01*
X157183083Y-88493935D01*
X157409744Y-88493378D01*
X157436780Y-88482179D01*
X157457472Y-88461487D01*
X157468671Y-88434451D01*
X157468671Y-88405187D01*
X157457472Y-88378151D01*
X157436780Y-88357459D01*
X157409744Y-88346260D01*
X157395112Y-88344819D01*
X156809052Y-88346260D01*
X156782016Y-88357459D01*
X156761324Y-88378151D01*
X156750125Y-88405187D01*
X156750125Y-88434451D01*
X156514823Y-88434451D01*
X156494347Y-88414682D01*
X156488715Y-88408188D01*
X156485569Y-88406208D01*
X156484399Y-88405078D01*
X156482571Y-88404320D01*
X156476272Y-88400356D01*
X156390383Y-88358681D01*
X156389161Y-88357459D01*
X156380295Y-88353786D01*
X156367302Y-88347482D01*
X156364614Y-88347291D01*
X156362125Y-88346260D01*
X156347493Y-88344819D01*
X155951909Y-88346260D01*
X155924873Y-88357459D01*
X155904181Y-88378151D01*
X155892982Y-88405187D01*
X155891541Y-88419819D01*
X155377467Y-88419819D01*
X155372580Y-88405223D01*
X155372210Y-88400010D01*
X155368046Y-88391683D01*
X155365031Y-88382676D01*
X155361519Y-88378627D01*
X155359124Y-88373836D01*
X155352020Y-88367674D01*
X155345857Y-88360569D01*
X155341063Y-88358172D01*
X155337016Y-88354662D01*
X155328094Y-88351688D01*
X155319684Y-88347483D01*
X155314339Y-88347103D01*
X155309254Y-88345408D01*
X155299874Y-88346074D01*
X155290494Y-88345408D01*
X155285408Y-88347103D01*
X155280064Y-88347483D01*
X155271656Y-88351687D01*
X155262731Y-88354662D01*
X155258680Y-88358175D01*
X155253891Y-88360570D01*
X155247732Y-88367670D01*
X155240624Y-88373836D01*
X155238227Y-88378629D01*
X155234717Y-88382677D01*
X155228723Y-88396102D01*
X154990548Y-89113850D01*
X154988220Y-89119472D01*
X154988220Y-89120867D01*
X154892130Y-89410439D01*
X154605284Y-89410439D01*
X154638344Y-89376195D01*
X154644838Y-89370564D01*
X154646817Y-89367418D01*
X154647949Y-89366247D01*
X154648706Y-89364417D01*
X154652670Y-89358121D01*
X154694345Y-89272231D01*
X154695567Y-89271010D01*
X154699236Y-89262150D01*
X154705544Y-89249152D01*
X154705735Y-89246462D01*
X154706766Y-89243974D01*
X154708207Y-89229342D01*
X154706766Y-88405187D01*
X154695567Y-88378151D01*
X154674875Y-88357459D01*
X154647839Y-88346260D01*
X154618575Y-88346260D01*
X154591539Y-88357459D01*
X154570847Y-88378151D01*
X154559648Y-88405187D01*
X154558207Y-88419819D01*
X154559587Y-89209274D01*
X154526155Y-89278175D01*
X154495909Y-89309504D01*
X154427119Y-89344928D01*
X154271950Y-89346018D01*
X154203421Y-89312767D01*
X154172094Y-89282521D01*
X154136751Y-89213890D01*
X154135338Y-88405187D01*
X154124139Y-88378151D01*
X154103447Y-88357459D01*
X154076411Y-88346260D01*
X154047147Y-88346260D01*
X154020111Y-88357459D01*
X153999419Y-88378151D01*
X153988220Y-88405187D01*
X153986779Y-88419819D01*
X153875668Y-88419819D01*
X153875668Y-88233708D01*
X157579782Y-88233708D01*
X157579782Y-89605930D01*
G37*
M02*
